<svg version="1.1" id="Capa_1" xmlns="http://www.w3.org/2000/svg" xmlns:xlink="http://www.w3.org/1999/xlink" x="0px" y="0px" viewBox="0 0 113.4 56.7" style="enable-background:new 0 0 113.4 56.7;" xml:space="preserve">
<style type="text/css">
	.st0{fill:#FFFFFF;}
</style>
	<path class="st0" d="M97.1,32c-1.3,0-2.4,1-2.4,2.3c0,1.4,1.1,2.3,2.4,2.3c1.3,0,2.4-1,2.4-2.3C99.5,33,98.4,32,97.1,32z M97.1,36.3  c-1.1,0-1.9-0.8-1.9-2c0-1.1,0.8-2,1.9-2c1.1,0,1.9,0.8,1.9,2C99,35.5,98.2,36.3,97.1,36.3z"/>
	<path class="st0" d="M98.2,33.8c0-0.5-0.3-0.8-0.9-0.8h-1v2.7h0.4v-1.2h0.5l0.7,1.2h0.5l-0.8-1.2C97.9,34.5,98.2,34.3,98.2,33.8z M96.6,34.2  v-0.8h0.6c0.3,0,0.6,0.1,0.6,0.4c0,0.4-0.3,0.4-0.7,0.4H96.6z"/>
	<path class="st0" d="M13.9,24.4c0,4.8,10.7,8.2,24.3,9.9v-1v-0.1v-1.1c-7.4-1.8-12.3-4.6-12.3-7.7c0-4.5,10-8.4,23.7-9.5l0.5,0v-1.3l-0.5,0  C25.1,14.6,13.9,19.9,13.9,24.4z"/>
	<path class="st0" d="M74.9,32.2v1.1v0v1c13.7-1.6,24.5-5.1,24.5-9.9c0-6.2-18.3-10.1-36.3-10.8l-0.5,0v1.3l0.5,0c13.9,1,24.4,5.1,24.4,9.5  C87.4,27.5,82.5,30.4,74.9,32.2z"/>
	<g>
	<path class="st0" d="M34.9,19.3H41c1,0,1.8,0.2,2.4,0.8c0.5,0.5,0.8,1.1,0.8,1.9c0,0.6-0.2,1.2-0.6,1.6c-0.3,0.3-0.6,0.5-1.2,0.7   c0.8,0.2,1.3,0.5,1.7,1s0.5,1,0.5,1.7c0,0.5-0.1,1-0.4,1.5s-0.6,0.8-1,1c-0.3,0.2-0.7,0.3-1.2,0.3c-0.7,0.1-1.2,0.1-1.5,0.1h-5.7   L34.9,19.3L34.9,19.3z M38.2,23.5h1.4c0.5,0,0.9-0.1,1.1-0.3c0.2-0.2,0.3-0.4,0.3-0.8c0-0.3-0.1-0.5-0.3-0.7   c-0.2-0.2-0.5-0.3-1-0.3h-1.5V23.5z M38.2,27.6h1.7c0.6,0,1-0.1,1.2-0.3c0.2-0.2,0.3-0.5,0.3-0.8c0-0.3-0.1-0.6-0.3-0.8   c-0.2-0.2-0.6-0.3-1.2-0.3h-1.7V27.6z"/>
		<path class="st0" d="M46.4,19.3h8.8v2.3h-5.5v1.7h5.1v2.2h-5.1v2.1h5.7v2.4h-9V19.3z"/>
		<path class="st0" d="M56.6,26.4l3.1-0.2c0.1,0.5,0.2,0.9,0.4,1.2c0.3,0.4,0.8,0.7,1.5,0.7c0.5,0,0.8-0.1,1.1-0.3c0.2-0.2,0.4-0.5,0.4-0.8   c0-0.3-0.1-0.5-0.4-0.7c-0.2-0.2-0.8-0.4-1.7-0.6c-1.4-0.3-2.5-0.8-3.1-1.3c-0.6-0.5-0.9-1.2-0.9-2c0-0.5,0.2-1.1,0.5-1.5   c0.3-0.5,0.8-0.9,1.4-1.1c0.6-0.3,1.5-0.4,2.6-0.4c1.4,0,2.4,0.2,3.1,0.8c0.7,0.5,1.1,1.3,1.3,2.4l-3.1,0.2c-0.1-0.5-0.2-0.8-0.5-1   c-0.3-0.2-0.6-0.3-1.1-0.3c-0.4,0-0.7,0.1-0.9,0.2c-0.2,0.2-0.3,0.4-0.3,0.6c0,0.2,0.1,0.3,0.2,0.5c0.2,0.1,0.5,0.3,1.1,0.4   c1.4,0.3,2.5,0.6,3.1,0.9c0.6,0.3,1.1,0.7,1.3,1.2s0.4,1,0.4,1.6c0,0.7-0.2,1.3-0.6,1.9c-0.4,0.6-0.9,1-1.6,1.3   c-0.7,0.3-1.5,0.5-2.6,0.5c-1.8,0-3.1-0.3-3.8-1C57.1,28.4,56.7,27.5,56.6,26.4z"/>
		<path class="st0" d="M67.1,19.3h10v2.6h-3.3v8h-3.3v-8h-3.3C67.1,21.9,67.1,19.3,67.1,19.3z"/>
</g>
	<g>
	<path class="st0" d="M55.6,16.7h-0.9l-0.3-1.1h-1.6l-0.3,1.1h-0.9l1.5-4.9H54L55.6,16.7z M54.2,14.7l-0.5-1.8l-0.5,1.8H54.2z"/>
		<path class="st0" d="M56,16.7v-4.9h1.2l0.7,3.3l0.7-3.3h1.2v4.9h-0.8v-3.8l-0.8,3.8h-0.8l-0.8-3.8v3.8H56z"/>
</g>
	<g>
	<path class="st0" d="M39.6,35l0.5,0c0,0.2,0.1,0.3,0.2,0.4c0.1,0.1,0.2,0.2,0.4,0.2c0.2,0.1,0.4,0.1,0.7,0.1c0.2,0,0.4,0,0.6-0.1   s0.3-0.1,0.4-0.2c0.1-0.1,0.1-0.2,0.1-0.3c0-0.1,0-0.2-0.1-0.3c-0.1-0.1-0.2-0.1-0.4-0.2c-0.1,0-0.4-0.1-0.8-0.2s-0.7-0.1-0.8-0.2   c-0.2-0.1-0.4-0.2-0.5-0.3c-0.1-0.1-0.2-0.2-0.2-0.4c0-0.2,0.1-0.3,0.2-0.4s0.3-0.2,0.5-0.3s0.5-0.1,0.8-0.1c0.3,0,0.6,0,0.8,0.1   s0.4,0.2,0.6,0.3s0.2,0.3,0.2,0.5l-0.5,0c0-0.2-0.1-0.3-0.3-0.5c-0.2-0.1-0.4-0.2-0.8-0.2c-0.3,0-0.6,0-0.8,0.1   c-0.2,0.1-0.2,0.2-0.2,0.3c0,0.1,0.1,0.2,0.2,0.3c0.1,0.1,0.4,0.2,0.9,0.2s0.8,0.1,1,0.2c0.2,0.1,0.4,0.2,0.6,0.3   c0.1,0.1,0.2,0.3,0.2,0.4c0,0.2-0.1,0.3-0.2,0.5s-0.3,0.3-0.6,0.3s-0.5,0.1-0.8,0.1c-0.4,0-0.7,0-1-0.1s-0.5-0.2-0.6-0.4   S39.6,35.2,39.6,35z"/>
		<path class="st0" d="M43.9,36v-3.1h0.6V36H43.9z"/>
		<path class="st0" d="M45.4,36v-3.1H46l2.3,2.4v-2.4h0.5V36h-0.6L46,33.6V36H45.4z"/>
		<path class="st0" d="M52.9,34.9l0.6,0.1c-0.1,0.3-0.3,0.6-0.7,0.8c-0.3,0.2-0.7,0.3-1.1,0.3c-0.5,0-0.8-0.1-1.1-0.2c-0.3-0.1-0.5-0.3-0.7-0.6   s-0.2-0.5-0.2-0.8c0-0.3,0.1-0.6,0.3-0.8c0.2-0.2,0.4-0.4,0.7-0.5c0.3-0.1,0.7-0.2,1-0.2c0.4,0,0.8,0.1,1.1,0.2   c0.3,0.2,0.5,0.4,0.6,0.7l-0.6,0.1c-0.1-0.2-0.2-0.4-0.4-0.5c-0.2-0.1-0.4-0.2-0.7-0.2c-0.3,0-0.6,0.1-0.8,0.2   c-0.2,0.1-0.4,0.3-0.5,0.5s-0.1,0.4-0.1,0.6c0,0.3,0,0.5,0.2,0.7s0.3,0.3,0.5,0.4s0.5,0.2,0.7,0.2c0.3,0,0.6-0.1,0.8-0.2   S52.8,35.2,52.9,34.9z"/>
		<path class="st0" d="M54.2,36v-3.1h3.1v0.4h-2.5v1h2.4v0.4h-2.4v1.1h2.7V36L54.2,36L54.2,36z"/>
		<path class="st0" d="M61.6,36h-0.5v-2.4c-0.1,0.1-0.3,0.2-0.5,0.3C60.4,33.9,60.2,34,60,34v-0.4c0.3-0.1,0.5-0.2,0.8-0.4   c0.2-0.1,0.4-0.3,0.5-0.4h0.3V36z"/>
		<path class="st0" d="M63.8,34.3c-0.2-0.1-0.4-0.1-0.5-0.2s-0.2-0.2-0.2-0.4c0-0.2,0.1-0.4,0.3-0.6s0.5-0.2,0.9-0.2c0.4,0,0.7,0.1,0.9,0.2   s0.3,0.3,0.3,0.6c0,0.1-0.1,0.3-0.2,0.4c-0.1,0.1-0.3,0.2-0.5,0.2c0.3,0.1,0.5,0.2,0.6,0.3s0.2,0.3,0.2,0.5c0,0.3-0.1,0.5-0.4,0.7   s-0.6,0.3-1,0.3c-0.4,0-0.8-0.1-1-0.3S63,35.4,63,35.1c0-0.2,0.1-0.4,0.2-0.5S63.5,34.4,63.8,34.3z M63.5,35.1c0,0.1,0,0.2,0.1,0.3   c0.1,0.1,0.2,0.2,0.3,0.2s0.3,0.1,0.5,0.1c0.2,0,0.5-0.1,0.6-0.2c0.2-0.1,0.2-0.3,0.2-0.5s-0.1-0.3-0.2-0.5s-0.4-0.2-0.6-0.2   c-0.2,0-0.5,0.1-0.6,0.2C63.6,34.8,63.5,34.9,63.5,35.1z M63.7,33.7c0,0.2,0.1,0.3,0.2,0.4s0.3,0.1,0.5,0.1c0.2,0,0.4,0,0.5-0.1   s0.2-0.2,0.2-0.3c0-0.1-0.1-0.3-0.2-0.3c-0.1-0.1-0.3-0.1-0.5-0.1c-0.2,0-0.4,0-0.5,0.1C63.7,33.4,63.7,33.6,63.7,33.7z"/>
		<path class="st0" d="M66.4,35.3l0.5,0c0,0.2,0.1,0.3,0.2,0.4s0.3,0.1,0.5,0.1c0.2,0,0.3,0,0.4-0.1s0.2-0.1,0.3-0.2s0.1-0.2,0.2-0.4   c0.1-0.2,0.1-0.3,0.1-0.5c0,0,0,0,0-0.1c-0.1,0.1-0.2,0.2-0.4,0.3C68,34.9,67.8,35,67.6,35c-0.4,0-0.7-0.1-0.9-0.3   s-0.4-0.4-0.4-0.7c0-0.3,0.1-0.6,0.4-0.8s0.6-0.3,1-0.3c0.3,0,0.5,0,0.8,0.2c0.2,0.1,0.4,0.3,0.5,0.5c0.1,0.2,0.2,0.5,0.2,0.9   c0,0.4-0.1,0.7-0.2,1s-0.3,0.4-0.5,0.5c-0.2,0.1-0.5,0.2-0.8,0.2c-0.3,0-0.6-0.1-0.8-0.2C66.6,35.7,66.4,35.5,66.4,35.3z    M68.6,33.9c0-0.2-0.1-0.4-0.2-0.5s-0.4-0.2-0.6-0.2c-0.2,0-0.4,0.1-0.6,0.2s-0.3,0.3-0.3,0.5c0,0.2,0.1,0.4,0.2,0.5   s0.4,0.2,0.6,0.2c0.2,0,0.4-0.1,0.6-0.2S68.6,34.1,68.6,33.9z"/>
		<path class="st0" d="M69.8,35.3l0.5,0c0,0.2,0.1,0.3,0.2,0.4s0.3,0.1,0.5,0.1c0.2,0,0.3,0,0.4-0.1s0.2-0.1,0.3-0.2s0.1-0.2,0.2-0.4   C72,35,72,34.8,72,34.6c0,0,0,0,0-0.1c-0.1,0.1-0.2,0.2-0.4,0.3C71.4,34.9,71.2,35,71,35c-0.4,0-0.7-0.1-0.9-0.3s-0.4-0.4-0.4-0.7   c0-0.3,0.1-0.6,0.4-0.8s0.6-0.3,1-0.3c0.3,0,0.5,0,0.8,0.2c0.2,0.1,0.4,0.3,0.5,0.5c0.1,0.2,0.2,0.5,0.2,0.9c0,0.4-0.1,0.7-0.2,1   s-0.3,0.4-0.5,0.5c-0.2,0.1-0.5,0.2-0.8,0.2c-0.3,0-0.6-0.1-0.8-0.2C69.9,35.7,69.8,35.5,69.8,35.3z M71.9,33.9   c0-0.2-0.1-0.4-0.2-0.5s-0.4-0.2-0.6-0.2c-0.2,0-0.4,0.1-0.6,0.2s-0.3,0.3-0.3,0.5c0,0.2,0.1,0.4,0.2,0.5s0.4,0.2,0.6,0.2   c0.2,0,0.4-0.1,0.6-0.2S71.9,34.1,71.9,33.9z"/>
</g>
	<g>
	<path class="st0" d="M90.6,42.4v2.4h-1.1v-0.5c-0.2,0.4-0.7,0.6-1.3,0.6c-1,0-1.6-0.5-1.6-1.3c0-0.7,0.5-1.3,1.8-1.3h1c0-0.5-0.3-0.8-1-0.8   c-0.4,0-0.9,0.1-1.2,0.4L86.7,41c0.5-0.3,1.1-0.5,1.8-0.5C89.8,40.5,90.6,41.1,90.6,42.4z M89.3,43.5v-0.4h-0.8   c-0.6,0-0.8,0.2-0.8,0.5c0,0.3,0.3,0.5,0.7,0.5C88.8,44.1,89.2,43.9,89.3,43.5z"/>
		<path class="st0" d="M95.4,42.4v2.4h-1.1v-0.5c-0.2,0.4-0.7,0.6-1.3,0.6c-1,0-1.6-0.5-1.6-1.3c0-0.7,0.5-1.3,1.8-1.3h1c0-0.5-0.3-0.8-1-0.8   c-0.4,0-0.9,0.1-1.2,0.4L91.6,41c0.5-0.3,1.1-0.5,1.8-0.5C94.7,40.5,95.4,41.1,95.4,42.4z M94.2,43.5v-0.4h-0.8   c-0.6,0-0.8,0.2-0.8,0.5c0,0.3,0.3,0.5,0.7,0.5C93.7,44.1,94,43.9,94.2,43.5z"/>
		<path class="st0" d="M96.4,42.1h2.2v1h-2.2V42.1z"/>
</g>
	<g>
	<path class="st0" d="M17.9,42.2c0-0.9,0.7-1.6,1.6-1.6c0.5,0,0.9,0.2,1.2,0.5l-0.3,0.3c-0.2-0.2-0.5-0.4-0.9-0.4   c-0.7,0-1.2,0.5-1.2,1.2c0,0.7,0.5,1.2,1.2,1.2c0.3,0,0.6-0.1,0.9-0.4l0.3,0.3c-0.3,0.3-0.7,0.5-1.2,0.5   C18.6,43.8,17.9,43.1,17.9,42.2z"/>
		<path class="st0" d="M24.8,42.3v1.4h-0.4v-0.3c-0.1,0.2-0.4,0.3-0.8,0.3c-0.5,0-0.9-0.3-0.9-0.7c0-0.4,0.2-0.7,0.9-0.7h0.7v-0.1   c0-0.4-0.2-0.6-0.6-0.6c-0.3,0-0.6,0.1-0.7,0.2l-0.2-0.3c0.2-0.2,0.6-0.3,1-0.3C24.5,41.4,24.8,41.7,24.8,42.3z M24.4,43v-0.3h-0.6   c-0.4,0-0.5,0.2-0.5,0.4c0,0.2,0.2,0.4,0.5,0.4C24,43.4,24.3,43.3,24.4,43z"/>
		<path class="st0" d="M27.3,40.5h0.4v3.2h-0.4V40.5z"/>
		<path class="st0" d="M30.2,40.7c0-0.2,0.1-0.3,0.3-0.3c0.2,0,0.3,0.1,0.3,0.3c0,0.2-0.1,0.3-0.3,0.3C30.4,41,30.2,40.8,30.2,40.7z    M30.3,41.4h0.4v2.3h-0.4V41.4z"/>
		<path class="st0" d="M34.1,40.4c0.2,0,0.4,0,0.5,0.1l-0.1,0.3c-0.1-0.1-0.2-0.1-0.3-0.1c-0.2,0-0.4,0.1-0.4,0.4v0.2h0.7v0.3h-0.7v2   h-0.4v-2h-0.4v-0.3h0.4v-0.2C33.3,40.7,33.6,40.4,34.1,40.4z M35.1,40.7c0-0.2,0.1-0.3,0.3-0.3s0.3,0.1,0.3,0.3   c0,0.2-0.1,0.3-0.3,0.3C35.2,41,35.1,40.8,35.1,40.7z M35.2,41.4h0.4v2.3h-0.4V41.4z"/>
		<path class="st0" d="M37.9,42.6c0-0.7,0.5-1.2,1.2-1.2c0.4,0,0.8,0.2,0.9,0.5l-0.3,0.2c-0.1-0.2-0.4-0.3-0.6-0.3   c-0.5,0-0.8,0.3-0.8,0.8c0,0.5,0.3,0.8,0.8,0.8c0.3,0,0.5-0.1,0.6-0.3l0.3,0.2c-0.2,0.3-0.5,0.5-0.9,0.5   C38.4,43.7,37.9,43.3,37.9,42.6z"/>
		<path class="st0" d="M44.2,42.3v1.4h-0.4v-0.3c-0.1,0.2-0.4,0.3-0.8,0.3c-0.5,0-0.9-0.3-0.9-0.7c0-0.4,0.2-0.7,0.9-0.7h0.7v-0.1   c0-0.4-0.2-0.6-0.6-0.6c-0.3,0-0.6,0.1-0.7,0.2l-0.2-0.3c0.2-0.2,0.6-0.3,1-0.3C43.9,41.4,44.2,41.7,44.2,42.3z M43.8,43v-0.3h-0.6   c-0.4,0-0.5,0.2-0.5,0.4c0,0.2,0.2,0.4,0.5,0.4C43.5,43.4,43.7,43.3,43.8,43z"/>
		<path class="st0" d="M46.6,42.6c0-0.7,0.5-1.2,1.2-1.2c0.4,0,0.8,0.2,0.9,0.5l-0.3,0.2c-0.1-0.2-0.4-0.3-0.6-0.3   c-0.5,0-0.8,0.3-0.8,0.8c0,0.5,0.3,0.8,0.8,0.8c0.3,0,0.5-0.1,0.6-0.3l0.3,0.2c-0.2,0.3-0.5,0.5-0.9,0.5   C47.1,43.7,46.6,43.3,46.6,42.6z"/>
		<path class="st0" d="M50.9,40.7c0-0.2,0.1-0.3,0.3-0.3s0.3,0.1,0.3,0.3c0,0.2-0.1,0.3-0.3,0.3C51.1,41,50.9,40.8,50.9,40.7z    M51,41.4h0.4v2.3H51V41.4z"/>
		<path class="st0" d="M53.8,42.6c0-0.7,0.5-1.2,1.2-1.2s1.2,0.5,1.2,1.2c0,0.7-0.5,1.2-1.2,1.2S53.8,43.3,53.8,42.6z M55.8,42.6   c0-0.5-0.3-0.8-0.8-0.8s-0.8,0.3-0.8,0.8c0,0.5,0.3,0.8,0.8,0.8S55.8,43.1,55.8,42.6z M55.2,40.5h0.5L55,41.1h-0.4L55.2,40.5z"/>
		<path class="st0" d="M60.7,42.4v1.3h-0.4v-1.3c0-0.5-0.2-0.7-0.6-0.7c-0.4,0-0.7,0.3-0.7,0.8v1.2h-0.4v-2.3h0.4v0.4   c0.2-0.2,0.5-0.4,0.8-0.4C60.3,41.4,60.7,41.7,60.7,42.4z"/>
		<path class="st0" d="M66.2,40.7h0.4v2.7h1.7v0.4h-2.1V40.7z"/>
		<path class="st0" d="M70.3,42.6c0-0.7,0.5-1.2,1.2-1.2s1.2,0.5,1.2,1.2c0,0.7-0.5,1.2-1.2,1.2S70.3,43.3,70.3,42.6z M72.3,42.6   c0-0.5-0.3-0.8-0.8-0.8s-0.8,0.3-0.8,0.8c0,0.5,0.3,0.8,0.8,0.8S72.3,43.1,72.3,42.6z"/>
		<path class="st0" d="M74.8,42.6c0-0.7,0.5-1.2,1.2-1.2c0.4,0,0.8,0.2,0.9,0.5l-0.3,0.2c-0.1-0.2-0.4-0.3-0.6-0.3   c-0.5,0-0.8,0.3-0.8,0.8c0,0.5,0.3,0.8,0.8,0.8c0.3,0,0.5-0.1,0.6-0.3l0.3,0.2c-0.2,0.3-0.5,0.5-0.9,0.5   C75.3,43.7,74.8,43.3,74.8,42.6z"/>
		<path class="st0" d="M81.1,42.3v1.4h-0.4v-0.3c-0.1,0.2-0.4,0.3-0.8,0.3c-0.5,0-0.9-0.3-0.9-0.7c0-0.4,0.2-0.7,0.9-0.7h0.7v-0.1   c0-0.4-0.2-0.6-0.6-0.6c-0.3,0-0.6,0.1-0.7,0.2l-0.2-0.3c0.2-0.2,0.6-0.3,1-0.3C80.7,41.4,81.1,41.7,81.1,42.3z M80.7,43v-0.3H80   c-0.4,0-0.5,0.2-0.5,0.4c0,0.2,0.2,0.4,0.5,0.4C80.3,43.4,80.6,43.3,80.7,43z"/>
		<path class="st0" d="M83.6,40.5H84v3.2h-0.4V40.5z"/>
</g>
</svg>
