<svg xmlns="http://www.w3.org/2000/svg" viewBox="0 0 401.73 137.12"><defs><style>.cls-1,.cls-2{fill:#b2b2b2;}.cls-1{fill-rule:evenodd;}</style></defs><title>Amis</title><g id="Layer_2" data-name="Layer 2"><g id="Foreground"><polygon class="cls-1" points="15.56 44.74 33.29 74.5 67.91 74.97 52.63 101.43 17.29 102.2 0 71.97 15.56 44.74"/><polygon class="cls-1" points="21.87 110.04 56.51 109.56 74.22 79.82 89.5 106.28 72.5 137.12 37.67 137.12 21.87 110.04"/><polygon class="cls-1" points="81.64 136.97 98.55 106.8 81.64 76.59 112.19 76.59 130.41 106.73 113 136.97 81.64 136.97"/><polygon class="cls-1" points="135.23 99 117.56 69.27 82.94 68.81 98.22 42.35 133.43 41.64 150.91 71.84 135.23 99"/><polygon class="cls-1" points="128.92 33.31 94.34 33.75 76.63 63.5 61.35 37.04 78.35 6.19 113.24 6.15 128.92 33.31"/><polygon class="cls-1" points="68.96 6.05 52.06 36.22 68.96 66.43 38.41 66.43 20.19 36.29 37.61 6.05 68.96 6.05"/><path class="cls-2" d="M215.7,54.56H187.64l-7.3,15.92H169.68L202.12.81l31.29,69.68H222.58Zm-4-9.3L201.95,23,191.76,45.26Z"/><path class="cls-2" d="M239.31,70.48,253.11,0l22.5,51L298.92,0l12.4,70.48H301.17l-6.33-39.57L275.44,73.5,256.59,30.87l-7,39.61Z"/><path class="cls-2" d="M335.1,4.93V70.48h-9.89V4.93Z"/><path class="cls-2" d="M387.92,14.65l-8,4.76q-2.25-3.91-4.29-5.1A10,10,0,0,0,370.13,13a10.11,10.11,0,0,0-6.84,2.34,7.24,7.24,0,0,0-2.72,5.78q0,4.8,7.13,7.73l6.54,2.68q8,3.23,11.68,7.88a17.77,17.77,0,0,1,3.69,11.41,20.05,20.05,0,0,1-6,15,20.69,20.69,0,0,1-15.07,5.95q-8.53,0-14.1-5.08t-6.84-14.24l10-2.21q.68,5.77,2.38,8,3.06,4.25,8.92,4.25a10.35,10.35,0,0,0,7.68-3.1,10.71,10.71,0,0,0,3.06-7.85,11,11,0,0,0-.53-3.5A8.91,8.91,0,0,0,377.45,45a13.24,13.24,0,0,0-2.91-2.5,28,28,0,0,0-4.25-2.23L364,37.64Q350.51,32,350.51,21a15.77,15.77,0,0,1,5.65-12.35,20.41,20.41,0,0,1,14.05-5Q381.55,3.65,387.92,14.65Z"/><path class="cls-2" d="M175.26,89.25h1.82l4.31,11.87h-1.76l-1.24-3.56h-4.66l-1.29,3.56h-1.65Zm2.67,7L176.1,91l-1.9,5.24Z"/><path class="cls-2" d="M183.89,97.3a3.33,3.33,0,0,0,.46,1.64,3,3,0,0,0,2.72,1.18,4.66,4.66,0,0,0,1.59-.26A1.82,1.82,0,0,0,190,98.06a1.57,1.57,0,0,0-.59-1.38,5.81,5.81,0,0,0-1.86-.7L186,95.61a6.91,6.91,0,0,1-2.16-.78,2.51,2.51,0,0,1-1.1-2.22A3.47,3.47,0,0,1,183.85,90a4.25,4.25,0,0,1,3.05-1,5.2,5.2,0,0,1,3.09.9,3.29,3.29,0,0,1,1.27,2.88h-1.51a3.06,3.06,0,0,0-.5-1.46,2.82,2.82,0,0,0-2.39-.93,2.7,2.7,0,0,0-2,.6,1.91,1.91,0,0,0-.6,1.39,1.36,1.36,0,0,0,.7,1.28,10.08,10.08,0,0,0,2.09.65l1.61.38a4.86,4.86,0,0,1,1.8.75,2.85,2.85,0,0,1,1.1,2.42,3,3,0,0,1-1.4,2.82,6.15,6.15,0,0,1-3.25.85,4.78,4.78,0,0,1-3.38-1.13,3.86,3.86,0,0,1-1.2-3Z"/><path class="cls-2" d="M203.65,91a6.55,6.55,0,0,1,1.18,4,7.06,7.06,0,0,1-1.35,4.42,6,6,0,0,1-8.82.26,6.83,6.83,0,0,1-1.4-4.41,7,7,0,0,1,1.2-4.12,5.18,5.18,0,0,1,4.54-2.2A5.43,5.43,0,0,1,203.65,91Zm-1.42,7.57a6.5,6.5,0,0,0,.95-3.51,5,5,0,0,0-1.1-3.37,3.74,3.74,0,0,0-3-1.28,3.9,3.9,0,0,0-3,1.27,5.34,5.34,0,0,0-1.16,3.73,5.46,5.46,0,0,0,1,3.33,3.75,3.75,0,0,0,3.24,1.35A3.35,3.35,0,0,0,202.23,98.52Z"/><path class="cls-2" d="M215.14,90.12a4.22,4.22,0,0,1,1.37,2.7h-1.57a3,3,0,0,0-3.24-2.49,3.49,3.49,0,0,0-2.78,1.23,5.7,5.7,0,0,0-1.06,3.78,5.56,5.56,0,0,0,1,3.38,3.32,3.32,0,0,0,2.85,1.3,3,3,0,0,0,2.66-1.37,5.25,5.25,0,0,0,.72-1.89h1.57a5.39,5.39,0,0,1-1.37,3.14,4.86,4.86,0,0,1-3.77,1.53,4.94,4.94,0,0,1-3.43-1.25q-1.83-1.66-1.83-5.12a6.59,6.59,0,0,1,1.37-4.31,5,5,0,0,1,4.1-1.83A4.77,4.77,0,0,1,215.14,90.12Z"/><path class="cls-2" d="M219.06,89.25h1.62v11.87h-1.62Z"/><path class="cls-2" d="M226.76,89.25h1.82l4.31,11.87h-1.76l-1.24-3.56h-4.66l-1.29,3.56h-1.65Zm2.67,7L227.6,91l-1.9,5.24Z"/><path class="cls-2" d="M242.73,90.12a4.21,4.21,0,0,1,1.37,2.7h-1.57a3,3,0,0,0-3.24-2.49,3.49,3.49,0,0,0-2.78,1.23,5.69,5.69,0,0,0-1.06,3.78,5.56,5.56,0,0,0,1,3.38,3.32,3.32,0,0,0,2.85,1.3,3,3,0,0,0,2.66-1.37,5.26,5.26,0,0,0,.72-1.89h1.57a5.38,5.38,0,0,1-1.37,3.14,4.86,4.86,0,0,1-3.77,1.53,4.94,4.94,0,0,1-3.43-1.25q-1.83-1.66-1.83-5.12a6.59,6.59,0,0,1,1.37-4.31,5,5,0,0,1,4.1-1.83A4.78,4.78,0,0,1,242.73,90.12Z"/><path class="cls-2" d="M246.65,89.25h1.62v11.87h-1.62Z"/><path class="cls-2" d="M260.67,91a6.55,6.55,0,0,1,1.18,4,7.06,7.06,0,0,1-1.35,4.42,6,6,0,0,1-8.82.26,6.83,6.83,0,0,1-1.4-4.41,7,7,0,0,1,1.2-4.12,5.18,5.18,0,0,1,4.54-2.2A5.44,5.44,0,0,1,260.67,91Zm-1.42,7.57A6.5,6.5,0,0,0,260.2,95a5,5,0,0,0-1.09-3.37,3.74,3.74,0,0,0-3-1.28,3.9,3.9,0,0,0-3,1.27,5.34,5.34,0,0,0-1.16,3.73,5.45,5.45,0,0,0,1,3.33,3.75,3.75,0,0,0,3.24,1.35A3.35,3.35,0,0,0,259.25,98.52ZM257.8,85.66,255.64,88h-1.12L256,85.66Z"/><path class="cls-2" d="M263.76,89.25h1.89l5.92,9.59V89.25h1.54v11.87H271.3l-6-9.58v9.58h-1.54Z"/><path class="cls-2" d="M280.27,89.25h2.3l3.41,10,3.39-10h2.29v11.87h-1.54v-7q0-.36,0-1.2t0-1.8l-3.39,10h-1.59l-3.42-10v.36q0,.44,0,1.33c0,.59,0,1,0,1.31v7h-1.54Z"/><path class="cls-2" d="M294.25,89.25h8.61v1.45h-7v3.6h6.51v1.37h-6.51v4H303v1.41h-8.74Z"/><path class="cls-2" d="M306.14,101.13H304.2L308.4,95l-3.94-5.78h2l3,4.54,3-4.54h1.91L310.41,95l4.13,6.09h-2l-3.16-4.88Z"/><path class="cls-2" d="M316.54,89.25h1.63v11.87h-1.62Z"/><path class="cls-2" d="M329.17,90.12a4.21,4.21,0,0,1,1.37,2.7H329a3,3,0,0,0-3.24-2.49,3.49,3.49,0,0,0-2.78,1.23,5.69,5.69,0,0,0-1.06,3.78,5.56,5.56,0,0,0,1,3.38,3.32,3.32,0,0,0,2.85,1.3,3,3,0,0,0,2.66-1.37,5.26,5.26,0,0,0,.72-1.89h1.57a5.39,5.39,0,0,1-1.37,3.14,4.86,4.86,0,0,1-3.77,1.53,4.94,4.94,0,0,1-3.43-1.25q-1.83-1.66-1.83-5.12a6.59,6.59,0,0,1,1.37-4.31,5,5,0,0,1,4.1-1.83A4.78,4.78,0,0,1,329.17,90.12Z"/><path class="cls-2" d="M336.19,89.25H338l4.31,11.87h-1.76l-1.24-3.56h-4.66l-1.29,3.56h-1.65Zm2.67,7L337,91l-1.9,5.24Z"/><path class="cls-2" d="M343.76,89.25h1.89l5.92,9.59V89.25h1.54v11.87h-1.81l-6-9.58v9.58h-1.54Z"/><path class="cls-2" d="M359.18,89.25H361l4.31,11.87h-1.76l-1.24-3.56h-4.66l-1.29,3.56h-1.65Zm2.67,7L360,91l-1.9,5.24Z"/><path class="cls-2" d="M370.52,89.25h4.75A4.45,4.45,0,0,1,379,91a6.47,6.47,0,0,1,1.19,4,8.09,8.09,0,0,1-.7,3.42,4.32,4.32,0,0,1-4.25,2.7h-4.73Zm4.43,10.5a4.25,4.25,0,0,0,1.31-.17,2.9,2.9,0,0,0,1.5-1.21,5,5,0,0,0,.67-1.84,7.16,7.16,0,0,0,.12-1.24,5.9,5.9,0,0,0-.86-3.43,3.14,3.14,0,0,0-2.76-1.22h-2.79v9.12Z"/><path class="cls-2" d="M382.55,89.25h8.61v1.45h-7v3.6h6.51v1.37h-6.51v4h7.17v1.41h-8.74Z"/><path class="cls-2" d="M161.6,109.11h1.62V121H161.6Z"/><path class="cls-2" d="M165.83,109.11h1.89l5.92,9.59v-9.59h1.54V121h-1.81l-6-9.58V121h-1.54Z"/><path class="cls-2" d="M178.84,117.16a3.33,3.33,0,0,0,.46,1.64A3,3,0,0,0,182,120a4.65,4.65,0,0,0,1.59-.26,1.82,1.82,0,0,0,1.39-1.79,1.57,1.57,0,0,0-.59-1.38,5.81,5.81,0,0,0-1.86-.7l-1.56-.36a6.92,6.92,0,0,1-2.16-.78,2.51,2.51,0,0,1-1.1-2.22,3.47,3.47,0,0,1,1.08-2.63,4.25,4.25,0,0,1,3.05-1,5.2,5.2,0,0,1,3.09.9,3.29,3.29,0,0,1,1.27,2.88h-1.51a3.06,3.06,0,0,0-.5-1.46,2.82,2.82,0,0,0-2.39-.93,2.69,2.69,0,0,0-2,.6,1.91,1.91,0,0,0-.6,1.39,1.37,1.37,0,0,0,.71,1.28,10.09,10.09,0,0,0,2.09.65l1.61.38a4.85,4.85,0,0,1,1.8.75,2.85,2.85,0,0,1,1.1,2.42,3,3,0,0,1-1.4,2.82,6.15,6.15,0,0,1-3.25.85,4.78,4.78,0,0,1-3.38-1.13,3.86,3.86,0,0,1-1.2-3Z"/><path class="cls-2" d="M197.45,109.11v1.41h-4V121h-1.62V110.53h-4v-1.41Z"/><path class="cls-2" d="M199.3,109.11h1.62V121H199.3Z"/><path class="cls-2" d="M212.16,109.11v1.41h-4V121h-1.62V110.53h-4v-1.41Z"/><path class="cls-2" d="M215.38,109.11v7.34a4.29,4.29,0,0,0,.49,2.15,2.57,2.57,0,0,0,2.44,1.29,2.87,2.87,0,0,0,2.8-1.4,4.41,4.41,0,0,0,.4-2v-7.34h1.62v6.67a7.69,7.69,0,0,1-.59,3.37q-1.09,2.15-4.1,2.15t-4.09-2.15a7.68,7.68,0,0,1-.59-3.37v-6.67Z"/><path class="cls-2" d="M234,110a4.21,4.21,0,0,1,1.37,2.7h-1.57a3,3,0,0,0-3.24-2.49,3.49,3.49,0,0,0-2.78,1.23,5.69,5.69,0,0,0-1.06,3.78,5.56,5.56,0,0,0,1,3.38,3.32,3.32,0,0,0,2.85,1.3,3,3,0,0,0,2.66-1.37,5.26,5.26,0,0,0,.72-1.89h1.57a5.39,5.39,0,0,1-1.37,3.14,4.86,4.86,0,0,1-3.77,1.53,4.94,4.94,0,0,1-3.43-1.25q-1.83-1.66-1.83-5.12a6.59,6.59,0,0,1,1.37-4.31,5,5,0,0,1,4.1-1.83A4.78,4.78,0,0,1,234,110Z"/><path class="cls-2" d="M237.91,109.11h1.62V121h-1.62Z"/><path class="cls-2" d="M251.92,110.81a6.55,6.55,0,0,1,1.18,4,7.06,7.06,0,0,1-1.35,4.42,6,6,0,0,1-8.82.26,6.83,6.83,0,0,1-1.4-4.41,7,7,0,0,1,1.2-4.12,5.18,5.18,0,0,1,4.54-2.2A5.44,5.44,0,0,1,251.92,110.81Zm-1.42,7.57a6.5,6.5,0,0,0,.95-3.51,5,5,0,0,0-1.09-3.37,3.74,3.74,0,0,0-3-1.28,3.9,3.9,0,0,0-3,1.27,5.34,5.34,0,0,0-1.16,3.73,5.45,5.45,0,0,0,1,3.33,3.75,3.75,0,0,0,3.24,1.35A3.35,3.35,0,0,0,250.5,118.38Z"/><path class="cls-2" d="M255,109.11h1.89l5.92,9.59v-9.59h1.54V121h-1.81l-6-9.58V121H255Z"/><path class="cls-2" d="M267.12,109.11h8.61v1.45h-7v3.6h6.51v1.37h-6.51v4h7.17V121h-8.74Z"/><path class="cls-2" d="M279.06,117.16a3.33,3.33,0,0,0,.46,1.64,3,3,0,0,0,2.72,1.18,4.65,4.65,0,0,0,1.59-.26,1.82,1.82,0,0,0,1.39-1.79,1.57,1.57,0,0,0-.59-1.38,5.8,5.8,0,0,0-1.86-.7l-1.56-.36a6.91,6.91,0,0,1-2.16-.78,2.51,2.51,0,0,1-1.1-2.22,3.47,3.47,0,0,1,1.08-2.63,4.25,4.25,0,0,1,3.05-1,5.2,5.2,0,0,1,3.09.9,3.29,3.29,0,0,1,1.27,2.88h-1.51a3.05,3.05,0,0,0-.5-1.46,2.82,2.82,0,0,0-2.39-.93,2.69,2.69,0,0,0-2,.6,1.91,1.91,0,0,0-.6,1.39,1.37,1.37,0,0,0,.7,1.28,10.11,10.11,0,0,0,2.09.65l1.61.38a4.85,4.85,0,0,1,1.8.75,2.85,2.85,0,0,1,1.1,2.42,3,3,0,0,1-1.4,2.82,6.15,6.15,0,0,1-3.25.85,4.78,4.78,0,0,1-3.38-1.13,3.86,3.86,0,0,1-1.2-3Z"/><path class="cls-2" d="M293.72,109.11h4.75a4.45,4.45,0,0,1,3.75,1.74,6.47,6.47,0,0,1,1.19,4,8.09,8.09,0,0,1-.7,3.42,4.32,4.32,0,0,1-4.25,2.7h-4.73Zm4.43,10.5a4.26,4.26,0,0,0,1.31-.17,2.89,2.89,0,0,0,1.5-1.21,5,5,0,0,0,.67-1.84,7.17,7.17,0,0,0,.12-1.24,5.9,5.9,0,0,0-.86-3.43,3.14,3.14,0,0,0-2.76-1.22h-2.79v9.12Z"/><path class="cls-2" d="M305.75,109.11h8.61v1.45h-7v3.6h6.51v1.37h-6.51v4h7.17V121h-8.74Z"/><path class="cls-2" d="M322.28,117.16a3.33,3.33,0,0,0,.46,1.64,3,3,0,0,0,2.72,1.18,4.65,4.65,0,0,0,1.59-.26,1.82,1.82,0,0,0,1.39-1.79,1.57,1.57,0,0,0-.59-1.38,5.8,5.8,0,0,0-1.86-.7l-1.56-.36a6.92,6.92,0,0,1-2.16-.78,2.51,2.51,0,0,1-1.1-2.22,3.47,3.47,0,0,1,1.08-2.63,4.25,4.25,0,0,1,3.05-1,5.2,5.2,0,0,1,3.09.9,3.29,3.29,0,0,1,1.27,2.88h-1.51a3.05,3.05,0,0,0-.5-1.46,2.82,2.82,0,0,0-2.39-.93,2.69,2.69,0,0,0-2,.6,1.91,1.91,0,0,0-.6,1.39,1.37,1.37,0,0,0,.7,1.28,10.11,10.11,0,0,0,2.09.65l1.61.38a4.85,4.85,0,0,1,1.8.75,2.85,2.85,0,0,1,1.1,2.42,3,3,0,0,1-1.4,2.82,6.15,6.15,0,0,1-3.25.85A4.78,4.78,0,0,1,322,120.2a3.86,3.86,0,0,1-1.2-3Z"/><path class="cls-2" d="M332.42,109.11H341v1.45h-7v3.6h6.51v1.37H334v4h7.17V121h-8.74Z"/><path class="cls-2" d="M351.21,109.45a4.22,4.22,0,0,1,2.13,3.26h-1.59a2.89,2.89,0,0,0-1.18-1.89,4,4,0,0,0-2.26-.59,3.5,3.5,0,0,0-2.72,1.24,5.38,5.38,0,0,0-1.1,3.68,6,6,0,0,0,.91,3.45,3.34,3.34,0,0,0,3,1.33A3.75,3.75,0,0,0,351,119a4,4,0,0,0,1.06-3h-3.72v-1.33h5.21V121h-1l-.39-1.53a6,6,0,0,1-1.42,1.24,5.26,5.26,0,0,1-2.65.6,5.11,5.11,0,0,1-3.57-1.37,6.54,6.54,0,0,1-1.63-4.7,6.81,6.81,0,0,1,1.59-4.74,5,5,0,0,1,3.92-1.68A5.94,5.94,0,0,1,351.21,109.45Z"/><path class="cls-2" d="M357.92,109.11v7.34a4.29,4.29,0,0,0,.49,2.15,2.57,2.57,0,0,0,2.44,1.29,2.88,2.88,0,0,0,2.8-1.4,4.41,4.41,0,0,0,.4-2v-7.34h1.62v6.67a7.7,7.7,0,0,1-.59,3.37Q364,121.3,361,121.3t-4.09-2.15a7.69,7.69,0,0,1-.59-3.37v-6.67Z"/><path class="cls-2" d="M368.33,109.11h5.4a5.3,5.3,0,0,1,2.2.4,2.81,2.81,0,0,1,1.64,2.8,2.92,2.92,0,0,1-1.67,2.84,2.44,2.44,0,0,1,1,.74,2.67,2.67,0,0,1,.39,1.5l.06,1.59a4.83,4.83,0,0,0,.11,1,1,1,0,0,0,.52.73V121h-2a1.49,1.49,0,0,1-.13-.4,7.59,7.59,0,0,1-.08-.94l-.1-2a1.67,1.67,0,0,0-.84-1.56,3.38,3.38,0,0,0-1.41-.22h-3.56V121h-1.61Zm5.22,5.44a3,3,0,0,0,1.74-.45,1.86,1.86,0,0,0,.64-1.63,1.76,1.76,0,0,0-.9-1.73,2.87,2.87,0,0,0-1.28-.24h-3.82v4.06Z"/><path class="cls-2" d="M389.87,110.81a6.55,6.55,0,0,1,1.18,4,7.06,7.06,0,0,1-1.35,4.42,6,6,0,0,1-8.82.26,6.83,6.83,0,0,1-1.4-4.41,7,7,0,0,1,1.2-4.12,5.18,5.18,0,0,1,4.54-2.2A5.44,5.44,0,0,1,389.87,110.81Zm-1.42,7.57a6.5,6.5,0,0,0,.95-3.51,5,5,0,0,0-1.09-3.37,3.74,3.74,0,0,0-3-1.28,3.9,3.9,0,0,0-3,1.27,5.34,5.34,0,0,0-1.16,3.73,5.45,5.45,0,0,0,1,3.33,3.75,3.75,0,0,0,3.24,1.35A3.35,3.35,0,0,0,388.45,118.38Z"/><path class="cls-2" d="M394,117.16a3.33,3.33,0,0,0,.46,1.64,3,3,0,0,0,2.72,1.18,4.65,4.65,0,0,0,1.59-.26,1.82,1.82,0,0,0,1.39-1.79,1.57,1.57,0,0,0-.59-1.38,5.8,5.8,0,0,0-1.86-.7l-1.56-.36a6.92,6.92,0,0,1-2.16-.78,2.51,2.51,0,0,1-1.1-2.22,3.47,3.47,0,0,1,1.08-2.63,4.25,4.25,0,0,1,3.05-1,5.2,5.2,0,0,1,3.09.9,3.29,3.29,0,0,1,1.27,2.88h-1.51a3.05,3.05,0,0,0-.5-1.46,2.82,2.82,0,0,0-2.39-.93,2.69,2.69,0,0,0-2,.6,1.91,1.91,0,0,0-.6,1.39,1.37,1.37,0,0,0,.7,1.28,10.11,10.11,0,0,0,2.09.65l1.61.38a4.85,4.85,0,0,1,1.8.75,2.85,2.85,0,0,1,1.1,2.42,3,3,0,0,1-1.4,2.82,6.15,6.15,0,0,1-3.25.85,4.78,4.78,0,0,1-3.38-1.13,3.86,3.86,0,0,1-1.2-3Z"/></g></g></svg>