<svg xmlns="http://www.w3.org/2000/svg" xmlns:xlink="http://www.w3.org/1999/xlink" viewBox="0 0 180.56 178.26"><defs><style>.cls-1{fill:#4b4846;}.cls-2{fill:#4e585b;}.cls-3{fill:#787e80;}.cls-4{fill:url(#linear-gradient);}.cls-5{fill:url(#linear-gradient-2);}.cls-6{fill:#fff;}.cls-7{fill:#acabab;}</style><linearGradient id="linear-gradient" x1="92.2" y1="178.26" x2="92.2" gradientUnits="userSpaceOnUse"><stop offset="0" stop-color="#5c5b5a"/><stop offset="0.07" stop-color="#d3d0d1"/><stop offset="0.16" stop-color="#fff"/><stop offset="0.33" stop-color="#fff"/><stop offset="0.4" stop-color="#cecbcc"/><stop offset="0.5" stop-color="#999a9b"/><stop offset="0.66" stop-color="#fff"/><stop offset="0.81" stop-color="#999a9b"/><stop offset="1" stop-color="#cecbcc"/></linearGradient><linearGradient id="linear-gradient-2" x1="90.62" y1="8.67" x2="90.62" y2="168.85" gradientUnits="userSpaceOnUse"><stop offset="0" stop-color="#5c5b5a"/><stop offset="0.17" stop-color="#fff"/><stop offset="0.4" stop-color="#d3d0d1"/><stop offset="0.54" stop-color="#fff"/><stop offset="0.68" stop-color="#cecbcc"/><stop offset="0.84" stop-color="#5c5b5a"/><stop offset="1" stop-color="#8c8c8c"/></linearGradient></defs><title>buro</title><g id="Layer_2" data-name="Layer 2"><g id="Foreground"><path class="cls-1" d="M176.73,165.25c0,6-7,13-13,13H12.46c-6,0-12.46-6.48-12.46-12.46V14.72C0,6.35,8.05.34,14.82.34L163.72,0c6,0,13,7,13,13Z"/><rect class="cls-2" x="12.59" y="11.71" width="155.8" height="154.13" rx="17.01" ry="17.01"/><path class="cls-3" d="M168.39,70.23C164.74,75.6,115,80.32,105.6,80.32H69.08c-9.39,0-45.8-1.45-56.49-9V28.72a17,17,0,0,1,17-17H151.38a17,17,0,0,1,17,17Z"/><path class="cls-4" d="M167.55,0H18.64C7.3,0,3.83,4.54,3.83,12.91V165.8c0,6,6.48,12.46,12.46,12.46H167.55c6,0,13-7,13-13V13C180.56,7,173.53,0,167.55,0Zm4,151.84a17,17,0,0,1-17,17H26.68a17,17,0,0,1-17-17V26.19C9.67,16.8,18,8.67,27.35,8.67H154.57a17,17,0,0,1,17,17Z"/><path class="cls-5" d="M154.56,8.67H27.34c-9.39,0-17.68,8.13-17.68,17.52V151.84a17,17,0,0,0,17,17H154.56a17,17,0,0,0,17-17V25.68A17,17,0,0,0,154.56,8.67Zm13.82,140.16a17,17,0,0,1-17,17H29.59a17,17,0,0,1-17-17V28.72a17,17,0,0,1,17-17H151.38a17,17,0,0,1,17,17Z"/><path class="cls-6" d="M69,117.13a4.05,4.05,0,0,1,2.18-.66c1.89,0,2.66,1,2.66,2.89v2.89a11.62,11.62,0,0,0,.05,1.37H72.76v-.9h0a2.15,2.15,0,0,1-1.91,1.07,1.92,1.92,0,0,1-2.2-2.18c0-1.75,1.69-2.3,2.95-2.3.48,0,.59,0,1.07,0,0-1.2-.42-1.82-1.64-1.82a3,3,0,0,0-1.92.71Zm3.62,3.16-.78,0c-.66,0-2.3.11-2.3,1.34a1.19,1.19,0,0,0,1.23,1.14,1.71,1.71,0,0,0,1.84-1.83Z"/><path class="cls-6" d="M114.63,117.14a4.05,4.05,0,0,1,2.18-.66c1.89,0,2.66,1,2.66,2.89v2.89a11.44,11.44,0,0,0,.05,1.37h-1.14v-.9h0a2.15,2.15,0,0,1-1.91,1.07,1.92,1.92,0,0,1-2.2-2.18c0-1.75,1.69-2.3,2.94-2.3.48,0,.59,0,1.07,0,0-1.2-.42-1.82-1.64-1.82a3,3,0,0,0-1.92.71Zm3.62,3.16-.78,0c-.66,0-2.3.11-2.3,1.34a1.19,1.19,0,0,0,1.23,1.14,1.71,1.71,0,0,0,1.84-1.83Z"/><path class="cls-6" d="M148.71,117.14a4.05,4.05,0,0,1,2.18-.66c1.89,0,2.66,1,2.66,2.89v2.89a11.43,11.43,0,0,0,.05,1.37h-1.14v-.9h0a2.15,2.15,0,0,1-1.91,1.07,1.92,1.92,0,0,1-2.2-2.18c0-1.75,1.69-2.3,2.94-2.3.48,0,.59,0,1.07,0,0-1.2-.42-1.82-1.64-1.82a3,3,0,0,0-1.92.71Zm3.62,3.16-.78,0c-.66,0-2.3.11-2.3,1.34a1.19,1.19,0,0,0,1.23,1.14,1.71,1.71,0,0,0,1.84-1.83Z"/><path class="cls-6" d="M28.16,59.9h19c5.19,0,9.57,1.49,11.76,4.48a10.1,10.1,0,0,1,1.93,6.11c0,2.7-1.71,5.32-3.29,7-.82.91-2.69,1.75-4.22,2.5a15.07,15.07,0,0,1,5.06,2.82c2,1.86,3.89,4,3.89,7.3a11.66,11.66,0,0,1-2.68,7.48q-4,5-12.75,5H28.16ZM45,78a14,14,0,0,0,5.93-1,6.25,6.25,0,0,0,3.84-5.76,6.4,6.4,0,0,0-4.06-6,16.51,16.51,0,0,0-5.93-.82H34V78ZM47,98.1c3.69,0,6.32-1.42,7.89-3.48a7.57,7.57,0,0,0,1.48-4.71A6.28,6.28,0,0,0,52,83.56a16.06,16.06,0,0,0-6.08-1.4H34V98.1Z"/><path class="cls-6" d="M74.59,71.66V91.32a9.18,9.18,0,0,0,.76,4q1.4,2.88,5.22,2.88c3.66,0,8.74-2.62,8.74-4.4,0-2.44,0-4.89,0-8V71.66h5.78v30.78H89.59l.06-5.06a11.37,11.37,0,0,1-2.73,3.09A11.12,11.12,0,0,1,79.57,103q-6.73,0-9.17-4.58a13.87,13.87,0,0,1-1.32-6.56V71.66Z"/><path class="cls-6" d="M105.75,71.25h5.12v5.54c.42-1.08,2-2.39,3.63-3.94a8,8,0,0,1,5.66-2.32l.51,0,1.23.12v5.69a8.05,8.05,0,0,0-.88-.12c-.27,0-.56,0-.88,0a7.7,7.7,0,0,0-6.26,2.62,9.2,9.2,0,0,0-2.24,6v17.77h-5.88Z"/><path class="cls-6" d="M150.39,74.12a15.87,15.87,0,0,0-11-4q-7.25,0-11.54,4.66t-4.3,12.51q0,7.33,4.08,11.68t11,4.35q8.31,0,12.26-4.92t4-12.45Q154.88,78.14,150.39,74.12Zm-3.53,20.73q-2.08,3.94-7.67,3.94-5.09,0-7.43-3.32a14,14,0,0,1-2.34-8.29,16.09,16.09,0,0,1,2.34-8.84q2.34-3.67,7.5-3.67,5.81,0,8.18,4.31a14.71,14.71,0,0,1,1.5,7.1A18.52,18.52,0,0,1,146.86,94.85Z"/><polygon class="cls-6" points="147.81 57.37 138.62 67.67 134.49 67.67 141.15 57.37 147.81 57.37"/><path class="cls-6" d="M24.62,114.22a4.16,4.16,0,0,1,3.13,1.13,4.75,4.75,0,0,1,1.1,3.43,8.4,8.4,0,0,1-.25,2.14,4.11,4.11,0,0,1-.76,1.57,3.31,3.31,0,0,1-1.32,1,4.88,4.88,0,0,1-1.9.34h-3v-9.57Zm.1,8.5.49,0a2.59,2.59,0,0,0,.63-.16,2.78,2.78,0,0,0,.66-.37,2.34,2.34,0,0,0,.58-.66,3.85,3.85,0,0,0,.42-1,5.92,5.92,0,0,0,.17-1.51,7,7,0,0,0-.15-1.53,3.05,3.05,0,0,0-.5-1.15,2.25,2.25,0,0,0-.9-.72,3.35,3.35,0,0,0-1.37-.25h-2v7.42Z"/><path class="cls-6" d="M29.1,120.21a3.2,3.2,0,0,1,3.09-3.48c1.71,0,2.7,1.19,2.7,3.08,0,.17,0,.34,0,.52H30.37c0,1.34.6,2.49,2,2.49a3.43,3.43,0,0,0,1.83-.57l.46.87a4.06,4.06,0,0,1-2.35.69C30.2,123.79,29.1,122.24,29.1,120.21Zm4.6-.8c0-.91-.43-1.72-1.54-1.72s-1.58.71-1.75,1.72Z"/><path class="cls-6" d="M81.29,120.21a3.2,3.2,0,0,1,3.09-3.48c1.71,0,2.7,1.19,2.7,3.08,0,.17,0,.34,0,.52H82.57c0,1.34.6,2.49,2,2.49a3.43,3.43,0,0,0,1.83-.57l.46.87a4.06,4.06,0,0,1-2.35.69C82.4,123.79,81.29,122.24,81.29,120.21Zm4.6-.8c0-.91-.43-1.72-1.54-1.72s-1.58.71-1.75,1.72Z"/><path class="cls-6" d="M137.34,120.21a3.2,3.2,0,0,1,3.09-3.48c1.7,0,2.7,1.19,2.7,3.08,0,.17,0,.34,0,.52h-4.49c0,1.34.6,2.49,2,2.49a3.43,3.43,0,0,0,1.83-.57l.46.87a4.05,4.05,0,0,1-2.35.69C138.45,123.79,137.34,122.24,137.34,120.21Zm4.6-.8c0-.91-.43-1.72-1.54-1.72s-1.58.71-1.75,1.72Z"/><path class="cls-6" d="M40.06,114.16h5v1.1H41.28v2.92h3.53v1.09H41.28v3.46h4v1H40.06Z"/><path class="cls-6" d="M46.52,116.82h1.24v1a2.94,2.94,0,0,1,2.3-1.13,1.93,1.93,0,0,1,2.1,2.16v4.9H50.9V119c0-.83-.3-1.35-1.2-1.35a2.68,2.68,0,0,0-1.95,1.19v4.81H46.52Z"/><path class="cls-6" d="M107.28,116.82h1.24v1a2.94,2.94,0,0,1,2.3-1.13,1.93,1.93,0,0,1,2.1,2.16v4.9h-1.26V119c0-.83-.3-1.35-1.2-1.35a2.68,2.68,0,0,0-1.95,1.19v4.81h-1.24Z"/><path class="cls-6" d="M121.21,116.82h1.24v1a2.94,2.94,0,0,1,2.3-1.13,1.93,1.93,0,0,1,2.1,2.16v4.9h-1.26V119c0-.83-.3-1.35-1.2-1.35a2.68,2.68,0,0,0-1.95,1.19v4.81h-1.24Z"/><path class="cls-6" d="M57.07,116.83v1H55.28v4.3a1.37,1.37,0,0,0,0,.32.33.33,0,0,0,.12.19.49.49,0,0,0,.24.09l.4,0h1v1H55.74a3.47,3.47,0,0,1-.7-.06,1,1,0,0,1-.47-.22,1,1,0,0,1-.26-.46,2.84,2.84,0,0,1-.09-.78v-4.41H53.15v-1h1.08v-2.75h1v2.75Z"/><path class="cls-6" d="M58.16,114.72a.8.8,0,1,1,1.6,0,.8.8,0,1,1-1.6,0Zm.22,2h1.16v7H58.38Z"/><path class="cls-6" d="M104,114.72a.8.8,0,1,1,1.6,0,.8.8,0,1,1-1.6,0Zm.22,2h1.16v7h-1.16Z"/><path class="cls-6" d="M134.47,114.72a.8.8,0,1,1,1.6,0,.8.8,0,1,1-1.6,0Zm.22,2h1.16v7h-1.16Z"/><path class="cls-6" d="M66.15,123.64v-.94h0a1.6,1.6,0,0,1-.81.83,2.89,2.89,0,0,1-1.22.25,2.61,2.61,0,0,1-2.2-1.09,3.55,3.55,0,0,1-.55-1.15,5.13,5.13,0,0,1-.18-1.39,5.28,5.28,0,0,1,.18-1.39,3.38,3.38,0,0,1,.54-1.15,2.66,2.66,0,0,1,.91-.78,2.7,2.7,0,0,1,1.27-.29,2.87,2.87,0,0,1,.53.05,2.53,2.53,0,0,1,.57.18,2.38,2.38,0,0,1,.54.34,1.79,1.79,0,0,1,.42.52h0v-4.13h1v10.13Zm-3.76-2.46a2.66,2.66,0,0,0,.36.82,1.79,1.79,0,0,0,.62.58,1.74,1.74,0,0,0,.88.21,1.68,1.68,0,0,0,.9-.23,1.87,1.87,0,0,0,.6-.6,2.59,2.59,0,0,0,.34-.84,4.4,4.4,0,0,0,0-1.94,2.56,2.56,0,0,0-.35-.84,1.85,1.85,0,0,0-.62-.58,1.81,1.81,0,0,0-.92-.22,1.68,1.68,0,0,0-.9.23,1.74,1.74,0,0,0-.59.6,2.75,2.75,0,0,0-.32.86,5,5,0,0,0-.1,1A3.82,3.82,0,0,0,62.39,121.19Z"/><path class="cls-6" d="M79.42,123.64v-.94h0a1.6,1.6,0,0,1-.81.83,2.89,2.89,0,0,1-1.22.25,2.61,2.61,0,0,1-2.2-1.09,3.55,3.55,0,0,1-.55-1.15,5.11,5.11,0,0,1-.18-1.39,5.28,5.28,0,0,1,.18-1.39,3.38,3.38,0,0,1,.54-1.15,2.66,2.66,0,0,1,.91-.78,2.7,2.7,0,0,1,1.27-.29,2.86,2.86,0,0,1,.53.05,2.54,2.54,0,0,1,.57.18,2.38,2.38,0,0,1,.54.34,1.8,1.8,0,0,1,.43.52h0v-4.13h1v10.13Zm-3.76-2.46A2.65,2.65,0,0,0,76,122a1.8,1.8,0,0,0,.62.58,1.75,1.75,0,0,0,.88.21,1.68,1.68,0,0,0,.9-.23,1.87,1.87,0,0,0,.6-.6,2.62,2.62,0,0,0,.34-.84,4.4,4.4,0,0,0,0-1.94,2.56,2.56,0,0,0-.35-.84,1.84,1.84,0,0,0-.62-.58,1.81,1.81,0,0,0-.92-.22,1.68,1.68,0,0,0-.9.23,1.75,1.75,0,0,0-.59.6,2.75,2.75,0,0,0-.32.86,4.92,4.92,0,0,0-.1,1A3.84,3.84,0,0,0,75.66,121.19Z"/><path class="cls-6" d="M87.7,123.15l.47-.88a2.78,2.78,0,0,0,1.61.55c.79,0,1.27-.32,1.27-.9s-.53-.83-1.47-1.26-1.73-.94-1.73-2.06A1.92,1.92,0,0,1,90,116.71a3.18,3.18,0,0,1,2,.62l-.51.85a2.33,2.33,0,0,0-1.43-.49c-.69,0-1.05.32-1.05.85s.54.84,1.27,1.15c1,.46,2,.94,2,2.07s-.92,2-2.38,2A3.63,3.63,0,0,1,87.7,123.15Z"/><path class="cls-6" d="M154.84,123.15l.47-.88a2.78,2.78,0,0,0,1.61.55c.78,0,1.27-.32,1.27-.9s-.53-.83-1.47-1.26-1.73-.94-1.73-2.06a1.92,1.92,0,0,1,2.14-1.89,3.18,3.18,0,0,1,2,.62l-.51.85a2.33,2.33,0,0,0-1.43-.49c-.69,0-1.05.32-1.05.85s.54.84,1.27,1.15c1,.46,2,.94,2,2.07s-.92,2-2.38,2A3.62,3.62,0,0,1,154.84,123.15Z"/><path class="cls-6" d="M98,114h4.81v1.11H99.27v3.21h3.41v1.08H99.27v4.32H98Z"/><path class="cls-6" d="M131.83,117.71a1.47,1.47,0,0,0-1.06-.37,1.69,1.69,0,0,0-1.56.86,2.85,2.85,0,0,0-.33.89,5.44,5.44,0,0,0-.1,1,4.44,4.44,0,0,0,.1,1,2.76,2.76,0,0,0,.33.84,1.75,1.75,0,0,0,.58.59,1.58,1.58,0,0,0,.85.22,1.59,1.59,0,0,0,1.21-.46,2.18,2.18,0,0,0,.54-1.29h1.07a3.48,3.48,0,0,1-.88,2.05,2.58,2.58,0,0,1-1.93.72,3,3,0,0,1-1.29-.26,2.52,2.52,0,0,1-.94-.75,3.36,3.36,0,0,1-.57-1.16,5.38,5.38,0,0,1-.19-1.48,5.87,5.87,0,0,1,.18-1.51,3.66,3.66,0,0,1,.56-1.22,2.69,2.69,0,0,1,.94-.82,2.79,2.79,0,0,1,1.32-.3,3.44,3.44,0,0,1,1,.15,2.36,2.36,0,0,1,.84.45,2.39,2.39,0,0,1,.6.77,3.1,3.1,0,0,1,.3,1.1h-1.08A1.87,1.87,0,0,0,131.83,117.71Z"/><path class="cls-6" d="M144.59,116.76h1V118a2.64,2.64,0,0,1,.63-.85,1.59,1.59,0,0,1,1.16-.5h.1l.25,0v1.23l-.18,0h-.18a1.53,1.53,0,0,0-1.28.57,2,2,0,0,0-.45,1.3v4h-1.1Z"/><rect class="cls-7" x="19.68" y="125.4" width="143.69" height="1.56"/></g></g></svg>