<svg xmlns="http://www.w3.org/2000/svg" class="h-6 w-6 text-white" viewBox="0 0 401.85 100"><defs><style>.cls-1{fill:#fff;opacity:0.35;}.cls-2{fill:#fff;}.cls-3{fill:#fff;}</style></defs><title>CNSF</title><g id="Layer_2" data-name="Layer 2"><g id="Layer_1-2" data-name="Layer 1"><path class="cls-1" d="M65.12,30s.54,7.32-12.75,11.39V55.19S72.17,56.55,80,33V17.5S80.31,2.31,64,2.31H19.83s-17.9-2.44-17.9,13V53.78L16.85,38.92V16.41H65.12Z"/><path class="cls-1" d="M87.63,53.78v5.75H38.27V45.16C42.07,35.67,53.46,34,53.46,34V19.94A27.48,27.48,0,0,0,28,34.31s-3.8,3-3.8,19.47S35.29,72.55,35.29,72.55H87.63C102,72.55,102,56.28,102,56.28V39.44Z"/><path class="cls-2" d="M67.29,27.8s.54,7.32-12.75,11.39V53s19.8,1.36,27.66-22.24V15.33S82.47.14,66.2.14H22S4.1-2.3,4.1,13.16V51.61L19,36.75V14.24H67.29Z"/><path class="cls-2" d="M89.8,51.61v5.75H40.44V43c3.8-9.49,15.19-11.12,15.19-11.12V17.77A27.48,27.48,0,0,0,30.14,32.14s-3.8,3-3.8,19.47S37.46,70.38,37.46,70.38H89.8c14.37,0,14.35-16.27,14.35-16.27V37.27Z"/><path class="cls-3" d="M18.29,87.66a4.91,4.91,0,0,0-.05-.76,1.58,1.58,0,0,0-.34-.7,1.46,1.46,0,0,0-.85-.53A9.77,9.77,0,0,0,16,85.51l-1.64-.08-1.67,0q-1.72,0-3.5.08H8.7l-.45,0-.49.08a2.25,2.25,0,0,0-.64.23,2.47,2.47,0,0,0-.64.49,2.05,2.05,0,0,0-.46.88,5.15,5.15,0,0,0-.17,1.22q0,.8,0,1.83v1.38a14.81,14.81,0,0,0,.13,1.54,2,2,0,0,0,.66,1.27,2.32,2.32,0,0,0,.72.45,4.78,4.78,0,0,0,.76.24,5.14,5.14,0,0,0,.64.11l.36,0h6.86l.26,0,.56-.09a3.22,3.22,0,0,0,.65-.21,1.41,1.41,0,0,0,.54-.41,1.6,1.6,0,0,0,.36-.84c0-.33.08-.67.12-1h5.73c0,.28,0,.56,0,.84s0,.56,0,.86,0,.81-.08,1.19a6,6,0,0,1-.21,1.13,4.22,4.22,0,0,1-.45,1,3.36,3.36,0,0,1-.8.87,4.06,4.06,0,0,1-1.65.85q-.88.21-1.81.35-1.51.11-3,.16t-3,.05q-1.67,0-3.31,0l-3.31-.09q-1.3-.21-2.52-.5a4.6,4.6,0,0,1-2.12-1.14A3.92,3.92,0,0,1,.62,96.46a12.36,12.36,0,0,1-.41-2.11q-.08-1-.15-2t-.07-2q0-1,.07-2.06t.12-2.06a13.5,13.5,0,0,1,.33-1.66,4.25,4.25,0,0,1,.81-1.5,4.57,4.57,0,0,1,1.18-1,7.55,7.55,0,0,1,1.27-.61,6.37,6.37,0,0,1,1.11-.31L5.63,81q1.62-.13,3.23-.21t3.26-.08q1.67,0,3.3.07l3.3.12a19.89,19.89,0,0,1,2,.41,4.08,4.08,0,0,1,1.75,1,3.32,3.32,0,0,1,.82,1.14,6.28,6.28,0,0,1,.42,1.38,11.41,11.41,0,0,1,.17,1.45q0,.73,0,1.37Z"/><path class="cls-3" d="M37.37,81l3.05,3.73q1.51,1.84,3,3.76,1.35,1.73,2.68,3.46l2.68,3.49-.11-8.6V81h5.42V99.76H44.91q-1.67-2-3.31-4t-3.25-4.09Q37.16,90.1,36,88.55l-2.34-3.12V99.76H28.19V81Z"/><path class="cls-3" d="M63.94,93.63c0,.21,0,.41,0,.58a1.41,1.41,0,0,0,.12.5,1.12,1.12,0,0,0,.61.66,4.25,4.25,0,0,0,1.38.29l1.78.08,1.78.05q1,0,1.91,0l1.94-.05h.64a2.33,2.33,0,0,0,1-.17,1.7,1.7,0,0,0,.77-.56,1.38,1.38,0,0,0,.32-.88,2,2,0,0,0,0-.35,1.28,1.28,0,0,0-.23-.48,1.33,1.33,0,0,0-.85-.57c-.34-.06-.84-.14-1.51-.23l-4.13-.08q-2.06,0-4.13-.16L64,92.21l-1.31-.09a2.35,2.35,0,0,0-.41-.07,2.35,2.35,0,0,1-.41-.07l-.42-.08a3.57,3.57,0,0,1-.66-.2,5.41,5.41,0,0,1-.76-.37,3.21,3.21,0,0,1-.73-.6,4,4,0,0,1-.78-1.37A6.77,6.77,0,0,1,58.13,87s0-.17,0-.41,0-.53.05-.88.07-.7.13-1.08a4.68,4.68,0,0,1,.28-1,3.75,3.75,0,0,1,.77-1.19,3.84,3.84,0,0,1,1.86-1.14,16.27,16.27,0,0,1,2.23-.4l3.07-.11q1.53-.05,3.07-.05,1.7,0,3.38.08l3.38.16,1,.16.45.08a3.86,3.86,0,0,1,.68.2,6.35,6.35,0,0,1,.8.37,3.87,3.87,0,0,1,.78.57,3.48,3.48,0,0,1,.74,1,4.48,4.48,0,0,1,.38,1.1,6.42,6.42,0,0,1,.13,1.19c0,.42,0,.83,0,1.23l-5.68,0a7.15,7.15,0,0,0-.27-.86,1.18,1.18,0,0,0-.36-.5,1.64,1.64,0,0,0-.58-.26,6,6,0,0,0-.92-.15L71.47,85q-1,0-2.08,0l-1.62,0L66.15,85a8.87,8.87,0,0,0-1,.11,1.29,1.29,0,0,0-.82.53l-.19.32a1.1,1.1,0,0,0-.13.53,1.11,1.11,0,0,0,.12.52,1.37,1.37,0,0,0,.2.31,1.42,1.42,0,0,0,.85.58q.48.09,1,.15l11.25.4q.58.05,1,.13t.73.17a3,3,0,0,1,.57.23,3.36,3.36,0,0,1,.49.32,5,5,0,0,1,.68.64,3.71,3.71,0,0,1,.58.92,5.7,5.7,0,0,1,.4,1.3A9.66,9.66,0,0,1,82,94a9.36,9.36,0,0,1-.25,2.47,4.64,4.64,0,0,1-.7,1.49q-.19.24-.36.42a3.51,3.51,0,0,1-.41.37,4.24,4.24,0,0,1-1.49.68q-.82.2-1.7.33-1.75.11-3.45.17t-3.45.07q-1.89,0-3.74-.09l-3.77-.2-1-.16a6.3,6.3,0,0,1-1-.24,4.58,4.58,0,0,1-.9-.41,3.46,3.46,0,0,1-.77-.62,2.92,2.92,0,0,1-.61-1A6.12,6.12,0,0,1,58.2,96a10.07,10.07,0,0,1-.11-1.26q0-.62,0-1.15Z"/><path class="cls-3" d="M106.63,81v4.3H92.08V89h13.78v4.27H92.08v6.45H86.29V81Z"/><rect class="cls-3" x="113.78" width="5.06" height="72.82"/><path class="cls-3" d="M141.46,45.29h2v.66q0,3.56-1.21,4.44t-6.1.89q-4.37,0-5.56-1.56t-1.19-7.35a34.9,34.9,0,0,1,.27-5.69,3.62,3.62,0,0,1,1.53-2.09q1.48-1.07,6.39-1.07,3.33,0,4.48,1t1.15,4V39h-2v-.54q0-2.1-.68-2.7t-3.08-.6q-4.21,0-5.14.7t-.93,3.89q0,7.33.62,8.6t4.27,1.26q3.47,0,4.33-.55t.86-2.76Z"/><path class="cls-3" d="M152,33.51q4.94,0,6.17,1.44t1.24,7.21q0,6.21-1.19,7.66T152,51.28q-5,0-6.22-1.44t-1.21-7.45V41.17l0-1.65q0-3.47,1.56-4.74T152,33.51Zm0,1.66q-4.13,0-4.83.92t-.7,6.3q0,5.39.7,6.31t4.83.92q4.14,0,4.85-.92t.7-6.31V39.61q0-2.88-1-3.66T152,35.17Z"/><path class="cls-3" d="M180.75,33.69V51.1h-2v-16h-.05l-.15.41-.15.4-.33.82-5.93,14.4h-2l-5.94-14.23-.34-.8-.15-.41c0-.09-.09-.23-.15-.4h-.05V51.1h-2V33.69h3.41L169.69,45l.74,1.82.37.91.36.9h.05l.36-.9q.27-.65.36-.91l.75-1.81,4.62-11.27Z"/><path class="cls-3" d="M186,33.69V51.1h-2V33.69Z"/><path class="cls-3" d="M201.31,38.41h-2q0-2.1-.7-2.67t-3.3-.57a9.14,9.14,0,0,0-4,.54q-.89.54-.89,2.42,0,2.1.7,2.56t4.17.62q4.07.18,5.17,1t1.1,3.83q0,3.21-1.27,4.16t-5.6.94q-3.76,0-5-1T188.5,46.5v-.78h2v.43q0,2.33.72,2.9t3.66.57q3.38,0,4.16-.57t.78-3a3.08,3.08,0,0,0-.53-2.12,3.57,3.57,0,0,0-2.21-.63l-2-.1-1.94-.1q-4.43-.31-4.42-4.59,0-3,1.29-4t5.14-1q3.9,0,5.09.92T201.31,38.41Z"/><path class="cls-3" d="M206,33.69V51.1h-2V33.69Z"/><path class="cls-3" d="M215.67,33.51q4.94,0,6.17,1.44t1.24,7.21q0,6.21-1.19,7.66t-6.22,1.45q-5,0-6.22-1.44t-1.21-7.45V41.17l0-1.65q0-3.47,1.56-4.74T215.67,33.51Zm0,1.66q-4.13,0-4.83.92t-.7,6.3q0,5.39.7,6.31t4.83.92q4.14,0,4.85-.92t.7-6.31V39.61q0-2.88-1-3.66T215.66,35.17Zm2.22-6.27.77,1.42-3.93,2-.62-1Z"/><path class="cls-3" d="M240.19,33.69V51.1H237l-7.3-11.85-1.19-2-.59-1-.59-1h-.05V51.1h-2V33.69h3.21l6.36,10.38,1.66,2.73.83,1.35.82,1.36h.05V33.69Z"/><path class="cls-3" d="M264.91,33.69V51.1h-3.23l-7.3-11.85-1.19-2-.59-1-.59-1H252V51.1h-2V33.69h3.21l6.36,10.38,1.66,2.73.83,1.35.82,1.36H263V33.69Z"/><path class="cls-3" d="M278.92,47.42h-8.81l-1.34,3.69h-2.08l6.38-17.41h2.75l6.5,17.41h-2.05Zm-.57-1.48L274.49,35.3l-3.81,10.64Z"/><path class="cls-3" d="M295.53,45.29h2v.66q0,3.56-1.21,4.44t-6.1.89q-4.37,0-5.56-1.56t-1.19-7.35a34.9,34.9,0,0,1,.27-5.69,3.62,3.62,0,0,1,1.53-2.09q1.48-1.07,6.39-1.07,3.33,0,4.48,1t1.15,4V39h-2v-.54q0-2.1-.68-2.7t-3.08-.6q-4.21,0-5.14.7t-.93,3.89q0,7.33.62,8.6t4.27,1.26q3.47,0,4.33-.55t.86-2.76Z"/><path class="cls-3" d="M301.66,33.69V51.1h-2V33.69Z"/><path class="cls-3" d="M311.38,33.51q4.94,0,6.17,1.44t1.24,7.21q0,6.21-1.19,7.66t-6.22,1.45q-5,0-6.22-1.44T304,42.39V41.17l0-1.65q0-3.47,1.56-4.74T311.38,33.51Zm0,1.66q-4.13,0-4.83.92t-.7,6.3q0,5.39.7,6.31t4.83.92q4.14,0,4.85-.92t.7-6.31V39.61q0-2.88-1-3.66T311.37,35.17Z"/><path class="cls-3" d="M335.9,33.69V51.1h-3.23l-7.3-11.85-1.19-2-.59-1-.59-1H323V51.1h-2V33.69h3.21l6.36,10.38,1.66,2.73.83,1.35.82,1.36H334V33.69Z"/><path class="cls-3" d="M349.92,47.42h-8.81l-1.34,3.69h-2.08l6.38-17.41h2.75l6.5,17.41h-2.05Zm-.57-1.48L345.48,35.3l-3.81,10.64Z"/><path class="cls-3" d="M357.08,33.69V49.28h9V51.1H355.11V33.69Z"/><path class="cls-3" d="M374.3,51.1V33.69h8.06q3.74,0,5.06,1.65t1.33,6.3q0,5.66-1.18,7.56t-4.71,1.9Zm2-1.66h5.68q3.12,0,4-1.25t.91-5.57q0-4.74-.78-6t-3.76-1.26h-6.07Z"/><path class="cls-3" d="M392.63,35.35v5.93h8.84v1.66h-8.84v6.5h9.22V51.1H390.67V33.69h11.18v1.66Z"/><path class="cls-3" d="M143.29,61.48h-2q0-2.1-.7-2.67t-3.3-.57a9.14,9.14,0,0,0-4,.54q-.89.54-.89,2.42,0,2.1.7,2.56t4.17.62q4.07.18,5.17,1t1.1,3.83q0,3.21-1.27,4.16t-5.6.94q-3.76,0-5-1t-1.24-3.83v-.78h2v.43q0,2.33.72,2.9t3.66.57q3.38,0,4.16-.57t.78-3A3.08,3.08,0,0,0,141.2,67a3.57,3.57,0,0,0-2.21-.63l-2-.1-1.94-.1q-4.43-.31-4.42-4.59,0-3,1.29-4t5.14-1q3.9,0,5.09.92T143.29,61.48Z"/><path class="cls-3" d="M149.29,58.42v5.93h8.84V66h-8.84v6.5h9.22v1.66H147.33V56.77h11.18v1.66Z"/><path class="cls-3" d="M169.31,65.51h7.46q.05.68.05,1.9,0,4.71-1.15,5.82t-6,1.12q-4.6,0-5.92-1.32t-1.31-5.92V63q0-3.86,1.46-5.14t5.89-1.28q4.44,0,5.73.84t1.29,3.73v.66h-1.93v-.43q0-2.13-.87-2.63t-4.56-.5q-3.41,0-4.26.81t-.85,4l0,2.31V67.9q0,3.29,1,4t5.07.75q3.15,0,3.9-.71t.75-3.74q0-.24-.1-1.07h-5.53Z"/><path class="cls-3" d="M193.17,56.77h2V69q0,3.32-1.33,4.35t-5.59,1q-4,0-5.43-1t-1.44-3.81V56.77h2V69q0,2.47.8,3.11t4,.63q3.42,0,4.26-.62t.84-3.12Z"/><path class="cls-3" d="M200.5,74.17V56.77h8.29q2.8,0,4,1.11t1.15,3.85a6.5,6.5,0,0,1-.62,3.36,3.32,3.32,0,0,1-2.38,1.23v0q2.77.2,2.77,3.37v4.45h-2v-4q0-3-2.64-3h-6.58v7.05Zm2-8.71h5.68a5,5,0,0,0,3.06-.68,3.24,3.24,0,0,0,.82-2.57,5.2,5.2,0,0,0-.6-3.07,3.42,3.42,0,0,0-2.6-.71h-6.35Z"/><path class="cls-3" d="M225.2,56.59q4.94,0,6.17,1.44t1.24,7.21q0,6.21-1.19,7.66t-6.22,1.45q-5,0-6.22-1.44t-1.21-7.45V64.24l0-1.65q0-3.47,1.56-4.74T225.2,56.59Zm0,1.66q-4.13,0-4.83.92t-.7,6.3q0,5.39.7,6.31t4.83.92q4.14,0,4.85-.92t.7-6.31V62.68q0-2.88-1-3.66T225.19,58.24Z"/><path class="cls-3" d="M248.85,61.48h-2q0-2.1-.7-2.67t-3.3-.57a9.14,9.14,0,0,0-4,.54q-.89.54-.89,2.42,0,2.1.7,2.56t4.17.62q4.07.18,5.17,1t1.1,3.83q0,3.21-1.27,4.16t-5.6.94q-3.76,0-5-1T236,69.57v-.78h2v.43q0,2.33.72,2.9t3.66.57q3.38,0,4.16-.57t.78-3a3.08,3.08,0,0,0-.53-2.12,3.57,3.57,0,0,0-2.21-.63l-2-.1-1.94-.1q-4.43-.31-4.42-4.59,0-3,1.29-4t5.14-1q3.9,0,5.09.92T248.85,61.48Z"/><path class="cls-3" d="M280.38,56.77,273.8,66.9v7.27h-2V66.9l-6.41-10.14h2.28l3.74,5.88.71,1.13c.09.14.21.32.36.56l.34.57h.05l.34-.57.34-.56.73-1.13,3.72-5.88Z"/><path class="cls-3" d="M298.73,58.42v6.08h8.48v1.66h-8.48v8h-2V56.77h10.67v1.66Z"/><path class="cls-3" d="M313.07,56.77V74.17h-2V56.77Z"/><path class="cls-3" d="M328.69,70.49h-8.81l-1.34,3.69h-2.08l6.38-17.41h2.75l6.5,17.41H330ZM328.11,69l-3.86-10.64L320.44,69Z"/><path class="cls-3" d="M350.31,56.77V74.17h-3.23l-7.3-11.85-1.19-2-.59-1-.59-1h-.05V74.17h-2V56.77h3.21L345,67.15l1.66,2.73.83,1.35.82,1.36h.05V56.77Z"/><path class="cls-3" d="M367.5,56.77v1.66l-11,14.05v0h11.19v1.66H354.15v-1.7l10.93-14v0H354.47V56.77Z"/><path class="cls-3" d="M382.27,70.49h-8.81l-1.34,3.69H370l6.38-17.41h2.75l6.5,17.41h-2.05ZM381.7,69l-3.86-10.64L374,69Z"/><path class="cls-3" d="M401,61.48h-2q0-2.1-.7-2.67t-3.3-.57a9.14,9.14,0,0,0-4,.54q-.89.54-.89,2.42,0,2.1.7,2.56t4.17.62q4.07.18,5.17,1t1.1,3.83q0,3.21-1.27,4.16t-5.6.94q-3.76,0-5-1t-1.24-3.83v-.78h2v.43q0,2.33.72,2.9t3.66.57q3.38,0,4.16-.57t.78-3a3.08,3.08,0,0,0-.53-2.12,3.57,3.57,0,0,0-2.21-.63l-2-.1-1.94-.1q-4.43-.31-4.42-4.59,0-3,1.29-4t5.14-1q3.9,0,5.09.92T401,61.48Z"/></g></g></svg>
