<svg xmlns="http://www.w3.org/2000/svg" xmlns:xlink="http://www.w3.org/1999/xlink" viewBox="0 0 422.09 221.31"><defs><style>.cls-1{fill:url(#radial-gradient);}.cls-2{fill:url(#radial-gradient-2);}.cls-3{fill:url(#radial-gradient-3);}.cls-4{fill:#b2b2b2;}</style><radialGradient id="radial-gradient" cx="283.26" cy="19.26" r="91.3" gradientUnits="userSpaceOnUse"><stop offset="0" stop-color="#fff"/><stop offset="1" stop-color="#e5e5e5"/></radialGradient><radialGradient id="radial-gradient-2" cx="185.86" cy="19.26" r="91.3" xlink:href="#radial-gradient"/><radialGradient id="radial-gradient-3" cx="229.24" cy="34.1" r="67.78" xlink:href="#radial-gradient"/></defs><title>Condusef</title><g id="Layer_2" data-name="Layer 2"><g id="Foreground"><circle class="cls-1" cx="259.56" cy="68.75" r="68.75"/><circle class="cls-2" cx="162.16" cy="68.75" r="68.75"/><circle class="cls-3" cx="211.64" cy="70.84" r="51.04"/><polygon class="cls-4" points="351.25 86.22 351.25 80.12 328.08 80.12 328.08 72.81 344.55 72.81 344.55 66.71 328.08 66.71 328.08 62.44 351.25 62.44 351.25 55.43 314.06 55.43 314.06 86.22 351.25 86.22"/><polygon class="cls-4" points="370.73 86.22 370.73 72.81 387.19 72.81 387.19 66.71 370.73 66.71 370.73 62.44 393.9 62.44 393.9 55.43 356.7 55.43 356.7 86.22 370.73 86.22"/><path class="cls-4" d="M268.65,75.87h13a4.11,4.11,0,0,0,1.72,2.69,11.23,11.23,0,0,0,10.57.87,2.6,2.6,0,0,0,1.59-2.14A2.53,2.53,0,0,0,294,75.22q-1.5-.92-7-1.73-9-1.36-12.83-3.61t-3.87-5.75a6.17,6.17,0,0,1,2-4.33,13.49,13.49,0,0,1,5.95-3.21,40.24,40.24,0,0,1,10.89-1.17q8.47,0,12.94,2.12a9,9,0,0,1,5.3,6.76H294.48a3.55,3.55,0,0,0-2.17-2.42,9.41,9.41,0,0,0-4.55-.92,7.57,7.57,0,0,0-3.6.68A2,2,0,0,0,283,63.3c0,.47.33.9,1,1.28a14.85,14.85,0,0,0,4.59,1.1,78.92,78.92,0,0,1,12.84,2.63,13.23,13.23,0,0,1,5.64,3.3A6.43,6.43,0,0,1,308.79,76a7.45,7.45,0,0,1-2.35,5.28A14.89,14.89,0,0,1,299.85,85a38.37,38.37,0,0,1-10.65,1.25q-11.29,0-15.63-2.93A10.35,10.35,0,0,1,268.65,75.87Z"/><path class="cls-4" d="M62.92,75H76.73a15.65,15.65,0,0,1-3.95,6.31,18.06,18.06,0,0,1-6.69,3.39,37.82,37.82,0,0,1-10.16,1.14A44.47,44.47,0,0,1,43.7,84.42a18.67,18.67,0,0,1-8.19-4.9,12.27,12.27,0,0,1-3.45-9,12.59,12.59,0,0,1,6.06-11.22q6.06-3.92,17.14-3.92,8.68,0,13.64,2.25c3.31,1.5,6,5.35,7.62,8.46l-12.79.24a6.07,6.07,0,0,0-1.38-2,8.26,8.26,0,0,0-2.91-1.6,12.44,12.44,0,0,0-3.85-.56q-4.82,0-7.39,2.48-1.94,1.84-1.94,5.78,0,4.88,2.32,6.69A10.4,10.4,0,0,0,55.11,79c2.72,0,5-.27,6.16-1.47C62.81,76,62.29,76.83,62.92,75Z"/><path class="cls-4" d="M80.25,70.77a13.06,13.06,0,0,1,5.89-11.37q5.9-4.07,16.41-4.07,10.79,0,16.62,4A12.83,12.83,0,0,1,125,70.52a13.8,13.8,0,0,1-2.54,8.58,16.42,16.42,0,0,1-7.37,5.2,33.55,33.55,0,0,1-12,1.86A38.53,38.53,0,0,1,91,84.56a17.1,17.1,0,0,1-7.76-5.08A12.94,12.94,0,0,1,80.25,70.77Zm13.35,0q0,4.5,2.43,6.48a10.2,10.2,0,0,0,6.61,2,10.22,10.22,0,0,0,6.65-1.93q2.36-1.93,2.36-6.92,0-4.2-2.46-6.14a10.46,10.46,0,0,0-6.66-1.94,10,10,0,0,0-6.48,2Q93.59,66.25,93.6,70.8Z"/><path class="cls-4" d="M131.68,55.81h11.75l15.36,16.82V55.81h11.84V86.16H158.79L143.51,69.44V86.16H131.68Z"/><path class="cls-4" d="M177.8,55.66H198.1a34.12,34.12,0,0,1,9.69,1.13A16.43,16.43,0,0,1,213.9,60a12.46,12.46,0,0,1,3.5,4.9,16.27,16.27,0,0,1,1.08,5.92,14.92,14.92,0,0,1-1.61,7.6A13.69,13.69,0,0,1,212.39,83a17.2,17.2,0,0,1-6.15,2.43,45.07,45.07,0,0,1-8.14.83H177.8Zm13.66,6.94V79.28h3.35a19.86,19.86,0,0,0,6.08-.65,5.46,5.46,0,0,0,2.83-2.29,10.38,10.38,0,0,0,1-5.3q0-4.85-2.29-6.65t-7.59-1.79Z"/><path class="cls-4" d="M250.31,55.66h12.61V73.54a11.44,11.44,0,0,1-1.13,5,11,11,0,0,1-3.55,4.13,15.31,15.31,0,0,1-5.08,2.48,34.16,34.16,0,0,1-8.86,1q-3,0-6.52-.31a22.21,22.21,0,0,1-5.92-1.22,14.93,14.93,0,0,1-4.34-2.59,9.25,9.25,0,0,1-2.7-3.46,13.58,13.58,0,0,1-1.17-5.07V55.66h12.61V74a4.52,4.52,0,0,0,1.87,3.84,10.41,10.41,0,0,0,10.32,0A4.49,4.49,0,0,0,250.31,74Z"/><path class="cls-4" d="M11.44,158,14.76,159a7.45,7.45,0,0,1-2.54,4.12,7.22,7.22,0,0,1-4.5,1.35,7.29,7.29,0,0,1-5.55-2.31A8.83,8.83,0,0,1,0,155.88a9.28,9.28,0,0,1,2.18-6.57A7.49,7.49,0,0,1,7.93,147,7.06,7.06,0,0,1,13,148.8a6.66,6.66,0,0,1,1.73,3.11l-3.39.81a3.51,3.51,0,0,0-3.57-2.84,3.85,3.85,0,0,0-3.06,1.36,6.62,6.62,0,0,0-1.18,4.39q0,3.22,1.16,4.58a3.76,3.76,0,0,0,3,1.37,3.41,3.41,0,0,0,2.34-.87A5,5,0,0,0,11.44,158Z"/><path class="cls-4" d="M16.92,157.89a6.65,6.65,0,0,1,.8-3.13A5.46,5.46,0,0,1,20,152.44a6.74,6.74,0,0,1,3.27-.8,6.13,6.13,0,0,1,4.57,1.81A6.25,6.25,0,0,1,29.59,158a6.34,6.34,0,0,1-1.8,4.62,6.08,6.08,0,0,1-4.53,1.84,7.14,7.14,0,0,1-3.22-.76,5.25,5.25,0,0,1-2.33-2.24A7.47,7.47,0,0,1,16.92,157.89Zm3.32.17a4.09,4.09,0,0,0,.87,2.8,2.85,2.85,0,0,0,4.29,0,4.13,4.13,0,0,0,.87-2.83,4.05,4.05,0,0,0-.87-2.78,2.85,2.85,0,0,0-4.29,0A4.09,4.09,0,0,0,20.24,158.07Z"/><path class="cls-4" d="M31.88,151.93h3v1.67a4.81,4.81,0,0,1,3.82-2,4.13,4.13,0,0,1,2,.49,3.77,3.77,0,0,1,1.42,1.47,5.64,5.64,0,0,1,1.74-1.47,4.27,4.27,0,0,1,2-.49,4.44,4.44,0,0,1,2.28.55,3.36,3.36,0,0,1,1.4,1.61,7,7,0,0,1,.34,2.54v7.85H46.68v-7a5.2,5.2,0,0,0-.34-2.36,1.54,1.54,0,0,0-1.38-.69,2.21,2.21,0,0,0-1.28.42,2.31,2.31,0,0,0-.87,1.22,8.88,8.88,0,0,0-.26,2.54v5.9H39.3v-6.73a9.47,9.47,0,0,0-.17-2.31,1.48,1.48,0,0,0-.54-.78,1.7,1.7,0,0,0-1-.25,2.36,2.36,0,0,0-1.35.4,2.21,2.21,0,0,0-.86,1.17,8.63,8.63,0,0,0-.26,2.53v6H31.88Z"/><path class="cls-4" d="M53.17,150.26v-3h3.24v3Zm0,13.94V151.93h3.24V164.2Z"/><path class="cls-4" d="M58.6,160.69l3.26-.49a2.39,2.39,0,0,0,.85,1.44,2.83,2.83,0,0,0,1.78.49,3.2,3.2,0,0,0,1.89-.46,1,1,0,0,0,.43-.87.84.84,0,0,0-.23-.61,2.6,2.6,0,0,0-1.08-.43,17.63,17.63,0,0,1-5-1.58,3.17,3.17,0,0,1-1.46-2.77,3.41,3.41,0,0,1,1.26-2.68,5.88,5.88,0,0,1,3.9-1.09,6.81,6.81,0,0,1,3.75.82,4.2,4.2,0,0,1,1.69,2.43l-3.07.56a1.89,1.89,0,0,0-.74-1.1,2.71,2.71,0,0,0-1.56-.38,3.51,3.51,0,0,0-1.83.36.78.78,0,0,0-.37.66.71.71,0,0,0,.33.59,12.1,12.1,0,0,0,3,.92A9,9,0,0,1,69.05,158a3,3,0,0,1,1,2.42,3.71,3.71,0,0,1-1.41,2.9,6.23,6.23,0,0,1-4.17,1.22,6.84,6.84,0,0,1-4-1A4.7,4.7,0,0,1,58.6,160.69Z"/><path class="cls-4" d="M72.9,150.26v-3h3.24v3Zm0,13.94V151.93h3.24V164.2Z"/><path class="cls-4" d="M78.73,157.89a6.61,6.61,0,0,1,.8-3.13,5.5,5.5,0,0,1,2.26-2.31,6.75,6.75,0,0,1,3.27-.8,6.13,6.13,0,0,1,4.57,1.81A6.24,6.24,0,0,1,91.41,158a6.33,6.33,0,0,1-1.8,4.62,6.08,6.08,0,0,1-4.53,1.84,7.13,7.13,0,0,1-3.22-.76,5.25,5.25,0,0,1-2.33-2.24A7.44,7.44,0,0,1,78.73,157.89Zm3.32.17a4.07,4.07,0,0,0,.87,2.8,2.84,2.84,0,0,0,4.28,0,4.14,4.14,0,0,0,.87-2.83,4.06,4.06,0,0,0-.87-2.78,2.84,2.84,0,0,0-4.28,0A4.07,4.07,0,0,0,82.05,158.07Zm1.52-7.73,1.6-3.46h3.63l-3.18,3.46Z"/><path class="cls-4" d="M105.1,164.2h-3.24v-6.27a9.68,9.68,0,0,0-.21-2.57,1.82,1.82,0,0,0-.68-.91,1.94,1.94,0,0,0-1.13-.32,2.6,2.6,0,0,0-1.52.46,2.34,2.34,0,0,0-.92,1.23,10.7,10.7,0,0,0-.25,2.82v5.56H93.91V151.93h3v1.8a5,5,0,0,1,6-1.7,3.32,3.32,0,0,1,1.35,1,3.52,3.52,0,0,1,.64,1.36,10.43,10.43,0,0,1,.18,2.19Z"/><path class="cls-4" d="M115,164.2V147.26h3.31l7,11.36V147.26h3.16V164.2h-3.42l-6.86-11.12V164.2Z"/><path class="cls-4" d="M134.49,155.66l-2.95-.53a4.59,4.59,0,0,1,1.71-2.63,6.3,6.3,0,0,1,3.61-.85,7.77,7.77,0,0,1,3.24.51,3.21,3.21,0,0,1,1.5,1.31,6.68,6.68,0,0,1,.43,2.91l0,3.79a13.1,13.1,0,0,0,.16,2.39,7.08,7.08,0,0,0,.58,1.65h-3.22c-.08-.22-.19-.54-.31-1-.05-.19-.09-.32-.12-.38a5.92,5.92,0,0,1-1.78,1.22,5.1,5.1,0,0,1-2,.4,4.18,4.18,0,0,1-3-1,3.43,3.43,0,0,1-1.09-2.61,3.48,3.48,0,0,1,.5-1.86,3.27,3.27,0,0,1,1.39-1.25,10.87,10.87,0,0,1,2.59-.76,17.77,17.77,0,0,0,3.16-.8v-.32a1.68,1.68,0,0,0-.46-1.33,2.82,2.82,0,0,0-1.76-.4,2.36,2.36,0,0,0-1.36.34A2.39,2.39,0,0,0,134.49,155.66Zm4.36,2.64c-.42.14-1.08.3-2,.5a6.08,6.08,0,0,0-1.78.56,1.36,1.36,0,0,0-.64,1.15,1.59,1.59,0,0,0,.51,1.18,1.79,1.79,0,0,0,1.3.5,2.84,2.84,0,0,0,1.69-.58,2,2,0,0,0,.78-1.08,6.25,6.25,0,0,0,.13-1.58Z"/><path class="cls-4" d="M155.94,155.56l-3.2.58a2.32,2.32,0,0,0-.74-1.45,2.22,2.22,0,0,0-1.49-.49,2.43,2.43,0,0,0-1.94.84,4.28,4.28,0,0,0-.73,2.81,5,5,0,0,0,.74,3.09,2.42,2.42,0,0,0,2,.91,2.2,2.2,0,0,0,1.52-.53,3.18,3.18,0,0,0,.83-1.81l3.19.55a5.65,5.65,0,0,1-1.91,3.31,5.92,5.92,0,0,1-3.78,1.12,5.62,5.62,0,0,1-4.3-1.7,7.75,7.75,0,0,1,0-9.44,5.71,5.71,0,0,1,4.35-1.69,5.93,5.93,0,0,1,3.57,1A5.39,5.39,0,0,1,155.94,155.56Z"/><path class="cls-4" d="M158.38,150.26v-3h3.24v3Zm0,13.94V151.93h3.24V164.2Z"/><path class="cls-4" d="M164.21,157.89a6.67,6.67,0,0,1,.8-3.13,5.46,5.46,0,0,1,2.26-2.31,6.75,6.75,0,0,1,3.27-.8,6.13,6.13,0,0,1,4.57,1.81,6.24,6.24,0,0,1,1.78,4.57,6.34,6.34,0,0,1-1.8,4.62,6.08,6.08,0,0,1-4.53,1.84,7.14,7.14,0,0,1-3.22-.76,5.25,5.25,0,0,1-2.33-2.24A7.49,7.49,0,0,1,164.21,157.89Zm3.32.17a4.09,4.09,0,0,0,.87,2.8,2.85,2.85,0,0,0,4.29,0,4.13,4.13,0,0,0,.87-2.83,4.05,4.05,0,0,0-.87-2.78,2.85,2.85,0,0,0-4.29,0A4.09,4.09,0,0,0,167.53,158.07Z"/><path class="cls-4" d="M190.59,164.2h-3.24v-6.27a9.71,9.71,0,0,0-.21-2.57,1.8,1.8,0,0,0-.68-.91,2,2,0,0,0-1.13-.32,2.6,2.6,0,0,0-1.52.46,2.32,2.32,0,0,0-.92,1.23,10.55,10.55,0,0,0-.25,2.82v5.56h-3.24V151.93h3v1.8a5,5,0,0,1,6-1.7,3.28,3.28,0,0,1,1.35,1,3.59,3.59,0,0,1,.64,1.36,10.25,10.25,0,0,1,.18,2.19Z"/><path class="cls-4" d="M196.3,155.66l-2.95-.53a4.58,4.58,0,0,1,1.71-2.63,6.31,6.31,0,0,1,3.62-.85,7.81,7.81,0,0,1,3.24.51,3.24,3.24,0,0,1,1.5,1.31,6.68,6.68,0,0,1,.43,2.91l0,3.79a13,13,0,0,0,.15,2.39,6.8,6.8,0,0,0,.58,1.65h-3.22c-.08-.22-.19-.54-.31-1-.06-.19-.09-.32-.12-.38a6,6,0,0,1-1.78,1.22,5.09,5.09,0,0,1-2,.4,4.19,4.19,0,0,1-3-1,3.43,3.43,0,0,1-1.09-2.61,3.5,3.5,0,0,1,.5-1.86,3.29,3.29,0,0,1,1.4-1.25,10.82,10.82,0,0,1,2.59-.76,17.82,17.82,0,0,0,3.16-.8v-.32a1.68,1.68,0,0,0-.46-1.33,2.81,2.81,0,0,0-1.75-.4,2,2,0,0,0-2.15,1.53Zm4.36,2.64c-.42.14-1.08.3-2,.5a6.11,6.11,0,0,0-1.78.56,1.36,1.36,0,0,0-.64,1.15,1.59,1.59,0,0,0,.51,1.18,1.79,1.79,0,0,0,1.3.5,2.85,2.85,0,0,0,1.69-.58,2,2,0,0,0,.77-1.08,6.23,6.23,0,0,0,.13-1.58Z"/><path class="cls-4" d="M207,164.2V147.26h3.24V164.2Z"/><path class="cls-4" d="M220.09,151.93h3v1.8a4.53,4.53,0,0,1,1.6-1.5,4.39,4.39,0,0,1,2.23-.58,4.69,4.69,0,0,1,3.64,1.68,6.78,6.78,0,0,1,1.5,4.67,7,7,0,0,1-1.51,4.78,4.69,4.69,0,0,1-3.65,1.71,4.14,4.14,0,0,1-1.85-.4,6.27,6.27,0,0,1-1.75-1.39v6.18h-3.24Zm3.2,5.93a4.71,4.71,0,0,0,.83,3.06,2.52,2.52,0,0,0,2,1A2.36,2.36,0,0,0,228,161a4.67,4.67,0,0,0,.75-3,4.43,4.43,0,0,0-.78-2.87,2.39,2.39,0,0,0-1.93-.94,2.5,2.5,0,0,0-2,.92A4.08,4.08,0,0,0,223.29,157.86Z"/><path class="cls-4" d="M237.07,155.66l-2.95-.53a4.57,4.57,0,0,1,1.71-2.63,6.3,6.3,0,0,1,3.61-.85,7.77,7.77,0,0,1,3.24.51,3.25,3.25,0,0,1,1.5,1.31,6.74,6.74,0,0,1,.43,2.91l0,3.79a13.81,13.81,0,0,0,.15,2.39,7.14,7.14,0,0,0,.58,1.65H242.1c-.09-.22-.19-.54-.31-1-.05-.19-.09-.32-.11-.38a6,6,0,0,1-1.78,1.22,5.12,5.12,0,0,1-2,.4,4.18,4.18,0,0,1-3-1,3.41,3.41,0,0,1-1.1-2.61,3.47,3.47,0,0,1,.5-1.86,3.24,3.24,0,0,1,1.39-1.25,10.83,10.83,0,0,1,2.59-.76,17.85,17.85,0,0,0,3.16-.8v-.32a1.68,1.68,0,0,0-.46-1.33,2.81,2.81,0,0,0-1.76-.4,2,2,0,0,0-2.15,1.53Zm4.36,2.64c-.42.14-1.08.3-2,.5a6.05,6.05,0,0,0-1.77.56,1.35,1.35,0,0,0-.64,1.15,1.59,1.59,0,0,0,.51,1.18,1.8,1.8,0,0,0,1.3.5,2.81,2.81,0,0,0,1.68-.58,2.07,2.07,0,0,0,.78-1.08,6.55,6.55,0,0,0,.13-1.58Z"/><path class="cls-4" d="M250.92,164.2h-3.24V151.93h3v1.74a5.28,5.28,0,0,1,1.39-1.63,2.57,2.57,0,0,1,1.4-.39,4.13,4.13,0,0,1,2.14.61l-1,2.83a2.86,2.86,0,0,0-1.53-.53,1.8,1.8,0,0,0-1.16.37,2.58,2.58,0,0,0-.75,1.36,19.13,19.13,0,0,0-.27,4.12Z"/><path class="cls-4" d="M259.44,155.66l-2.95-.53a4.57,4.57,0,0,1,1.71-2.63,6.29,6.29,0,0,1,3.61-.85,7.79,7.79,0,0,1,3.24.51,3.2,3.2,0,0,1,1.5,1.31,6.68,6.68,0,0,1,.43,2.91l0,3.79a12.89,12.89,0,0,0,.16,2.39,7,7,0,0,0,.58,1.65h-3.21c-.09-.22-.19-.54-.31-1-.05-.19-.09-.32-.12-.38a5.9,5.9,0,0,1-1.78,1.22,5.09,5.09,0,0,1-2,.4,4.17,4.17,0,0,1-3-1,3.43,3.43,0,0,1-1.1-2.61,3.5,3.5,0,0,1,.5-1.86,3.29,3.29,0,0,1,1.4-1.25,10.93,10.93,0,0,1,2.59-.76,17.74,17.74,0,0,0,3.16-.8v-.32a1.68,1.68,0,0,0-.46-1.33,2.82,2.82,0,0,0-1.75-.4,2.36,2.36,0,0,0-1.36.34A2.38,2.38,0,0,0,259.44,155.66Zm4.36,2.64a20.41,20.41,0,0,1-2,.5,6.1,6.1,0,0,0-1.78.56,1.36,1.36,0,0,0-.64,1.15,1.59,1.59,0,0,0,.51,1.18,1.8,1.8,0,0,0,1.3.5,2.83,2.83,0,0,0,1.68-.58,2,2,0,0,0,.78-1.08,6.16,6.16,0,0,0,.13-1.58Z"/><path class="cls-4" d="M276.75,164.2V147.26H280V164.2Z"/><path class="cls-4" d="M285.76,155.66l-2.95-.53a4.58,4.58,0,0,1,1.72-2.63,6.28,6.28,0,0,1,3.61-.85,7.76,7.76,0,0,1,3.24.51,3.23,3.23,0,0,1,1.5,1.31,6.74,6.74,0,0,1,.43,2.91l0,3.79a13.35,13.35,0,0,0,.15,2.39,7,7,0,0,0,.58,1.65h-3.22c-.09-.22-.18-.54-.31-1-.05-.19-.09-.32-.11-.38a6,6,0,0,1-1.78,1.22,5.1,5.1,0,0,1-2,.4,4.18,4.18,0,0,1-3-1,3.43,3.43,0,0,1-1.09-2.61A3.5,3.5,0,0,1,283,159a3.24,3.24,0,0,1,1.4-1.25A10.81,10.81,0,0,1,287,157a17.74,17.74,0,0,0,3.16-.8v-.32a1.67,1.67,0,0,0-.46-1.33,2.81,2.81,0,0,0-1.75-.4,2,2,0,0,0-2.15,1.53Zm4.36,2.64c-.42.14-1.08.3-2,.5a6.06,6.06,0,0,0-1.77.56,1.36,1.36,0,0,0-.64,1.15,1.58,1.58,0,0,0,.51,1.18,1.8,1.8,0,0,0,1.3.5,2.81,2.81,0,0,0,1.68-.58,2.05,2.05,0,0,0,.78-1.08,6.39,6.39,0,0,0,.13-1.58Z"/><path class="cls-4" d="M303.11,164.2V147.26h5.49a20.09,20.09,0,0,1,4.07.25,4.45,4.45,0,0,1,2.43,1.66,5.26,5.26,0,0,1,1,3.3,5.54,5.54,0,0,1-.56,2.62,4.64,4.64,0,0,1-1.44,1.67,5,5,0,0,1-1.78.8,19.25,19.25,0,0,1-3.55.24h-2.23v6.39Zm3.42-14.08v4.82h1.87a8.83,8.83,0,0,0,2.7-.27,2.25,2.25,0,0,0,1.07-.83,2.28,2.28,0,0,0,.38-1.32A2.2,2.2,0,0,0,312,151a2.35,2.35,0,0,0-1.37-.76,16.73,16.73,0,0,0-2.46-.12Z"/><path class="cls-4" d="M322,164.2h-3.24V151.93h3v1.74a5.27,5.27,0,0,1,1.39-1.63,2.56,2.56,0,0,1,1.4-.39,4.12,4.12,0,0,1,2.14.61l-1,2.83a2.86,2.86,0,0,0-1.53-.53,1.82,1.82,0,0,0-1.16.37,2.57,2.57,0,0,0-.74,1.36,19.08,19.08,0,0,0-.27,4.12Z"/><path class="cls-4" d="M327.32,157.89a6.63,6.63,0,0,1,.79-3.13,5.51,5.51,0,0,1,2.26-2.31,6.75,6.75,0,0,1,3.27-.8,6.13,6.13,0,0,1,4.56,1.81A6.24,6.24,0,0,1,340,158a6.33,6.33,0,0,1-1.8,4.62,6.07,6.07,0,0,1-4.53,1.84,7.13,7.13,0,0,1-3.22-.76,5.25,5.25,0,0,1-2.34-2.24A7.46,7.46,0,0,1,327.32,157.89Zm3.32.17a4.07,4.07,0,0,0,.87,2.8,2.84,2.84,0,0,0,4.28,0,4.15,4.15,0,0,0,.86-2.83,4.07,4.07,0,0,0-.86-2.78,2.84,2.84,0,0,0-4.28,0A4.07,4.07,0,0,0,330.64,158.07Z"/><path class="cls-4" d="M348.14,151.93v2.59h-2.22v5a11.53,11.53,0,0,0,.07,1.75.68.68,0,0,0,.29.41.89.89,0,0,0,.55.16,4.13,4.13,0,0,0,1.3-.31l.27,2.52a6.38,6.38,0,0,1-2.56.49,4,4,0,0,1-1.58-.3,2.26,2.26,0,0,1-1-.76,2.94,2.94,0,0,1-.45-1.27,15,15,0,0,1-.11-2.29v-5.35h-1.5v-2.59h1.5v-2.44l3.24-1.91v4.35Z"/><path class="cls-4" d="M357.51,160.3l3.24.55a5.3,5.3,0,0,1-2,2.71,5.79,5.79,0,0,1-3.37.93,5.5,5.5,0,0,1-4.74-2.09,7,7,0,0,1-1.21-4.23,6.77,6.77,0,0,1,1.6-4.78,5.25,5.25,0,0,1,4-1.73,5.44,5.44,0,0,1,4.32,1.81q1.59,1.81,1.52,5.54h-8.16a3.3,3.3,0,0,0,.79,2.25,2.47,2.47,0,0,0,1.88.8,2,2,0,0,0,1.28-.42A2.6,2.6,0,0,0,357.51,160.3Zm.18-3.28a3.12,3.12,0,0,0-.73-2.15,2.35,2.35,0,0,0-3.46,0,3,3,0,0,0-.68,2.11Z"/><path class="cls-4" d="M374.28,155.56l-3.2.58a2.33,2.33,0,0,0-.73-1.45,2.24,2.24,0,0,0-1.5-.49,2.43,2.43,0,0,0-1.94.84,4.28,4.28,0,0,0-.73,2.81,4.94,4.94,0,0,0,.74,3.09,2.4,2.4,0,0,0,2,.91,2.21,2.21,0,0,0,1.52-.53,3.18,3.18,0,0,0,.83-1.81l3.19.55a5.64,5.64,0,0,1-1.9,3.31,5.92,5.92,0,0,1-3.78,1.12,5.63,5.63,0,0,1-4.3-1.7,7.74,7.74,0,0,1,0-9.44,5.71,5.71,0,0,1,4.34-1.69,5.91,5.91,0,0,1,3.57,1A5.34,5.34,0,0,1,374.28,155.56Z"/><path class="cls-4" d="M387.44,155.56l-3.2.58a2.33,2.33,0,0,0-.74-1.45,2.21,2.21,0,0,0-1.49-.49,2.43,2.43,0,0,0-1.94.84,4.28,4.28,0,0,0-.73,2.81,5,5,0,0,0,.74,3.09,2.41,2.41,0,0,0,2,.91,2.19,2.19,0,0,0,1.52-.53,3.18,3.18,0,0,0,.83-1.81l3.19.55a5.66,5.66,0,0,1-1.91,3.31,5.91,5.91,0,0,1-3.78,1.12,5.62,5.62,0,0,1-4.29-1.7,7.75,7.75,0,0,1,0-9.44,5.71,5.71,0,0,1,4.35-1.69,5.94,5.94,0,0,1,3.57,1A5.39,5.39,0,0,1,387.44,155.56Z"/><path class="cls-4" d="M389.89,150.26v-3h3.24v3Zm0,13.94V151.93h3.24V164.2Z"/><path class="cls-4" d="M395.71,157.89a6.64,6.64,0,0,1,.8-3.13,5.47,5.47,0,0,1,2.26-2.31,6.73,6.73,0,0,1,3.27-.8,6.12,6.12,0,0,1,4.56,1.81,6.24,6.24,0,0,1,1.78,4.57,6.32,6.32,0,0,1-1.8,4.62,6.08,6.08,0,0,1-4.53,1.84,7.16,7.16,0,0,1-3.22-.76,5.25,5.25,0,0,1-2.33-2.24A7.46,7.46,0,0,1,395.71,157.89Zm3.33.17a4.07,4.07,0,0,0,.87,2.8,2.85,2.85,0,0,0,4.29,0,4.15,4.15,0,0,0,.86-2.83,4.07,4.07,0,0,0-.86-2.78,2.85,2.85,0,0,0-4.29,0A4.07,4.07,0,0,0,399,158.07Zm1.52-7.73,1.6-3.46h3.63l-3.18,3.46Z"/><path class="cls-4" d="M422.09,164.2h-3.24v-6.27a9.65,9.65,0,0,0-.21-2.57,1.8,1.8,0,0,0-.68-.91,2,2,0,0,0-1.13-.32,2.62,2.62,0,0,0-1.52.46,2.32,2.32,0,0,0-.92,1.23,10.71,10.71,0,0,0-.25,2.82v5.56h-3.24V151.93h3v1.8a5,5,0,0,1,6-1.7,3.33,3.33,0,0,1,1.35,1,3.64,3.64,0,0,1,.63,1.36,10.2,10.2,0,0,1,.18,2.19Z"/><path class="cls-4" d="M47,180.33h3.46L53.42,189l2.86-8.72h3.36l-4.32,11.82-.78,2.13a8.53,8.53,0,0,1-.82,1.64,3.6,3.6,0,0,1-.89.92,3.86,3.86,0,0,1-1.24.55,6.37,6.37,0,0,1-1.66.2,8.49,8.49,0,0,1-1.84-.2l-.29-2.54a7.25,7.25,0,0,0,1.38.15,2,2,0,0,0,1.67-.66,4.57,4.57,0,0,0,.83-1.69Z"/><path class="cls-4" d="M68.31,175.66h6.26a12.27,12.27,0,0,1,3.22.32,5.7,5.7,0,0,1,2.56,1.56A7.44,7.44,0,0,1,82,180.29a12.47,12.47,0,0,1,.56,4,11.15,11.15,0,0,1-.52,3.6,7.48,7.48,0,0,1-1.82,3,6,6,0,0,1-2.41,1.35,10.39,10.39,0,0,1-3,.36H68.31Zm3.42,2.87v11.21h2.56a9.51,9.51,0,0,0,2.08-.16,3.2,3.2,0,0,0,1.39-.71,3.55,3.55,0,0,0,.9-1.63,11,11,0,0,0,.35-3.1,10.07,10.07,0,0,0-.35-3,3.84,3.84,0,0,0-1-1.64,3.28,3.28,0,0,0-1.59-.8,15.84,15.84,0,0,0-2.82-.16Z"/><path class="cls-4" d="M92.5,188.69l3.24.55a5.3,5.3,0,0,1-2,2.71,5.79,5.79,0,0,1-3.37.93,5.5,5.5,0,0,1-4.74-2.09,7.06,7.06,0,0,1-1.21-4.23,6.79,6.79,0,0,1,1.6-4.78,5.26,5.26,0,0,1,4-1.73,5.45,5.45,0,0,1,4.33,1.81q1.59,1.81,1.51,5.54H87.76a3.33,3.33,0,0,0,.79,2.25,2.47,2.47,0,0,0,1.88.8,2,2,0,0,0,1.28-.42A2.58,2.58,0,0,0,92.5,188.69Zm.19-3.28a3.12,3.12,0,0,0-.73-2.15,2.24,2.24,0,0,0-1.69-.74,2.27,2.27,0,0,0-1.76.78,3,3,0,0,0-.68,2.11Z"/><path class="cls-4" d="M97.14,180.33h1.8v-.92a6.14,6.14,0,0,1,.33-2.32,2.59,2.59,0,0,1,1.21-1.24,4.69,4.69,0,0,1,2.24-.48,9.11,9.11,0,0,1,2.72.42L105,178a6.42,6.42,0,0,0-1.5-.19,1.33,1.33,0,0,0-1,.33,1.94,1.94,0,0,0-.31,1.28v.87h2.43v2.55h-2.43v9.73H98.94v-9.73h-1.8Z"/><path class="cls-4" d="M113.54,188.69l3.24.55a5.3,5.3,0,0,1-2,2.71,5.8,5.8,0,0,1-3.37.93,5.5,5.5,0,0,1-4.74-2.09,7.06,7.06,0,0,1-1.21-4.23,6.79,6.79,0,0,1,1.6-4.78,5.27,5.27,0,0,1,4-1.73,5.45,5.45,0,0,1,4.33,1.81q1.58,1.81,1.51,5.54h-8.15a3.33,3.33,0,0,0,.79,2.25,2.47,2.47,0,0,0,1.88.8,2,2,0,0,0,1.28-.42A2.58,2.58,0,0,0,113.54,188.69Zm.19-3.28a3.12,3.12,0,0,0-.73-2.15,2.24,2.24,0,0,0-1.69-.74,2.27,2.27,0,0,0-1.76.78,3,3,0,0,0-.68,2.11Z"/><path class="cls-4" d="M130.76,192.61h-3.24v-6.27a9.84,9.84,0,0,0-.21-2.57,1.83,1.83,0,0,0-.68-.91,2,2,0,0,0-1.13-.32A2.63,2.63,0,0,0,124,183a2.32,2.32,0,0,0-.92,1.22,10.52,10.52,0,0,0-.25,2.82v5.57h-3.24V180.33h3v1.8a5.05,5.05,0,0,1,6-1.7,3.32,3.32,0,0,1,1.35,1,3.57,3.57,0,0,1,.63,1.37,10,10,0,0,1,.18,2.18Z"/><path class="cls-4" d="M132.92,189.1l3.26-.5A2.41,2.41,0,0,0,137,190a2.87,2.87,0,0,0,1.78.49,3.21,3.21,0,0,0,1.9-.46,1,1,0,0,0,.43-.87.86.86,0,0,0-.23-.61,2.57,2.57,0,0,0-1.09-.43,17.52,17.52,0,0,1-5-1.58,3.16,3.16,0,0,1-1.45-2.77,3.41,3.41,0,0,1,1.26-2.68,5.87,5.87,0,0,1,3.91-1.09,6.79,6.79,0,0,1,3.74.82A4.23,4.23,0,0,1,144,183.3l-3.07.56a1.91,1.91,0,0,0-.75-1.1,2.68,2.68,0,0,0-1.56-.38,3.55,3.55,0,0,0-1.83.36.77.77,0,0,0-.37.66.73.73,0,0,0,.32.59,12.33,12.33,0,0,0,3,.91,9,9,0,0,1,3.62,1.45,3,3,0,0,1,1,2.42,3.72,3.72,0,0,1-1.41,2.9,6.25,6.25,0,0,1-4.17,1.22,6.85,6.85,0,0,1-4-1A4.69,4.69,0,0,1,132.92,189.1Z"/><path class="cls-4" d="M149.64,184.07l-2.95-.54a4.6,4.6,0,0,1,1.71-2.63A6.31,6.31,0,0,1,152,180a7.88,7.88,0,0,1,3.24.51,3.23,3.23,0,0,1,1.5,1.31,6.68,6.68,0,0,1,.44,2.91l0,3.79a13,13,0,0,0,.16,2.39,6.85,6.85,0,0,0,.58,1.65h-3.22c-.08-.22-.19-.54-.31-1-.06-.19-.09-.32-.12-.38a5.89,5.89,0,0,1-1.78,1.22,5.09,5.09,0,0,1-2,.41,4.19,4.19,0,0,1-3-1,3.42,3.42,0,0,1-1.09-2.6,3.52,3.52,0,0,1,.5-1.86,3.28,3.28,0,0,1,1.4-1.25,11,11,0,0,1,2.59-.76,17.86,17.86,0,0,0,3.16-.8v-.32a1.68,1.68,0,0,0-.46-1.33,2.8,2.8,0,0,0-1.75-.4,2.31,2.31,0,0,0-1.35.34A2.34,2.34,0,0,0,149.64,184.07Zm4.36,2.64q-.63.21-2,.5a6.15,6.15,0,0,0-1.78.57,1.36,1.36,0,0,0-.64,1.14,1.59,1.59,0,0,0,.51,1.18,1.79,1.79,0,0,0,1.3.5,2.85,2.85,0,0,0,1.69-.58,2,2,0,0,0,.78-1.08,6.33,6.33,0,0,0,.13-1.58Z"/><path class="cls-4" d="M178.22,192.61h-3v-1.8a4.88,4.88,0,0,1-1.77,1.57,4.53,4.53,0,0,1-2.06.52,4.67,4.67,0,0,1-3.62-1.71,6.93,6.93,0,0,1-1.51-4.76,6.85,6.85,0,0,1,1.47-4.75,4.78,4.78,0,0,1,3.71-1.62,4.6,4.6,0,0,1,3.56,1.71v-6.1h3.24Zm-8.66-6.41a5.63,5.63,0,0,0,.54,2.85,2.45,2.45,0,0,0,2.19,1.28,2.39,2.39,0,0,0,1.91-1,4.41,4.41,0,0,0,.79-2.85,4.83,4.83,0,0,0-.76-3.05,2.5,2.5,0,0,0-3.89,0A4.17,4.17,0,0,0,169.55,186.2Z"/><path class="cls-4" d="M188.52,188.69l3.24.55a5.33,5.33,0,0,1-2,2.71,5.81,5.81,0,0,1-3.37.93,5.49,5.49,0,0,1-4.74-2.09,7,7,0,0,1-1.21-4.23,6.77,6.77,0,0,1,1.6-4.78,5.26,5.26,0,0,1,4-1.73,5.44,5.44,0,0,1,4.32,1.81q1.59,1.81,1.52,5.54h-8.15a3.28,3.28,0,0,0,.79,2.25,2.47,2.47,0,0,0,1.88.8,2,2,0,0,0,1.28-.42A2.55,2.55,0,0,0,188.52,188.69Zm.19-3.28a3.11,3.11,0,0,0-.73-2.15,2.24,2.24,0,0,0-1.69-.74,2.27,2.27,0,0,0-1.76.78,3,3,0,0,0-.69,2.11Z"/><path class="cls-4" d="M201.15,192.61V175.66h3.24v16.95Z"/><path class="cls-4" d="M207,186.29a6.64,6.64,0,0,1,.8-3.13,5.47,5.47,0,0,1,2.26-2.31,6.72,6.72,0,0,1,3.27-.79,6.12,6.12,0,0,1,4.57,1.81,6.24,6.24,0,0,1,1.78,4.57,6.33,6.33,0,0,1-1.8,4.62,6.08,6.08,0,0,1-4.53,1.83,7.12,7.12,0,0,1-3.22-.76,5.23,5.23,0,0,1-2.33-2.24A7.44,7.44,0,0,1,207,186.29Zm3.32.17a4.09,4.09,0,0,0,.87,2.8,2.85,2.85,0,0,0,4.29,0,4.15,4.15,0,0,0,.86-2.83,4.07,4.07,0,0,0-.86-2.78,2.85,2.85,0,0,0-4.29,0A4.09,4.09,0,0,0,210.29,186.47Z"/><path class="cls-4" d="M221,189.1l3.26-.5a2.41,2.41,0,0,0,.84,1.44,2.86,2.86,0,0,0,1.78.49,3.23,3.23,0,0,0,1.9-.46,1,1,0,0,0,.43-.87.86.86,0,0,0-.23-.61,2.57,2.57,0,0,0-1.09-.43,17.56,17.56,0,0,1-5-1.58,3.17,3.17,0,0,1-1.45-2.77,3.4,3.4,0,0,1,1.26-2.68,5.87,5.87,0,0,1,3.9-1.09,6.78,6.78,0,0,1,3.74.82,4.19,4.19,0,0,1,1.69,2.43l-3.07.56a1.91,1.91,0,0,0-.74-1.1,2.7,2.7,0,0,0-1.57-.38,3.54,3.54,0,0,0-1.83.36.77.77,0,0,0-.37.66.72.72,0,0,0,.32.59,12.24,12.24,0,0,0,3,.91,9,9,0,0,1,3.62,1.45,3,3,0,0,1,1,2.42,3.71,3.71,0,0,1-1.41,2.9,6.24,6.24,0,0,1-4.17,1.22,6.85,6.85,0,0,1-4-1A4.69,4.69,0,0,1,221,189.1Z"/><path class="cls-4" d="M241.91,175.66h3.42v9.18a18.88,18.88,0,0,0,.13,2.83,2.75,2.75,0,0,0,1,1.67,3.67,3.67,0,0,0,2.27.63,3.47,3.47,0,0,0,2.2-.6,2.38,2.38,0,0,0,.89-1.46A18.89,18.89,0,0,0,252,185v-9.38h3.41v8.9a23.08,23.08,0,0,1-.27,4.31,4.7,4.7,0,0,1-1,2.13,5.18,5.18,0,0,1-2,1.38,8.68,8.68,0,0,1-3.26.51,9.4,9.4,0,0,1-3.69-.56,5.25,5.25,0,0,1-2-1.46,4.65,4.65,0,0,1-1-1.88,20.42,20.42,0,0,1-.34-4.3Z"/><path class="cls-4" d="M257.87,189.1l3.26-.5A2.42,2.42,0,0,0,262,190a2.86,2.86,0,0,0,1.78.49,3.23,3.23,0,0,0,1.9-.46,1,1,0,0,0,.43-.87.87.87,0,0,0-.23-.61,2.57,2.57,0,0,0-1.09-.43,17.45,17.45,0,0,1-5-1.58,3.16,3.16,0,0,1-1.46-2.77,3.41,3.41,0,0,1,1.26-2.68,5.86,5.86,0,0,1,3.91-1.09,6.8,6.8,0,0,1,3.74.82,4.23,4.23,0,0,1,1.69,2.43l-3.07.56a1.91,1.91,0,0,0-.74-1.1,2.7,2.7,0,0,0-1.56-.38,3.56,3.56,0,0,0-1.84.36.77.77,0,0,0-.36.66.73.73,0,0,0,.32.59,12.31,12.31,0,0,0,3,.91,9,9,0,0,1,3.62,1.45,3,3,0,0,1,1,2.42,3.72,3.72,0,0,1-1.41,2.9,6.25,6.25,0,0,1-4.18,1.22,6.85,6.85,0,0,1-4-1A4.7,4.7,0,0,1,257.87,189.1Z"/><path class="cls-4" d="M280.25,192.61v-1.84a4.72,4.72,0,0,1-1.76,1.55,4.94,4.94,0,0,1-2.31.57,4.52,4.52,0,0,1-2.22-.54,3.19,3.19,0,0,1-1.42-1.53,6.84,6.84,0,0,1-.44-2.72v-7.77h3.24V186a15.33,15.33,0,0,0,.18,3.17,1.7,1.7,0,0,0,.65.92,2,2,0,0,0,1.2.34,2.56,2.56,0,0,0,1.5-.46,2.31,2.31,0,0,0,.9-1.13,13.19,13.19,0,0,0,.25-3.31v-5.18h3.24v12.28Z"/><path class="cls-4" d="M289.05,184.07l-2.95-.54a4.6,4.6,0,0,1,1.71-2.63,6.31,6.31,0,0,1,3.62-.85,7.84,7.84,0,0,1,3.24.51,3.22,3.22,0,0,1,1.5,1.31,6.68,6.68,0,0,1,.43,2.91l0,3.79a13.34,13.34,0,0,0,.16,2.39,7.4,7.4,0,0,0,.58,1.65h-3.21c-.08-.22-.19-.54-.31-1-.05-.19-.09-.32-.11-.38a5.86,5.86,0,0,1-1.78,1.22,5.07,5.07,0,0,1-2,.41,4.18,4.18,0,0,1-3-1,3.42,3.42,0,0,1-1.09-2.6,3.47,3.47,0,0,1,.5-1.86,3.26,3.26,0,0,1,1.4-1.25,11,11,0,0,1,2.59-.76,17.86,17.86,0,0,0,3.16-.8v-.32a1.68,1.68,0,0,0-.46-1.33,2.8,2.8,0,0,0-1.75-.4,2.34,2.34,0,0,0-1.36.34A2.39,2.39,0,0,0,289.05,184.07Zm4.36,2.64c-.42.14-1.08.3-2,.5a6.07,6.07,0,0,0-1.78.57,1.36,1.36,0,0,0-.64,1.14,1.6,1.6,0,0,0,.52,1.18,1.78,1.78,0,0,0,1.3.5,2.84,2.84,0,0,0,1.69-.58,2.05,2.05,0,0,0,.78-1.08,6.36,6.36,0,0,0,.13-1.58Z"/><path class="cls-4" d="M302.9,192.61h-3.24V180.33h3v1.75a5.23,5.23,0,0,1,1.39-1.63,2.57,2.57,0,0,1,1.41-.39,4.13,4.13,0,0,1,2.14.61l-1,2.83a2.83,2.83,0,0,0-1.53-.53,1.8,1.8,0,0,0-1.16.38,2.53,2.53,0,0,0-.74,1.36,19.09,19.09,0,0,0-.27,4.12Z"/><path class="cls-4" d="M309,178.66v-3h3.24v3Zm0,13.94V180.33h3.24v12.28Z"/><path class="cls-4" d="M314.83,186.29a6.65,6.65,0,0,1,.8-3.13,5.45,5.45,0,0,1,2.26-2.31,6.73,6.73,0,0,1,3.26-.79,6.14,6.14,0,0,1,4.57,1.81,6.26,6.26,0,0,1,1.78,4.57,6.33,6.33,0,0,1-1.8,4.62,6.06,6.06,0,0,1-4.52,1.83,7.11,7.11,0,0,1-3.22-.76,5.21,5.21,0,0,1-2.33-2.24A7.45,7.45,0,0,1,314.83,186.29Zm3.32.17a4.09,4.09,0,0,0,.87,2.8,2.85,2.85,0,0,0,4.29,0,4.13,4.13,0,0,0,.86-2.83,4.05,4.05,0,0,0-.86-2.78,2.85,2.85,0,0,0-4.29,0A4.09,4.09,0,0,0,318.15,186.47Z"/><path class="cls-4" d="M328.9,189.1l3.26-.5A2.39,2.39,0,0,0,333,190a2.86,2.86,0,0,0,1.78.49,3.21,3.21,0,0,0,1.9-.46,1,1,0,0,0,.43-.87.85.85,0,0,0-.23-.61,2.55,2.55,0,0,0-1.09-.43,17.47,17.47,0,0,1-5-1.58,3.16,3.16,0,0,1-1.46-2.77,3.42,3.42,0,0,1,1.26-2.68,5.88,5.88,0,0,1,3.91-1.09,6.81,6.81,0,0,1,3.75.82,4.22,4.22,0,0,1,1.68,2.43l-3.07.56a1.91,1.91,0,0,0-.75-1.1,2.69,2.69,0,0,0-1.56-.38,3.55,3.55,0,0,0-1.84.36.77.77,0,0,0-.37.66.72.72,0,0,0,.32.59,12.18,12.18,0,0,0,3,.91,9,9,0,0,1,3.62,1.45,3,3,0,0,1,1,2.42,3.71,3.71,0,0,1-1.41,2.9,6.24,6.24,0,0,1-4.17,1.22,6.83,6.83,0,0,1-4-1A4.67,4.67,0,0,1,328.9,189.1Z"/><path class="cls-4" d="M361,192.61h-3v-1.8a4.92,4.92,0,0,1-1.77,1.57,4.54,4.54,0,0,1-2.06.52,4.68,4.68,0,0,1-3.62-1.71,6.94,6.94,0,0,1-1.51-4.76,6.84,6.84,0,0,1,1.47-4.75,4.79,4.79,0,0,1,3.71-1.62,4.59,4.59,0,0,1,3.56,1.71v-6.1H361Zm-8.66-6.41a5.6,5.6,0,0,0,.54,2.85,2.45,2.45,0,0,0,2.19,1.28,2.38,2.38,0,0,0,1.91-1,4.38,4.38,0,0,0,.79-2.85,4.84,4.84,0,0,0-.76-3.05,2.51,2.51,0,0,0-3.89,0A4.15,4.15,0,0,0,352.37,186.2Z"/><path class="cls-4" d="M371.34,188.69l3.24.55a5.31,5.31,0,0,1-2,2.71,5.78,5.78,0,0,1-3.37.93,5.49,5.49,0,0,1-4.75-2.09,7,7,0,0,1-1.21-4.23,6.79,6.79,0,0,1,1.59-4.78,5.26,5.26,0,0,1,4-1.73,5.44,5.44,0,0,1,4.32,1.81q1.59,1.81,1.52,5.54H366.6a3.28,3.28,0,0,0,.79,2.25,2.45,2.45,0,0,0,1.87.8,2,2,0,0,0,1.29-.42A2.58,2.58,0,0,0,371.34,188.69Zm.19-3.28a3.12,3.12,0,0,0-.73-2.15,2.24,2.24,0,0,0-1.69-.74,2.26,2.26,0,0,0-1.76.78,3,3,0,0,0-.68,2.11Z"/><path class="cls-4" d="M89.8,215.49l3.32-.32a4.06,4.06,0,0,0,1.22,2.46,3.69,3.69,0,0,0,2.48.78,3.83,3.83,0,0,0,2.5-.7,2.08,2.08,0,0,0,.84-1.63,1.54,1.54,0,0,0-.35-1,2.8,2.8,0,0,0-1.23-.73c-.4-.14-1.32-.39-2.74-.74A9.28,9.28,0,0,1,92,211.91a4.42,4.42,0,0,1-1.56-3.41,4.35,4.35,0,0,1,.73-2.42,4.61,4.61,0,0,1,2.12-1.72,8.49,8.49,0,0,1,3.33-.59,7.15,7.15,0,0,1,4.8,1.4,5,5,0,0,1,1.69,3.74l-3.42.15a2.9,2.9,0,0,0-.94-1.88,3.44,3.44,0,0,0-2.17-.58,3.9,3.9,0,0,0-2.33.62,1.24,1.24,0,0,0-.54,1.05,1.31,1.31,0,0,0,.51,1,8.92,8.92,0,0,0,3.14,1.14,16.66,16.66,0,0,1,3.69,1.22,4.77,4.77,0,0,1,1.87,1.72,5,5,0,0,1,.68,2.7,5,5,0,0,1-.81,2.73,4.83,4.83,0,0,1-2.28,1.89,9.61,9.61,0,0,1-3.69.62,7.33,7.33,0,0,1-4.93-1.48A6.47,6.47,0,0,1,89.8,215.49Z"/><path class="cls-4" d="M113.54,217.09l3.24.55a5.33,5.33,0,0,1-2,2.71,5.8,5.8,0,0,1-3.37.93,5.5,5.5,0,0,1-4.74-2.09,7,7,0,0,1-1.21-4.23,6.77,6.77,0,0,1,1.6-4.78,5.25,5.25,0,0,1,4-1.73,5.45,5.45,0,0,1,4.32,1.81q1.59,1.81,1.52,5.54H108.8a3.27,3.27,0,0,0,.79,2.25,2.47,2.47,0,0,0,1.88.81,2,2,0,0,0,1.28-.42A2.58,2.58,0,0,0,113.54,217.09Zm.19-3.28a3.12,3.12,0,0,0-.73-2.15,2.35,2.35,0,0,0-3.45,0,3,3,0,0,0-.69,2.11Z"/><path class="cls-4" d="M122.7,221h-3.24V208.73h3v1.74a5.31,5.31,0,0,1,1.4-1.63,2.55,2.55,0,0,1,1.41-.4,4.11,4.11,0,0,1,2.13.61l-1,2.83a2.84,2.84,0,0,0-1.53-.53,1.8,1.8,0,0,0-1.15.38,2.56,2.56,0,0,0-.75,1.36,19.35,19.35,0,0,0-.27,4.12Z"/><path class="cls-4" d="M132.19,221l-4.95-12.28h3.42L133,215l.67,2.09c.18-.53.29-.88.34-1.05.11-.35.22-.69.35-1l2.33-6.27H140L135.11,221Z"/><path class="cls-4" d="M142,207.06v-3h3.24v3ZM142,221V208.73h3.24V221Z"/><path class="cls-4" d="M159.25,212.36l-3.2.57a2.33,2.33,0,0,0-.74-1.45,2.22,2.22,0,0,0-1.49-.49,2.44,2.44,0,0,0-1.94.84,4.3,4.3,0,0,0-.72,2.81,5,5,0,0,0,.73,3.09,2.44,2.44,0,0,0,2,.91,2.2,2.2,0,0,0,1.52-.53,3.16,3.16,0,0,0,.84-1.81l3.19.55a5.65,5.65,0,0,1-1.91,3.31,5.93,5.93,0,0,1-3.78,1.12,5.61,5.61,0,0,1-4.29-1.7,7.76,7.76,0,0,1,0-9.44,5.71,5.71,0,0,1,4.35-1.7,6,6,0,0,1,3.57,1A5.38,5.38,0,0,1,159.25,212.36Z"/><path class="cls-4" d="M161.7,207.06v-3h3.24v3Zm0,13.94V208.73h3.24V221Z"/><path class="cls-4" d="M167.53,214.69a6.67,6.67,0,0,1,.8-3.13,5.46,5.46,0,0,1,2.26-2.31,6.73,6.73,0,0,1,3.27-.8,6.14,6.14,0,0,1,4.57,1.81,6.25,6.25,0,0,1,1.78,4.58,6.33,6.33,0,0,1-1.8,4.62,6.07,6.07,0,0,1-4.53,1.84,7.15,7.15,0,0,1-3.22-.77,5.25,5.25,0,0,1-2.33-2.24A7.48,7.48,0,0,1,167.53,214.69Zm3.32.17a4.09,4.09,0,0,0,.87,2.8,2.85,2.85,0,0,0,4.29,0,4.13,4.13,0,0,0,.86-2.83,4,4,0,0,0-.86-2.78,2.85,2.85,0,0,0-4.29,0A4.09,4.09,0,0,0,170.85,214.87Z"/><path class="cls-4" d="M181.6,217.49l3.26-.49a2.41,2.41,0,0,0,.84,1.44,2.87,2.87,0,0,0,1.78.49,3.22,3.22,0,0,0,1.9-.46,1,1,0,0,0,.43-.87.87.87,0,0,0-.23-.62,2.6,2.6,0,0,0-1.09-.42,17.59,17.59,0,0,1-5-1.59,3.17,3.17,0,0,1-1.45-2.76,3.41,3.41,0,0,1,1.26-2.68,5.87,5.87,0,0,1,3.91-1.09,6.8,6.8,0,0,1,3.74.82,4.23,4.23,0,0,1,1.69,2.43l-3.07.56a1.91,1.91,0,0,0-.75-1.1,2.7,2.7,0,0,0-1.56-.38,3.52,3.52,0,0,0-1.83.36.76.76,0,0,0-.37.66.72.72,0,0,0,.32.59,12.19,12.19,0,0,0,3,.92,9,9,0,0,1,3.62,1.44,3,3,0,0,1,1,2.42,3.73,3.73,0,0,1-1.41,2.9,6.25,6.25,0,0,1-4.17,1.22,6.86,6.86,0,0,1-4-1A4.7,4.7,0,0,1,181.6,217.49Z"/><path class="cls-4" d="M202.51,221V204.06h11.64v2.87h-8.22v4H213v2.87h-7.1V221Z"/><path class="cls-4" d="M216.93,207.06v-3h3.24v3Zm0,13.94V208.73h3.24V221Z"/><path class="cls-4" d="M234.67,221h-3.24v-6.27a9.5,9.5,0,0,0-.21-2.57,1.81,1.81,0,0,0-.68-.91,2,2,0,0,0-1.13-.32,2.63,2.63,0,0,0-1.52.46,2.3,2.3,0,0,0-.92,1.23,10.64,10.64,0,0,0-.25,2.82V221h-3.24V208.73h3v1.8a5,5,0,0,1,6-1.7,3.34,3.34,0,0,1,1.35,1,3.6,3.6,0,0,1,.64,1.36,10.52,10.52,0,0,1,.18,2.19Z"/><path class="cls-4" d="M240.39,212.46l-2.95-.53a4.55,4.55,0,0,1,1.71-2.63,6.28,6.28,0,0,1,3.61-.86A7.75,7.75,0,0,1,246,209a3.23,3.23,0,0,1,1.5,1.31,6.75,6.75,0,0,1,.43,2.91l0,3.79a13.77,13.77,0,0,0,.15,2.39,7.13,7.13,0,0,0,.58,1.65h-3.21c-.09-.22-.19-.54-.32-1-.05-.19-.09-.32-.11-.38a5.84,5.84,0,0,1-1.78,1.22,5.12,5.12,0,0,1-2,.41,4.17,4.17,0,0,1-3-1,3.41,3.41,0,0,1-1.1-2.6,3.46,3.46,0,0,1,.5-1.86,3.24,3.24,0,0,1,1.39-1.25,10.71,10.71,0,0,1,2.59-.76,17.91,17.91,0,0,0,3.17-.8v-.33a1.67,1.67,0,0,0-.47-1.33,2.78,2.78,0,0,0-1.75-.4,1.95,1.95,0,0,0-2.15,1.53Zm4.36,2.64q-.63.21-2,.5a6,6,0,0,0-1.77.57,1.35,1.35,0,0,0-.64,1.14,1.59,1.59,0,0,0,.51,1.18,1.8,1.8,0,0,0,1.3.5,2.84,2.84,0,0,0,1.68-.58,2.07,2.07,0,0,0,.78-1.08,6.57,6.57,0,0,0,.13-1.58Z"/><path class="cls-4" d="M262.29,221H259v-6.27a9.84,9.84,0,0,0-.21-2.57,1.81,1.81,0,0,0-.68-.91,2,2,0,0,0-1.13-.32,2.61,2.61,0,0,0-1.52.46,2.33,2.33,0,0,0-.92,1.23,10.58,10.58,0,0,0-.24,2.82V221H251.1V208.73h3v1.8a5,5,0,0,1,6-1.7,3.3,3.3,0,0,1,1.35,1,3.55,3.55,0,0,1,.64,1.36,10,10,0,0,1,.18,2.19Z"/><path class="cls-4" d="M276.29,212.36l-3.2.57a2.34,2.34,0,0,0-.74-1.45,2.23,2.23,0,0,0-1.49-.49,2.45,2.45,0,0,0-1.95.84,4.32,4.32,0,0,0-.72,2.81,5,5,0,0,0,.74,3.09,2.42,2.42,0,0,0,2,.91,2.19,2.19,0,0,0,1.52-.53,3.16,3.16,0,0,0,.84-1.81l3.19.55a5.65,5.65,0,0,1-1.91,3.31,5.92,5.92,0,0,1-3.78,1.12,5.62,5.62,0,0,1-4.29-1.7,7.76,7.76,0,0,1,0-9.44,5.73,5.73,0,0,1,4.35-1.7,5.93,5.93,0,0,1,3.56,1A5.32,5.32,0,0,1,276.29,212.36Z"/><path class="cls-4" d="M278.74,207.06v-3H282v3Zm0,13.94V208.73H282V221Z"/><path class="cls-4" d="M292.43,217.09l3.24.55a5.3,5.3,0,0,1-2,2.71,5.77,5.77,0,0,1-3.37.93,5.5,5.5,0,0,1-4.74-2.09,7,7,0,0,1-1.21-4.23,6.78,6.78,0,0,1,1.59-4.78,5.25,5.25,0,0,1,4-1.73,5.46,5.46,0,0,1,4.33,1.81q1.58,1.81,1.52,5.54h-8.16a3.27,3.27,0,0,0,.79,2.25,2.46,2.46,0,0,0,1.87.81,2,2,0,0,0,1.29-.42A2.61,2.61,0,0,0,292.43,217.09Zm.18-3.28a3.12,3.12,0,0,0-.73-2.15,2.23,2.23,0,0,0-1.69-.74,2.26,2.26,0,0,0-1.76.78,3,3,0,0,0-.68,2.11Z"/><path class="cls-4" d="M301.58,221h-3.24V208.73h3v1.74a5.33,5.33,0,0,1,1.39-1.63,2.55,2.55,0,0,1,1.41-.4,4.12,4.12,0,0,1,2.14.61l-1,2.83a2.86,2.86,0,0,0-1.53-.53,1.81,1.81,0,0,0-1.16.38,2.61,2.61,0,0,0-.74,1.36,19.08,19.08,0,0,0-.27,4.12Z"/><path class="cls-4" d="M306.94,214.69a6.64,6.64,0,0,1,.79-3.13,5.46,5.46,0,0,1,2.26-2.31,6.73,6.73,0,0,1,3.27-.8,6.14,6.14,0,0,1,4.57,1.81,6.24,6.24,0,0,1,1.78,4.58,6.32,6.32,0,0,1-1.8,4.62,6.07,6.07,0,0,1-4.52,1.84,7.14,7.14,0,0,1-3.22-.77,5.22,5.22,0,0,1-2.34-2.24A7.46,7.46,0,0,1,306.94,214.69Zm3.32.17a4.07,4.07,0,0,0,.87,2.8,2.84,2.84,0,0,0,4.28,0,4.13,4.13,0,0,0,.87-2.83,4,4,0,0,0-.87-2.78,2.84,2.84,0,0,0-4.28,0A4.06,4.06,0,0,0,310.26,214.87Z"/><path class="cls-4" d="M321,217.49l3.26-.49a2.41,2.41,0,0,0,.84,1.44,2.85,2.85,0,0,0,1.78.49,3.19,3.19,0,0,0,1.89-.46,1,1,0,0,0,.43-.87A.86.86,0,0,0,329,217a2.66,2.66,0,0,0-1.09-.42,17.59,17.59,0,0,1-5-1.59,3.16,3.16,0,0,1-1.46-2.76,3.41,3.41,0,0,1,1.26-2.68,5.88,5.88,0,0,1,3.91-1.09,6.81,6.81,0,0,1,3.74.82,4.21,4.21,0,0,1,1.69,2.43l-3.07.56a1.89,1.89,0,0,0-.74-1.1,2.72,2.72,0,0,0-1.56-.38,3.51,3.51,0,0,0-1.83.36.76.76,0,0,0-.37.66.73.73,0,0,0,.32.59,12.11,12.11,0,0,0,3,.92,9,9,0,0,1,3.62,1.44,3,3,0,0,1,1,2.42,3.71,3.71,0,0,1-1.41,2.9,6.26,6.26,0,0,1-4.17,1.22,6.85,6.85,0,0,1-4-1A4.7,4.7,0,0,1,321,217.49Z"/></g></g></svg>