<svg class="h-14" width="5.924" height="7.6051" style="clip-rule:evenodd;fill-rule:evenodd;stroke-linejoin:round;stroke-miterlimit:2" version="1.1" viewBox="0 0 5.924 7.6051" xml:space="preserve" xmlns="http://www.w3.org/2000/svg"><path d="m5.191 2.106c-0.188 0-0.404 0.024-0.618 0.097-0.454 0.158-0.782 0.514-0.973 1.058-0.562 1.606-1.215 2.573-1.995 2.955-0.07 0.034-0.119 0.098-0.134 0.173-0.016 0.076 5e-3 0.154 0.055 0.212 0.376 0.433 0.819 0.764 1.32 0.983 0.064 0.028 0.136 0.028 0.199 1e-3 2.024-0.875 2.652-3.294 2.823-5.169 0.012-0.134-0.098-0.255-0.231-0.27l-0.046-6e-3c-0.095-0.017-0.233-0.033-0.393-0.034z" style="fill-rule:nonzero;fill:url(#_Linear1)"/><path d="m5.555 2.442-0.57 0.433-2.792 4.336c0.204 0.147 0.423 0.272 0.653 0.373 0.029 0.013 0.059 0.02 0.088 0.021h0.022c0.031-1e-3 0.061-8e-3 0.089-0.02 2.024-0.875 2.652-3.294 2.823-5.169 5e-3 -0.057-0.012-0.111-0.042-0.155z" style="fill-rule:nonzero;fill:url(#_Linear2)"/><path d="m5.55 0.75501c-0.57 0-1.018 0.067-1.44 0.351-0.485 0.325-0.871 0.898-1.253 1.858-0.517 1.297-1.567 1.305-2.147 1.193-0.085-0.016-0.172 0.014-0.231 0.078-0.058 0.064-0.078 0.154-0.053 0.237 0.171 0.579 0.395 1.095 0.665 1.533 0.063 0.102 0.19 0.144 0.302 0.101 0.789-0.308 1.455-1.259 2.031-2.906 0.211-0.601 0.577-0.995 1.089-1.173 0.438-0.151 0.883-0.109 1.11-0.07 0.07 0.012 0.142-7e-3 0.198-0.052 0.055-0.045 0.088-0.112 0.092-0.183 9e-3 -0.24 0.013-0.483 0.01-0.721-1e-3 -0.133-0.11-0.242-0.244-0.245z" style="fill-rule:nonzero;fill:url(#_Linear3)"/><path d="m3.263 2.785c-0.117 0.202-0.094 0.481-0.584 1.224-0.417 0.632-1.619 1.122-1.969 1.254v1e-3c0.114 0.266 0.242 0.514 0.381 0.741 0.063 0.102 0.19 0.144 0.302 0.101 0.789-0.308 1.455-1.259 2.031-2.906 0.211-0.601 0.577-0.995 1.089-1.173 0.438-0.151 0.883-0.109 1.11-0.07 0.07 0.012 0.142-7e-3 0.198-0.052 0.055-0.045 0.088-0.112 0.092-0.183 4e-3 -0.11 7e-3 -0.22 9e-3 -0.331v-9e-3c-0.109-0.012-0.214-0.018-0.316-0.019l-0.071-1e-3c-1.608 0.014-2.165 1.241-2.272 1.423z" style="fill-rule:nonzero;fill:url(#_Linear4)"/><path d="m0.479 4.235c-0.058 0.064-0.078 0.154-0.053 0.237 0.171 0.579 0.395 1.095 0.665 1.533 0.04 0.064 0.105 0.105 0.177 0.115l0.044-0.272-0.022-0.852-0.615-0.581-0.193-0.183z" style="fill-rule:nonzero;fill:url(#_Linear5)"/><path d="m5.659 1.027-6e-3 0.672 0.167 0.207 1e-3 -1e-3c0.055-0.045 0.088-0.112 0.092-0.183 9e-3 -0.24 0.013-0.483 0.01-0.721-1e-3 -0.066-0.027-0.125-0.071-0.17z" style="fill-rule:nonzero;fill:url(#_Linear6)"/><path d="m0.287 7.6621e-6c-0.127 0-0.234 0.096-0.247 0.223-2e-3 0.03-0.034 0.364-0.039 0.878l-1e-3 0.181c3e-3 0.623 0.048 1.457 0.216 2.326 0.013 0.065 0.052 0.124 0.109 0.161 0.16 0.104 0.285 0.175 0.41 0.203 0.909 0.211 1.584-0.161 1.949-1.078 0.397-0.996 0.804-1.595 1.322-1.943 0.486-0.326 1.007-0.389 1.639-0.381 0.07 1e-3 0.137-0.027 0.184-0.079 0.048-0.051 0.072-0.119 0.066-0.188l-5e-3 -0.065c-0.011-0.128-0.118-0.224-0.246-0.224l-2.544-7e-3z" style="fill-rule:nonzero;fill:url(#_Linear7)"/><clipPath id="_clip8"><path d="m1.714 10.07 5.924 0.015 0.02-7.599-5.924-0.016z" clip-rule="nonzero"/></clipPath><g transform="translate(-1.731 -2.472)" clip-path="url(#_clip8)"><path d="m7.625 2.763-4e-3 -0.052c-0.011-0.129-0.118-0.225-0.247-0.225l-5.355-0.014c-0.128-1e-3 -0.235 0.096-0.248 0.223-4e-3 0.046-0.076 0.803-0.015 1.831 0.691-0.455 3.1-1.891 5.869-1.763" style="fill-rule:nonzero;fill:#eae1b1"/></g><path d="m0.133 0.053008c-0.051 0.04-0.085 0.101-0.093 0.17-2e-3 0.03-0.034 0.363-0.039 0.876l-1e-3 0.179c3e-3 0.623 0.048 1.459 0.216 2.33 6e-3 0.028 0.016 0.056 0.032 0.08l0.27-0.183-0.148-3.184-0.236-0.268z" style="fill-rule:nonzero;fill:url(#_Linear9)"/><path d="m5.895 0.30301-5e-3 -0.064c-6e-3 -0.067-0.037-0.126-0.085-0.166l-0.162 0.189 5e-3 0.06 0.149 0.199c0.011-9e-3 0.022-0.018 0.032-0.029 0.048-0.051 0.072-0.119 0.066-0.189" style="fill-rule:nonzero;fill:#b7ac37"/><path d="m0.46 3.56c0.123 0.08 0.237 0.149 0.331 0.171 0.82 0.19 1.356-0.16 1.662-0.928 0.418-1.046 0.853-1.681 1.414-2.058 0.536-0.359 1.101-0.431 1.781-0.424l-5e-3 -0.059-5.356-0.014c-1e-3 0.017-0.156 1.608 0.173 3.312zm4.732-1.206c-0.165 0-0.353 0.02-0.537 0.084-0.385 0.133-0.654 0.43-0.82 0.906-0.585 1.667-1.28 2.682-2.121 3.095 0.332 0.383 0.738 0.701 1.233 0.918 1.925-0.833 2.512-3.193 2.674-4.964-0.024-2e-3 -0.047-4e-3 -0.071-8e-3 -0.086-0.015-0.211-0.031-0.354-0.031z" style="fill-rule:nonzero;fill:url(#_Linear10)"/><path d="m5.545 1.004c-1.038 0-1.731 0.228-2.458 2.051-0.599 1.506-1.864 1.454-2.423 1.347 0.153 0.516 0.36 1.021 0.639 1.473 0.625-0.244 1.281-1.026 1.888-2.757 0.548-1.567 1.936-1.498 2.474-1.406 0.01-0.263 0.012-0.503 0.01-0.707z" style="fill-rule:nonzero;fill:url(#_Linear11)"/><defs><linearGradient id="_Linear1" x2="1" gradientTransform="matrix(3.8791 -4.6632 4.6632 3.8791 2.1338 7.0573)" gradientUnits="userSpaceOnUse"><stop style="stop-color:#6e5e2c" offset="0"/><stop style="stop-color:#b6aa35" offset=".34"/><stop style="stop-color:#867131" offset=".72"/><stop style="stop-color:#8f8b3d" offset="1"/></linearGradient><linearGradient id="_Linear2" x2="1" gradientTransform="matrix(-.012445 4.7563 -4.7563 -.012445 4.0356 2.852)" gradientUnits="userSpaceOnUse"><stop style="stop-color:#65582a" offset="0"/><stop style="stop-color:#b6aa35" offset=".34"/><stop style="stop-color:#6b6d35" offset="1"/></linearGradient><linearGradient id="_Linear3" x2="1" gradientTransform="matrix(4.4562 -3.9379 3.9379 4.4562 1.2128 5.0005)" gradientUnits="userSpaceOnUse"><stop style="stop-color:#b9cad8" offset="0"/><stop style="stop-color:#648fbb" offset=".47"/><stop style="stop-color:#6a91bd" offset=".5"/><stop style="stop-color:#b0c2d5" offset=".69"/><stop style="stop-color:#b9cad8" offset="1"/></linearGradient><linearGradient id="_Linear4" x2="1" gradientTransform="matrix(.012485 -4.7716 4.7716 .012485 3.3084 6.1284)" gradientUnits="userSpaceOnUse"><stop style="stop-color:#0b6397" offset="0"/><stop style="stop-color:#86a6cc" offset="1"/></linearGradient><linearGradient id="_Linear5" x2="1" gradientTransform="matrix(-.78553 -1.8885 1.8885 -.78553 1.3906 6.0695)" gradientUnits="userSpaceOnUse"><stop style="stop-color:#0b6397" offset="0"/><stop style="stop-color:#86a6cc" offset="1"/></linearGradient><linearGradient id="_Linear6" x2="1" gradientTransform="matrix(.0028123 -1.0749 1.0749 .0028123 5.7873 1.9059)" gradientUnits="userSpaceOnUse"><stop style="stop-color:#b9cad8" offset="0"/><stop style="stop-color:#628dbb" offset="1"/></linearGradient><linearGradient id="_Linear7" x2="1" gradientTransform="matrix(.01054 -4.0283 4.0283 .01054 2.9398 4.0348)" gradientUnits="userSpaceOnUse"><stop style="stop-color:#6e5e2c" offset="0"/><stop style="stop-color:#b6aa35" offset=".34"/><stop style="stop-color:#867131" offset=".72"/><stop style="stop-color:#8f8b3d" offset="1"/></linearGradient><linearGradient id="_Linear9" x2="1" gradientTransform="matrix(.0097262 -3.7173 3.7173 .0097262 .25622 3.6551)" gradientUnits="userSpaceOnUse"><stop style="stop-color:#6e5e2c" offset="0"/><stop style="stop-color:#b6aa35" offset=".34"/><stop style="stop-color:#867131" offset=".72"/><stop style="stop-color:#8f8b3d" offset="1"/></linearGradient><linearGradient id="_Linear10" x2="1" gradientTransform="matrix(.030043 -11.482 11.482 .030043 2.9313 7.3878)" gradientUnits="userSpaceOnUse"><stop style="stop-color:#f4ea97" offset="0"/><stop style="stop-color:#8f7236" offset=".78"/><stop style="stop-color:#866529" offset="1"/></linearGradient><linearGradient id="_Linear11" x2="1" gradientTransform="matrix(8.307 -5.7681 5.7681 8.307 -.51612 5.9037)" gradientUnits="userSpaceOnUse"><stop style="stop-color:#5e8cb9" offset="0"/><stop style="stop-color:#2268a6" offset=".5"/><stop style="stop-color:#86a6cc" offset="1"/></linearGradient></defs></svg>
