<?xml version="1.0" encoding="UTF-8" standalone="no"?><!DOCTYPE svg PUBLIC "-//W3C//DTD SVG 1.1//EN" "http://www.w3.org/Graphics/SVG/1.1/DTD/svg11.dtd"><svg width="100%" height="100%" viewBox="0 0 184 33" version="1.1" xmlns="http://www.w3.org/2000/svg" xmlns:xlink="http://www.w3.org/1999/xlink" xml:space="preserve" xmlns:serif="http://www.serif.com/" style="fill-rule:evenodd;clip-rule:evenodd;stroke-linejoin:round;stroke-miterlimit:2;"><g><path d="M36.548,14.745c-0.122,-0.495 -0.327,-0.891 -0.615,-1.188c-0.288,-0.297 -0.645,-0.446 -1.069,-0.447c-0.351,-0.001 -0.631,0.09 -0.841,0.272c-0.209,0.183 -0.315,0.415 -0.316,0.696c-0,0.22 0.075,0.411 0.225,0.573c0.151,0.163 0.376,0.308 0.677,0.438c0.375,0.159 0.716,0.293 1.023,0.401c0.308,0.108 0.571,0.232 0.789,0.373c0.218,0.141 0.387,0.319 0.506,0.532c0.119,0.215 0.179,0.506 0.178,0.871c-0.001,0.227 -0.037,0.45 -0.108,0.669c-0.072,0.22 -0.182,0.417 -0.33,0.591c-0.148,0.173 -0.34,0.313 -0.577,0.42c-0.237,0.105 -0.522,0.159 -0.855,0.158c-0.215,-0 -0.401,-0.017 -0.558,-0.048c-0.156,-0.031 -0.289,-0.068 -0.396,-0.11c-0.108,-0.043 -0.192,-0.087 -0.253,-0.129c-0.062,-0.043 -0.105,-0.074 -0.129,-0.092c-0.117,0.085 -0.235,0.161 -0.352,0.228c-0.117,0.066 -0.234,0.115 -0.351,0.145c-0.067,-0.464 -0.116,-0.875 -0.149,-1.233c-0.033,-0.357 -0.049,-0.67 -0.048,-0.939l0.304,0.001c-0.001,0.269 0.054,0.515 0.165,0.738c0.11,0.223 0.251,0.414 0.422,0.574c0.172,0.159 0.366,0.283 0.581,0.372c0.215,0.09 0.424,0.134 0.627,0.135c0.129,0 0.272,-0.021 0.43,-0.063c0.156,-0.042 0.304,-0.109 0.443,-0.2c0.138,-0.091 0.256,-0.207 0.351,-0.347c0.096,-0.14 0.144,-0.308 0.145,-0.503c0.001,-0.243 -0.065,-0.457 -0.197,-0.641c-0.132,-0.183 -0.342,-0.327 -0.631,-0.431c-0.338,-0.123 -0.662,-0.237 -0.973,-0.341c-0.31,-0.105 -0.583,-0.229 -0.82,-0.373c-0.237,-0.144 -0.425,-0.324 -0.566,-0.541c-0.141,-0.217 -0.211,-0.503 -0.21,-0.856c0.001,-0.256 0.047,-0.488 0.14,-0.695c0.093,-0.207 0.218,-0.385 0.375,-0.535c0.158,-0.148 0.341,-0.264 0.55,-0.346c0.209,-0.082 0.428,-0.122 0.656,-0.122c0.264,0.001 0.49,0.049 0.678,0.145c0.187,0.094 0.361,0.179 0.521,0.252c0.19,-0.151 0.391,-0.258 0.6,-0.318c0.086,0.281 0.147,0.579 0.182,0.893c0.036,0.315 0.054,0.655 0.053,1.022l-0.277,-0.001Z" style="fill:#fff;fill-rule:nonzero;"/><path d="M40.031,13.187c-0.258,-0 -0.387,0.162 -0.388,0.485l-0.006,2.208c0.153,0.032 0.323,0.056 0.507,0.075c0.184,0.02 0.391,0.029 0.618,0.029c0.203,0.001 0.377,-0.037 0.522,-0.113c0.145,-0.076 0.265,-0.177 0.361,-0.302c0.095,-0.124 0.165,-0.268 0.208,-0.434c0.044,-0.165 0.066,-0.336 0.066,-0.513c0.003,-0.953 -0.547,-1.431 -1.648,-1.434l-0.24,-0.001Zm-2.156,5.786l0.001,-0.275c0.56,0.002 0.84,-0.217 0.842,-0.658l0.011,-4.306c0.001,-0.366 -0.291,-0.551 -0.876,-0.552l0.001,-0.284l1.541,0.004c0.203,0 0.362,-0.001 0.475,-0.003c0.114,-0.003 0.216,-0.006 0.305,-0.009l0.268,-0.008c0.089,-0.003 0.211,-0.005 0.364,-0.004c1.379,0.003 2.066,0.598 2.063,1.783c-0.001,0.232 -0.043,0.449 -0.126,0.651c-0.084,0.201 -0.212,0.377 -0.385,0.53c-0.172,0.152 -0.391,0.271 -0.656,0.356c-0.265,0.085 -0.579,0.127 -0.942,0.125c-0.196,0 -0.388,-0.008 -0.576,-0.024c-0.188,-0.016 -0.371,-0.042 -0.549,-0.079l-0.005,1.786c-0.001,0.465 0.303,0.698 0.912,0.699l-0.001,0.275l-2.667,-0.007Z" style="fill:#fff;fill-rule:nonzero;"/><path d="M45.743,13.203c-0.258,-0.001 -0.387,0.161 -0.388,0.485l-0.006,2.207c0.154,0.032 0.323,0.056 0.507,0.075c0.184,0.019 0.391,0.029 0.618,0.029c0.203,0.001 0.377,-0.037 0.522,-0.113c0.145,-0.076 0.265,-0.176 0.361,-0.301c0.095,-0.125 0.165,-0.27 0.208,-0.436c0.044,-0.164 0.066,-0.334 0.066,-0.512c0.003,-0.952 -0.547,-1.431 -1.648,-1.434l-0.24,-0Zm-2.156,5.785l0.001,-0.275c0.56,0.001 0.84,-0.218 0.842,-0.657l0.011,-4.307c0.001,-0.367 -0.291,-0.55 -0.876,-0.552l0.001,-0.284l1.541,0.004c0.203,0 0.362,-0.001 0.475,-0.003c0.114,-0.003 0.216,-0.006 0.305,-0.009c0.089,-0.003 0.179,-0.005 0.268,-0.008c0.089,-0.003 0.211,-0.004 0.364,-0.004c1.379,0.004 2.066,0.598 2.063,1.783c-0.001,0.232 -0.043,0.449 -0.126,0.65c-0.084,0.202 -0.212,0.379 -0.385,0.531c-0.172,0.152 -0.391,0.271 -0.656,0.356c-0.265,0.085 -0.579,0.127 -0.942,0.125c-0.196,-0 -0.388,-0.008 -0.576,-0.024c-0.188,-0.016 -0.371,-0.042 -0.549,-0.079l-0.005,1.786c-0.001,0.465 0.303,0.697 0.912,0.699l-0.001,0.275l-2.667,-0.007Z" style="fill:#fff;fill-rule:nonzero;"/><path d="M51.975,19.01l0.001,-0.274c0.585,0.001 0.877,-0.209 0.878,-0.632l0.011,-4.084c0.002,-0.538 -0.302,-0.809 -0.911,-0.81l0,-0.275l2.677,0.007l-0.001,0.275c-0.566,-0.002 -0.85,0.267 -0.851,0.805l-0.011,4.085c-0.001,0.422 0.294,0.634 0.884,0.635l-0.001,0.275l-2.676,-0.007Z" style="fill:#fff;fill-rule:nonzero;"/><path d="M57.807,19.025l0.001,-0.274c0.4,0.001 0.601,-0.127 0.601,-0.384l0.004,-1.503c0.002,-0.836 -0.298,-1.256 -0.901,-1.257c-0.615,-0.002 -0.924,0.37 -0.926,1.115l-0.004,1.64c-0.001,0.257 0.221,0.386 0.664,0.387l-0.001,0.275l-1.957,-0.006l0.001,-0.274c0.345,0.001 0.518,-0.139 0.518,-0.42l0.006,-2.337c0.001,-0.213 -0.165,-0.321 -0.498,-0.322l-0.129,-0l0.001,-0.238l1.33,-0.317c0.024,0.024 0.036,0.085 0.036,0.183l-0.001,0.55c0.049,-0.092 0.112,-0.182 0.189,-0.27c0.078,-0.088 0.173,-0.166 0.287,-0.233c0.114,-0.067 0.248,-0.122 0.402,-0.164c0.154,-0.042 0.329,-0.064 0.526,-0.063c0.111,0.001 0.237,0.023 0.378,0.07c0.142,0.046 0.277,0.119 0.406,0.221c0.129,0.101 0.236,0.231 0.322,0.39c0.086,0.159 0.128,0.351 0.128,0.578l-0.006,2.025c-0.001,0.238 0.199,0.358 0.599,0.359l-0.001,0.275l-1.975,-0.006Z" style="fill:#fff;fill-rule:nonzero;"/><path d="M62.641,16.344c-0.282,-0.63 -0.656,-0.946 -1.124,-0.947c-0.19,-0 -0.357,0.045 -0.498,0.137c-0.142,0.091 -0.213,0.244 -0.214,0.459c0,0.122 0.057,0.226 0.17,0.313c0.114,0.086 0.255,0.165 0.424,0.239c0.169,0.074 0.352,0.148 0.548,0.222c0.197,0.074 0.38,0.162 0.549,0.263c0.169,0.102 0.31,0.223 0.423,0.364c0.114,0.142 0.17,0.316 0.17,0.524c-0.001,0.184 -0.035,0.35 -0.103,0.496c-0.068,0.147 -0.162,0.272 -0.282,0.376c-0.121,0.103 -0.259,0.188 -0.416,0.252c-0.158,0.063 -0.322,0.107 -0.495,0.131c-0.307,-0 -0.581,-0.081 -0.82,-0.24c-0.136,0.103 -0.32,0.17 -0.554,0.2c-0.098,-0.446 -0.145,-0.923 -0.144,-1.43l0.249,0.001c0.067,0.22 0.141,0.405 0.22,0.555c0.079,0.149 0.168,0.269 0.267,0.357c0.098,0.089 0.208,0.152 0.331,0.189c0.123,0.037 0.262,0.056 0.416,0.056c0.51,0.002 0.766,-0.196 0.767,-0.593c0,-0.116 -0.019,-0.216 -0.059,-0.298c-0.04,-0.082 -0.101,-0.153 -0.184,-0.211c-0.083,-0.058 -0.186,-0.114 -0.309,-0.166c-0.123,-0.052 -0.267,-0.106 -0.433,-0.161c-0.129,-0.043 -0.268,-0.097 -0.415,-0.162c-0.148,-0.064 -0.284,-0.142 -0.41,-0.234c-0.126,-0.093 -0.23,-0.201 -0.313,-0.326c-0.083,-0.126 -0.124,-0.271 -0.124,-0.436c0.001,-0.165 0.026,-0.317 0.075,-0.458c0.05,-0.14 0.126,-0.262 0.228,-0.366c0.101,-0.104 0.232,-0.184 0.393,-0.242c0.159,-0.058 0.351,-0.086 0.572,-0.085c0.264,0 0.522,0.074 0.775,0.221c0.098,-0.078 0.218,-0.139 0.359,-0.182c0.11,0.416 0.165,0.81 0.164,1.182l-0.203,-0Z" style="fill:#fff;fill-rule:nonzero;"/><path d="M66.023,18.112c-0.037,0.159 -0.084,0.304 -0.14,0.435c-0.055,0.131 -0.13,0.244 -0.222,0.339c-0.093,0.094 -0.208,0.167 -0.347,0.219c-0.139,0.051 -0.303,0.077 -0.493,0.076c-0.302,-0 -0.54,-0.074 -0.715,-0.217c-0.175,-0.144 -0.262,-0.375 -0.261,-0.692l0.007,-2.612l-0.601,-0.001l0.038,-0.275c0.284,-0.055 0.511,-0.214 0.684,-0.48c0.173,-0.265 0.297,-0.572 0.372,-0.919l0.286,-0.036l-0.004,1.355l0.729,0.002c0.087,0.001 0.165,-0.006 0.236,-0.019c0.071,-0.013 0.134,-0.028 0.189,-0.043l-0.001,0.421l-1.154,-0.003l-0.006,2.41c0,0.073 0.003,0.145 0.009,0.216c0.006,0.07 0.023,0.135 0.05,0.197c0.028,0.06 0.072,0.11 0.134,0.147c0.061,0.036 0.147,0.055 0.258,0.055c0.178,0.001 0.339,-0.06 0.481,-0.182c0.141,-0.121 0.227,-0.277 0.259,-0.467l0.212,0.074Z" style="fill:#fff;fill-rule:nonzero;"/><path d="M67.159,14.129c-0.326,-0 -0.489,-0.187 -0.488,-0.56c0.001,-0.348 0.177,-0.522 0.528,-0.52c0.332,0 0.498,0.174 0.497,0.523c-0.001,0.372 -0.18,0.558 -0.537,0.557m-0.973,4.919l0.001,-0.276c0.425,0.002 0.637,-0.184 0.638,-0.557l0.005,-1.823c0.001,-0.483 -0.186,-0.725 -0.561,-0.726l0.001,-0.247l1.339,-0.281l-0.008,3.116c-0.001,0.348 0.232,0.523 0.7,0.524l-0.001,0.275l-2.114,-0.005Z" style="fill:#fff;fill-rule:nonzero;"/><path d="M71.292,18.126c-0.037,0.159 -0.084,0.304 -0.14,0.435c-0.055,0.131 -0.13,0.244 -0.222,0.339c-0.093,0.094 -0.208,0.167 -0.347,0.219c-0.139,0.051 -0.303,0.077 -0.493,0.076c-0.302,-0.001 -0.54,-0.074 -0.715,-0.217c-0.175,-0.144 -0.262,-0.375 -0.261,-0.692l0.007,-2.612l-0.6,-0.002l0.037,-0.275c0.284,-0.054 0.511,-0.213 0.684,-0.479c0.173,-0.265 0.297,-0.572 0.372,-0.92l0.286,-0.036l-0.003,1.356l0.728,0.002c0.087,0.001 0.165,-0.006 0.236,-0.019c0.071,-0.013 0.134,-0.028 0.189,-0.044l-0.001,0.422l-1.153,-0.003l-0.007,2.41c0,0.073 0.003,0.145 0.009,0.215c0.006,0.071 0.023,0.136 0.05,0.197c0.028,0.061 0.073,0.111 0.134,0.147c0.061,0.036 0.147,0.056 0.258,0.056c0.178,0 0.339,-0.06 0.481,-0.182c0.141,-0.122 0.227,-0.278 0.259,-0.467l0.212,0.074Z" style="fill:#fff;fill-rule:nonzero;"/><path d="M74.556,19.106c-0.019,-0.043 -0.027,-0.126 -0.027,-0.247l0.001,-0.349c-0.062,0.104 -0.13,0.196 -0.204,0.279c-0.074,0.082 -0.162,0.151 -0.264,0.205c-0.101,0.056 -0.22,0.098 -0.355,0.128c-0.136,0.03 -0.295,0.045 -0.48,0.045c-0.234,-0.001 -0.433,-0.023 -0.6,-0.066c-0.166,-0.043 -0.301,-0.118 -0.405,-0.226c-0.104,-0.106 -0.179,-0.251 -0.225,-0.431c-0.046,-0.18 -0.068,-0.405 -0.067,-0.674l0.004,-1.851c0.001,-0.207 -0.199,-0.311 -0.599,-0.313l-0.036,-0.238l1.412,-0.106l-0.006,2.336c-0,0.147 0.004,0.288 0.013,0.422c0.009,0.134 0.036,0.252 0.081,0.353c0.046,0.101 0.121,0.182 0.225,0.244c0.104,0.061 0.254,0.092 0.449,0.092c0.496,0.002 0.837,-0.309 1.022,-0.932l0.005,-1.851c0,-0.208 -0.221,-0.312 -0.664,-0.313l-0.036,-0.238l1.477,-0.106l-0.008,3.069c-0.001,0.208 0.208,0.325 0.626,0.35l0.073,0.248l-1.412,0.17Z" style="fill:#fff;fill-rule:nonzero;"/><path d="M79.624,18.313c-0.062,0.164 -0.151,0.306 -0.268,0.425c-0.118,0.119 -0.248,0.217 -0.393,0.293c-0.145,0.075 -0.298,0.132 -0.457,0.168c-0.161,0.035 -0.314,0.054 -0.462,0.053c-0.271,-0 -0.514,-0.051 -0.729,-0.152c-0.215,-0.102 -0.396,-0.241 -0.543,-0.419c-0.147,-0.177 -0.259,-0.386 -0.335,-0.624c-0.077,-0.238 -0.115,-0.495 -0.114,-0.77c0.001,-0.287 0.043,-0.559 0.127,-0.815c0.084,-0.257 0.211,-0.482 0.38,-0.677c0.17,-0.195 0.383,-0.349 0.638,-0.461c0.256,-0.113 0.556,-0.169 0.9,-0.167c0.148,-0 0.294,0.022 0.439,0.065c0.144,0.043 0.273,0.103 0.387,0.18c0.113,0.077 0.204,0.17 0.271,0.279c0.068,0.111 0.101,0.23 0.101,0.358c-0,0.123 -0.053,0.228 -0.158,0.316c-0.105,0.088 -0.219,0.133 -0.342,0.132c-0.252,-0.001 -0.378,-0.14 -0.377,-0.417c-0,-0.018 0.005,-0.058 0.014,-0.12c0.01,-0.061 0.014,-0.117 0.015,-0.167c-0,-0.123 -0.057,-0.212 -0.17,-0.267c-0.114,-0.057 -0.233,-0.085 -0.356,-0.085c-0.178,-0 -0.33,0.047 -0.457,0.142c-0.126,0.094 -0.231,0.216 -0.315,0.366c-0.083,0.15 -0.145,0.316 -0.186,0.501c-0.04,0.183 -0.06,0.36 -0.061,0.532c-0,0.245 0.023,0.473 0.072,0.685c0.049,0.212 0.122,0.395 0.22,0.552c0.098,0.156 0.224,0.279 0.378,0.368c0.153,0.089 0.338,0.134 0.553,0.135c0.412,0.001 0.742,-0.181 0.989,-0.547l0.239,0.138Z" style="fill:#fff;fill-rule:nonzero;"/><path d="M80.909,14.166c-0.327,-0.002 -0.489,-0.188 -0.488,-0.561c0.001,-0.348 0.177,-0.522 0.527,-0.521c0.333,0.001 0.499,0.176 0.498,0.524c-0.001,0.373 -0.18,0.558 -0.537,0.558m-0.973,4.917l0.001,-0.274c0.424,0 0.637,-0.185 0.638,-0.558l0.005,-1.823c0.001,-0.483 -0.186,-0.725 -0.561,-0.725l0,-0.248l1.339,-0.281l-0.008,3.116c-0.001,0.348 0.232,0.523 0.7,0.524l-0.001,0.275l-2.113,-0.006Z" style="fill:#fff;fill-rule:nonzero;"/><path d="M83.677,14.264c0.154,-0.085 0.302,-0.185 0.443,-0.301c0.142,-0.116 0.282,-0.225 0.421,-0.329c0.139,-0.103 0.276,-0.191 0.411,-0.264c0.136,-0.073 0.269,-0.11 0.398,-0.11c0.16,0.001 0.264,0.041 0.313,0.121c0.049,0.079 0.074,0.159 0.073,0.238c-0,0.116 -0.077,0.216 -0.231,0.297c-0.154,0.082 -0.334,0.157 -0.541,0.223c-0.206,0.067 -0.415,0.129 -0.628,0.187c-0.212,0.057 -0.377,0.119 -0.494,0.186l-0.165,-0.248Zm0.772,4.685c0.24,0 0.429,-0.053 0.568,-0.159c0.139,-0.106 0.245,-0.232 0.319,-0.378c0.074,-0.146 0.122,-0.298 0.145,-0.457c0.021,-0.158 0.033,-0.289 0.033,-0.393c0,-0.201 -0.012,-0.422 -0.035,-0.662c-0.024,-0.241 -0.074,-0.464 -0.151,-0.668c-0.076,-0.204 -0.187,-0.377 -0.331,-0.517c-0.144,-0.141 -0.336,-0.211 -0.576,-0.212c-0.246,-0.001 -0.44,0.052 -0.582,0.159c-0.142,0.106 -0.249,0.232 -0.324,0.378c-0.074,0.146 -0.122,0.298 -0.144,0.456c-0.022,0.159 -0.033,0.29 -0.033,0.393c-0.001,0.202 0.011,0.422 0.035,0.663c0.024,0.241 0.074,0.464 0.15,0.667c0.077,0.205 0.189,0.377 0.336,0.518c0.147,0.141 0.344,0.211 0.59,0.212m-0.038,0.321c-0.289,-0.002 -0.554,-0.056 -0.793,-0.163c-0.24,-0.107 -0.444,-0.252 -0.612,-0.433c-0.169,-0.18 -0.299,-0.391 -0.391,-0.633c-0.092,-0.241 -0.137,-0.497 -0.137,-0.765c0.001,-0.318 0.054,-0.606 0.16,-0.866c0.105,-0.259 0.247,-0.48 0.426,-0.663c0.178,-0.183 0.388,-0.323 0.628,-0.42c0.241,-0.097 0.496,-0.145 0.767,-0.144c0.277,0 0.532,0.054 0.765,0.162c0.234,0.107 0.435,0.252 0.604,0.432c0.168,0.181 0.299,0.391 0.39,0.633c0.092,0.242 0.137,0.497 0.136,0.766c-0.001,0.324 -0.054,0.615 -0.158,0.874c-0.106,0.26 -0.248,0.479 -0.427,0.659c-0.179,0.18 -0.386,0.318 -0.619,0.416c-0.234,0.096 -0.481,0.145 -0.739,0.145" style="fill:#fff;fill-rule:nonzero;"/><path d="M89.293,19.108l0.001,-0.275c0.4,0.002 0.6,-0.127 0.601,-0.384l0.004,-1.502c0.002,-0.837 -0.299,-1.256 -0.901,-1.258c-0.615,-0.001 -0.924,0.37 -0.926,1.116l-0.004,1.64c-0.001,0.256 0.22,0.385 0.663,0.387l-0.001,0.274l-1.956,-0.005l0.001,-0.275c0.344,0.001 0.517,-0.138 0.518,-0.419l0.006,-2.337c0,-0.214 -0.165,-0.321 -0.498,-0.322l-0.129,-0.001l0.001,-0.238l1.329,-0.317c0.025,0.024 0.037,0.086 0.037,0.183l-0.002,0.55c0.05,-0.092 0.113,-0.182 0.19,-0.27c0.077,-0.088 0.173,-0.166 0.287,-0.233c0.114,-0.066 0.248,-0.122 0.402,-0.164c0.153,-0.042 0.329,-0.063 0.526,-0.062c0.111,-0 0.237,0.023 0.378,0.07c0.141,0.045 0.277,0.119 0.406,0.221c0.128,0.1 0.236,0.231 0.321,0.39c0.086,0.159 0.129,0.351 0.129,0.577l-0.006,2.026c-0.001,0.238 0.199,0.357 0.599,0.358l-0.001,0.275l-1.975,-0.005Z" style="fill:#fff;fill-rule:nonzero;"/><path d="M96.344,18.833c0.203,0.001 0.366,-0.035 0.489,-0.109c0.123,-0.073 0.219,-0.18 0.287,-0.324c0.068,-0.144 0.115,-0.318 0.14,-0.522c0.025,-0.205 0.038,-0.439 0.039,-0.701c0.002,-1.069 -0.346,-1.604 -1.048,-1.606c-0.178,-0.001 -0.334,0.043 -0.466,0.132c-0.133,0.088 -0.242,0.203 -0.329,0.347c-0.086,0.143 -0.152,0.304 -0.195,0.481c-0.043,0.176 -0.066,0.354 -0.066,0.531c-0.001,0.214 0.019,0.424 0.059,0.632c0.039,0.208 0.103,0.397 0.192,0.569c0.089,0.171 0.206,0.309 0.354,0.413c0.147,0.104 0.329,0.156 0.544,0.157m2.325,0.226c-0.099,0.024 -0.257,0.047 -0.476,0.068c-0.218,0.021 -0.494,0.055 -0.826,0.103l-0.1,-0.596c-0.111,0.201 -0.272,0.361 -0.481,0.479c-0.209,0.12 -0.449,0.178 -0.72,0.177c-0.228,-0 -0.445,-0.039 -0.65,-0.116c-0.206,-0.076 -0.386,-0.194 -0.539,-0.349c-0.154,-0.156 -0.276,-0.355 -0.368,-0.597c-0.092,-0.242 -0.137,-0.527 -0.136,-0.857c0.001,-0.305 0.051,-0.591 0.15,-0.856c0.099,-0.266 0.235,-0.495 0.408,-0.687c0.172,-0.191 0.377,-0.342 0.615,-0.451c0.237,-0.11 0.494,-0.164 0.771,-0.163c0.221,0 0.413,0.045 0.576,0.134c0.163,0.089 0.29,0.185 0.382,0.289l0.005,-1.988c0.001,-0.207 -0.236,-0.312 -0.71,-0.313l0.001,-0.284l1.478,-0.235c0.011,0.226 0.02,0.489 0.025,0.788c0.005,0.3 0.008,0.617 0.007,0.953l-0.009,3.455c-0.001,0.513 0.21,0.783 0.634,0.808l-0.037,0.238Z" style="fill:#fff;fill-rule:nonzero;"/><path d="M101.129,16.802c0.253,0.001 0.379,-0.127 0.38,-0.383c-0.018,-0.233 -0.096,-0.436 -0.234,-0.61c-0.138,-0.175 -0.339,-0.263 -0.604,-0.263c-0.141,-0.001 -0.27,0.031 -0.388,0.095c-0.117,0.063 -0.217,0.149 -0.3,0.256c-0.083,0.106 -0.147,0.228 -0.19,0.366c-0.044,0.137 -0.066,0.28 -0.066,0.426c-0,0.073 0.067,0.109 0.203,0.11l1.199,0.003Zm1.252,1.433c-0.162,0.341 -0.377,0.607 -0.648,0.795c-0.272,0.189 -0.592,0.283 -0.961,0.282c-0.308,-0.001 -0.578,-0.054 -0.812,-0.158c-0.233,-0.104 -0.428,-0.245 -0.584,-0.423c-0.157,-0.177 -0.275,-0.388 -0.354,-0.633c-0.079,-0.244 -0.118,-0.504 -0.118,-0.78c0.001,-0.274 0.044,-0.536 0.131,-0.787c0.087,-0.25 0.209,-0.472 0.366,-0.668c0.158,-0.195 0.347,-0.35 0.569,-0.466c0.222,-0.115 0.468,-0.173 0.739,-0.172c0.166,0 0.34,0.021 0.521,0.061c0.182,0.04 0.352,0.119 0.512,0.235c0.159,0.116 0.297,0.284 0.414,0.501c0.116,0.217 0.192,0.503 0.228,0.857c0,0.073 -0.009,0.141 -0.028,0.202l-2.455,-0.007c-0.116,-0 -0.175,0.046 -0.175,0.137c-0.001,0.22 0.029,0.428 0.09,0.623c0.061,0.196 0.147,0.367 0.257,0.514c0.11,0.147 0.246,0.262 0.406,0.345c0.159,0.083 0.337,0.124 0.534,0.125c0.259,0 0.482,-0.072 0.67,-0.219c0.188,-0.145 0.353,-0.316 0.495,-0.511l0.203,0.147Z" style="fill:#fff;fill-rule:nonzero;"/><path d="M109.301,14.936c-0.122,-0.495 -0.327,-0.891 -0.615,-1.188c-0.289,-0.297 -0.645,-0.446 -1.07,-0.448c-0.35,0 -0.63,0.09 -0.84,0.273c-0.21,0.183 -0.315,0.415 -0.316,0.696c-0.001,0.22 0.075,0.411 0.225,0.573c0.15,0.162 0.376,0.308 0.677,0.437c0.375,0.16 0.716,0.294 1.023,0.402c0.307,0.107 0.57,0.231 0.788,0.373c0.218,0.141 0.387,0.319 0.507,0.532c0.119,0.214 0.178,0.505 0.177,0.871c-0,0.226 -0.037,0.449 -0.108,0.669c-0.071,0.22 -0.181,0.417 -0.329,0.591c-0.148,0.173 -0.341,0.313 -0.578,0.419c-0.236,0.106 -0.522,0.159 -0.854,0.159c-0.215,-0.001 -0.401,-0.017 -0.558,-0.048c-0.157,-0.031 -0.289,-0.068 -0.396,-0.111c-0.108,-0.043 -0.193,-0.086 -0.254,-0.129c-0.061,-0.043 -0.105,-0.073 -0.129,-0.092c-0.117,0.085 -0.234,0.161 -0.351,0.228c-0.117,0.067 -0.234,0.116 -0.351,0.146c-0.067,-0.465 -0.116,-0.875 -0.149,-1.233c-0.033,-0.357 -0.049,-0.67 -0.048,-0.939l0.304,0.001c-0.001,0.268 0.054,0.514 0.164,0.738c0.111,0.223 0.251,0.414 0.423,0.573c0.172,0.16 0.365,0.284 0.58,0.373c0.216,0.089 0.425,0.134 0.628,0.134c0.129,0.001 0.272,-0.02 0.429,-0.062c0.157,-0.042 0.305,-0.11 0.443,-0.2c0.139,-0.092 0.256,-0.207 0.352,-0.347c0.096,-0.14 0.144,-0.308 0.145,-0.503c0,-0.244 -0.065,-0.457 -0.197,-0.641c-0.132,-0.183 -0.342,-0.327 -0.631,-0.431c-0.338,-0.124 -0.663,-0.237 -0.973,-0.342c-0.31,-0.105 -0.584,-0.228 -0.82,-0.372c-0.237,-0.145 -0.425,-0.325 -0.567,-0.542c-0.14,-0.217 -0.211,-0.502 -0.209,-0.856c0,-0.256 0.047,-0.488 0.14,-0.695c0.092,-0.207 0.218,-0.385 0.375,-0.534c0.157,-0.149 0.341,-0.265 0.55,-0.346c0.209,-0.082 0.428,-0.122 0.656,-0.122c0.264,0.001 0.49,0.049 0.678,0.144c0.187,0.095 0.36,0.179 0.52,0.253c0.191,-0.152 0.392,-0.259 0.601,-0.319c0.085,0.282 0.146,0.579 0.182,0.894c0.036,0.315 0.053,0.655 0.052,1.022l-0.276,-0.001Z" style="fill:#fff;fill-rule:nonzero;"/><path d="M112.59,16.832c0.253,0.001 0.379,-0.127 0.38,-0.384c-0.018,-0.231 -0.096,-0.436 -0.234,-0.61c-0.138,-0.174 -0.339,-0.262 -0.604,-0.263c-0.141,0 -0.27,0.032 -0.388,0.096c-0.117,0.064 -0.217,0.149 -0.3,0.256c-0.084,0.107 -0.147,0.228 -0.19,0.366c-0.044,0.137 -0.066,0.279 -0.066,0.426c-0,0.073 0.067,0.11 0.202,0.11l1.2,0.003Zm1.252,1.433c-0.162,0.342 -0.377,0.607 -0.649,0.796c-0.271,0.188 -0.591,0.282 -0.96,0.281c-0.308,-0.001 -0.578,-0.054 -0.812,-0.158c-0.233,-0.104 -0.428,-0.245 -0.584,-0.423c-0.157,-0.178 -0.275,-0.389 -0.354,-0.633c-0.079,-0.244 -0.118,-0.504 -0.118,-0.779c0.001,-0.275 0.044,-0.538 0.131,-0.788c0.087,-0.25 0.209,-0.473 0.366,-0.668c0.158,-0.195 0.347,-0.35 0.569,-0.466c0.222,-0.115 0.468,-0.173 0.739,-0.172c0.166,0 0.34,0.021 0.521,0.061c0.182,0.04 0.352,0.119 0.512,0.235c0.159,0.117 0.297,0.283 0.414,0.5c0.116,0.218 0.192,0.504 0.228,0.858c0,0.073 -0.01,0.14 -0.028,0.201l-2.455,-0.006c-0.116,-0 -0.175,0.045 -0.175,0.137c-0.001,0.22 0.029,0.427 0.09,0.623c0.061,0.196 0.147,0.367 0.257,0.514c0.11,0.147 0.246,0.262 0.405,0.345c0.16,0.082 0.338,0.124 0.535,0.125c0.259,0.001 0.482,-0.072 0.67,-0.218c0.188,-0.147 0.353,-0.317 0.495,-0.513l0.203,0.148Z" style="fill:#fff;fill-rule:nonzero;"/><path d="M115.97,17.666c0.563,0.001 0.845,-0.285 0.847,-0.859c0.002,-0.843 -0.269,-1.265 -0.814,-1.267c-0.538,-0.001 -0.808,0.322 -0.81,0.969c-0.002,0.77 0.257,1.156 0.777,1.157m0.26,2.905c0.766,0.002 1.15,-0.241 1.151,-0.73c0.001,-0.323 -0.366,-0.487 -1.101,-0.489l-0.769,-0.002c-0.204,0.036 -0.361,0.094 -0.473,0.174c-0.111,0.078 -0.167,0.198 -0.167,0.356c-0.001,0.226 0.096,0.398 0.29,0.514c0.195,0.117 0.461,0.175 0.801,0.177l0.268,0Zm-0.74,0.273c-0.377,-0.001 -0.684,-0.067 -0.925,-0.199c-0.24,-0.132 -0.36,-0.332 -0.359,-0.601c0.001,-0.349 0.266,-0.605 0.796,-0.768c-0.394,-0.093 -0.59,-0.326 -0.589,-0.7c0,-0.098 0.019,-0.193 0.056,-0.285c0.037,-0.093 0.09,-0.175 0.158,-0.249c0.067,-0.073 0.146,-0.131 0.235,-0.174c0.089,-0.042 0.187,-0.063 0.291,-0.063c-0.467,-0.245 -0.7,-0.638 -0.698,-1.182c0,-0.183 0.034,-0.356 0.103,-0.52c0.068,-0.165 0.169,-0.309 0.301,-0.434c0.134,-0.124 0.299,-0.223 0.497,-0.296c0.197,-0.072 0.425,-0.109 0.684,-0.108c0.414,0.001 0.777,0.134 1.091,0.397c0.105,-0.158 0.222,-0.269 0.352,-0.333c0.13,-0.064 0.269,-0.096 0.417,-0.096c0.259,0.001 0.388,0.111 0.387,0.331c-0,0.239 -0.098,0.358 -0.292,0.357c-0.128,-0.001 -0.227,-0.047 -0.3,-0.138c-0.141,0.018 -0.254,0.079 -0.341,0.182c0.086,0.098 0.147,0.208 0.184,0.331c0.036,0.122 0.054,0.235 0.054,0.338c-0.001,0.477 -0.139,0.828 -0.413,1.054c-0.275,0.225 -0.719,0.337 -1.334,0.335c-0.068,-0 -0.137,-0.006 -0.208,-0.019c-0.07,-0.012 -0.146,-0.028 -0.226,-0.046c-0.301,0.017 -0.452,0.139 -0.453,0.365c-0,0.134 0.051,0.228 0.156,0.28c0.104,0.052 0.28,0.079 0.526,0.079l1.052,0.003c0.178,0 0.346,0.02 0.503,0.061c0.157,0.04 0.293,0.103 0.41,0.189c0.116,0.086 0.209,0.194 0.276,0.326c0.067,0.132 0.101,0.289 0.1,0.472c-0,0.171 -0.04,0.325 -0.117,0.463c-0.077,0.136 -0.186,0.254 -0.325,0.351c-0.138,0.098 -0.304,0.172 -0.495,0.224c-0.191,0.05 -0.401,0.076 -0.63,0.076l-0.924,-0.003Z" style="fill:#fff;fill-rule:nonzero;"/><path d="M121.489,19.229c-0.019,-0.043 -0.028,-0.125 -0.027,-0.247l0.001,-0.349c-0.062,0.104 -0.13,0.197 -0.204,0.279c-0.074,0.082 -0.162,0.151 -0.264,0.205c-0.101,0.055 -0.22,0.098 -0.355,0.128c-0.136,0.03 -0.295,0.045 -0.48,0.044c-0.234,-0 -0.433,-0.022 -0.6,-0.065c-0.166,-0.044 -0.301,-0.118 -0.405,-0.226c-0.105,-0.107 -0.179,-0.251 -0.225,-0.431c-0.046,-0.18 -0.069,-0.405 -0.068,-0.674l0.005,-1.851c0.001,-0.207 -0.199,-0.312 -0.599,-0.313l-0.036,-0.238l1.412,-0.106l-0.006,2.336c-0,0.147 0.004,0.287 0.013,0.421c0.008,0.136 0.036,0.253 0.081,0.354c0.046,0.101 0.121,0.182 0.225,0.244c0.103,0.061 0.253,0.092 0.449,0.092c0.496,0.001 0.837,-0.309 1.022,-0.932l0.004,-1.851c0.001,-0.208 -0.22,-0.311 -0.663,-0.313l-0.036,-0.238l1.477,-0.106l-0.008,3.069c-0.001,0.208 0.208,0.325 0.626,0.35l0.073,0.247l-1.412,0.171Z" style="fill:#fff;fill-rule:nonzero;"/><path d="M123.251,19.197l0.001,-0.275c0.4,0.001 0.601,-0.173 0.602,-0.521l0.005,-1.924c0.001,-0.439 -0.211,-0.661 -0.636,-0.661l0.001,-0.248c0.234,-0.048 0.47,-0.095 0.709,-0.14c0.239,-0.045 0.473,-0.092 0.704,-0.14l-0.002,0.879l0.045,0.037c0.019,-0.079 0.061,-0.17 0.125,-0.274c0.065,-0.104 0.144,-0.203 0.24,-0.297c0.095,-0.095 0.201,-0.175 0.317,-0.243c0.116,-0.066 0.239,-0.1 0.368,-0.1c0.465,0.002 0.697,0.213 0.695,0.635c-0,0.348 -0.142,0.522 -0.426,0.521c-0.252,-0 -0.378,-0.114 -0.377,-0.34c0,-0.097 0.009,-0.171 0.028,-0.22l-0.164,-0c-0.183,-0.001 -0.33,0.057 -0.44,0.172c-0.11,0.116 -0.194,0.257 -0.252,0.421c-0.059,0.166 -0.099,0.338 -0.12,0.518c-0.023,0.18 -0.036,0.331 -0.043,0.453l-0.003,0.981c-0,0.33 0.236,0.495 0.71,0.497l-0.001,0.274l-2.086,-0.005Z" style="fill:#fff;fill-rule:nonzero;"/><path d="M128.558,19.064c0.24,0.001 0.429,-0.052 0.568,-0.158c0.139,-0.106 0.245,-0.232 0.319,-0.379c0.075,-0.145 0.122,-0.298 0.145,-0.456c0.022,-0.158 0.033,-0.289 0.033,-0.393c0,-0.201 -0.011,-0.422 -0.035,-0.663c-0.024,-0.24 -0.074,-0.463 -0.151,-0.668c-0.076,-0.203 -0.186,-0.376 -0.331,-0.517c-0.144,-0.14 -0.336,-0.211 -0.576,-0.211c-0.246,-0.001 -0.44,0.052 -0.582,0.158c-0.141,0.106 -0.249,0.232 -0.324,0.378c-0.074,0.147 -0.122,0.299 -0.144,0.457c-0.022,0.158 -0.033,0.289 -0.033,0.393c-0.001,0.201 0.011,0.422 0.035,0.663c0.024,0.24 0.074,0.463 0.15,0.667c0.077,0.204 0.189,0.377 0.336,0.517c0.147,0.141 0.344,0.211 0.59,0.212m-0.038,0.321c-0.289,-0.001 -0.553,-0.056 -0.793,-0.162c-0.24,-0.108 -0.444,-0.252 -0.612,-0.433c-0.169,-0.181 -0.299,-0.392 -0.391,-0.633c-0.092,-0.241 -0.137,-0.497 -0.136,-0.766c0,-0.317 0.053,-0.606 0.159,-0.865c0.105,-0.259 0.247,-0.481 0.426,-0.664c0.179,-0.182 0.389,-0.322 0.628,-0.419c0.241,-0.097 0.497,-0.146 0.767,-0.145c0.277,0 0.532,0.055 0.766,0.162c0.233,0.108 0.434,0.253 0.603,0.433c0.168,0.18 0.299,0.391 0.39,0.633c0.092,0.242 0.137,0.497 0.137,0.765c-0.001,0.324 -0.054,0.616 -0.159,0.875c-0.106,0.259 -0.248,0.479 -0.427,0.659c-0.178,0.179 -0.385,0.318 -0.619,0.415c-0.234,0.097 -0.481,0.145 -0.739,0.145" style="fill:#fff;fill-rule:nonzero;"/><path d="M133.225,16.529c-0.282,-0.63 -0.656,-0.946 -1.124,-0.947c-0.19,-0 -0.357,0.045 -0.498,0.137c-0.142,0.091 -0.213,0.244 -0.213,0.459c-0.001,0.122 0.056,0.226 0.169,0.313c0.114,0.086 0.255,0.165 0.424,0.239c0.169,0.074 0.352,0.148 0.548,0.222c0.197,0.074 0.38,0.162 0.549,0.263c0.169,0.102 0.31,0.223 0.423,0.364c0.114,0.141 0.17,0.316 0.17,0.524c-0.001,0.184 -0.035,0.35 -0.103,0.496c-0.068,0.147 -0.162,0.272 -0.282,0.376c-0.12,0.103 -0.259,0.188 -0.416,0.252c-0.157,0.063 -0.322,0.107 -0.494,0.131c-0.308,-0 -0.581,-0.081 -0.821,-0.24c-0.136,0.103 -0.32,0.17 -0.554,0.2c-0.097,-0.446 -0.145,-0.923 -0.144,-1.43l0.249,0c0.067,0.221 0.141,0.406 0.22,0.555c0.079,0.15 0.168,0.27 0.267,0.358c0.098,0.089 0.208,0.152 0.331,0.189c0.123,0.037 0.262,0.056 0.416,0.056c0.51,0.002 0.766,-0.196 0.767,-0.593c0,-0.116 -0.019,-0.216 -0.059,-0.298c-0.04,-0.082 -0.101,-0.153 -0.184,-0.211c-0.083,-0.058 -0.186,-0.114 -0.309,-0.166c-0.123,-0.052 -0.267,-0.106 -0.433,-0.161c-0.129,-0.043 -0.268,-0.098 -0.415,-0.162c-0.148,-0.064 -0.284,-0.143 -0.41,-0.235c-0.126,-0.092 -0.23,-0.2 -0.313,-0.326c-0.083,-0.125 -0.124,-0.271 -0.124,-0.435c0.001,-0.165 0.026,-0.317 0.076,-0.458c0.049,-0.14 0.125,-0.262 0.227,-0.366c0.102,-0.104 0.232,-0.184 0.393,-0.242c0.159,-0.058 0.351,-0.086 0.572,-0.085c0.264,0 0.523,0.074 0.775,0.221c0.098,-0.078 0.218,-0.14 0.36,-0.182c0.11,0.416 0.164,0.81 0.163,1.182l-0.203,-0Z" style="fill:#fff;fill-rule:nonzero;"/><path d="M140.565,15.018c-0.122,-0.495 -0.327,-0.891 -0.615,-1.188c-0.289,-0.298 -0.645,-0.447 -1.069,-0.448c-0.351,-0 -0.631,0.09 -0.841,0.273c-0.209,0.183 -0.315,0.415 -0.316,0.696c-0,0.219 0.075,0.411 0.225,0.573c0.15,0.162 0.376,0.308 0.677,0.437c0.375,0.16 0.716,0.294 1.023,0.401c0.308,0.108 0.571,0.233 0.789,0.373c0.218,0.141 0.387,0.319 0.506,0.533c0.119,0.215 0.178,0.505 0.177,0.871c-0,0.226 -0.036,0.449 -0.107,0.669c-0.072,0.219 -0.182,0.416 -0.33,0.59c-0.148,0.174 -0.34,0.314 -0.577,0.42c-0.237,0.106 -0.522,0.16 -0.855,0.158c-0.215,0 -0.401,-0.016 -0.558,-0.047c-0.156,-0.031 -0.289,-0.068 -0.396,-0.111c-0.108,-0.043 -0.192,-0.086 -0.253,-0.129c-0.062,-0.043 -0.105,-0.074 -0.13,-0.092c-0.117,0.086 -0.234,0.161 -0.351,0.228c-0.117,0.067 -0.234,0.115 -0.351,0.146c-0.067,-0.464 -0.116,-0.876 -0.149,-1.233c-0.033,-0.358 -0.049,-0.671 -0.048,-0.939l0.304,0c-0.001,0.269 0.054,0.515 0.164,0.738c0.111,0.224 0.251,0.415 0.423,0.574c0.172,0.159 0.366,0.284 0.581,0.373c0.215,0.089 0.424,0.134 0.627,0.135c0.129,-0 0.272,-0.021 0.43,-0.063c0.156,-0.043 0.304,-0.109 0.443,-0.201c0.138,-0.091 0.256,-0.206 0.351,-0.346c0.096,-0.14 0.144,-0.308 0.145,-0.504c0,-0.243 -0.065,-0.457 -0.197,-0.64c-0.132,-0.184 -0.342,-0.327 -0.631,-0.432c-0.338,-0.123 -0.662,-0.236 -0.973,-0.341c-0.31,-0.104 -0.584,-0.229 -0.82,-0.373c-0.237,-0.143 -0.425,-0.324 -0.566,-0.541c-0.141,-0.216 -0.211,-0.502 -0.21,-0.856c0,-0.256 0.047,-0.488 0.14,-0.695c0.093,-0.206 0.218,-0.385 0.375,-0.534c0.157,-0.149 0.341,-0.264 0.55,-0.346c0.209,-0.082 0.428,-0.123 0.656,-0.122c0.264,0.001 0.49,0.048 0.678,0.144c0.187,0.095 0.361,0.18 0.521,0.253c0.19,-0.152 0.391,-0.258 0.6,-0.319c0.085,0.281 0.146,0.579 0.182,0.893c0.036,0.316 0.054,0.656 0.053,1.023l-0.277,-0.001Z" style="fill:#fff;fill-rule:nonzero;"/><path d="M142.51,19.385c-0.419,-0.001 -0.627,-0.201 -0.626,-0.597c0.001,-0.397 0.211,-0.595 0.629,-0.595c0.394,0.002 0.59,0.201 0.589,0.598c-0.001,0.397 -0.198,0.595 -0.592,0.594" style="fill:#fff;fill-rule:nonzero;"/><path d="M146.307,14.337l-0.818,1.922c-0.068,0.146 -0.102,0.25 -0.102,0.311c-0,0.091 0.114,0.138 0.341,0.138l1.163,0.004c0.184,0 0.277,-0.037 0.277,-0.11c0,-0.031 -0.033,-0.131 -0.101,-0.303l-0.76,-1.962Zm0.789,4.922l0.001,-0.275c0.087,-0.011 0.177,-0.023 0.273,-0.036c0.095,-0.012 0.181,-0.027 0.258,-0.044c0.077,-0.019 0.142,-0.041 0.194,-0.069c0.052,-0.027 0.078,-0.059 0.079,-0.096c-0.006,-0.025 -0.011,-0.059 -0.014,-0.105c-0.003,-0.046 -0.02,-0.103 -0.05,-0.17l-0.412,-1.129c-0.068,-0.158 -0.255,-0.239 -0.563,-0.239l-1.375,-0.003c-0.233,-0.001 -0.375,0.077 -0.425,0.236l-0.316,0.947c-0.025,0.055 -0.037,0.134 -0.038,0.237c-0,0.28 0.27,0.42 0.811,0.422l-0.001,0.32l-2.076,-0.005l0.001,-0.321c0.178,-0.012 0.33,-0.072 0.457,-0.182c0.126,-0.109 0.233,-0.267 0.32,-0.475l2.229,-5.227l0.276,0.111l2.173,5.448c0.086,0.129 0.153,0.209 0.202,0.239c0.012,0.012 0.063,0.03 0.152,0.05c0.089,0.023 0.214,0.055 0.374,0.098l-0.001,0.275l-2.529,-0.007Z" style="fill:#fff;fill-rule:nonzero;"/><path d="M150.538,19.406c-0.418,-0.001 -0.627,-0.2 -0.626,-0.597c0.001,-0.397 0.211,-0.595 0.629,-0.595c0.394,0.002 0.59,0.201 0.589,0.598c-0.001,0.397 -0.198,0.595 -0.592,0.594" style="fill:#fff;fill-rule:nonzero;"/><path d="M156.371,18.99c0.203,0.001 0.366,-0.035 0.49,-0.108c0.123,-0.073 0.219,-0.181 0.287,-0.325c0.067,-0.143 0.114,-0.317 0.139,-0.522c0.026,-0.204 0.038,-0.438 0.039,-0.701c0.003,-1.069 -0.346,-1.605 -1.047,-1.606c-0.179,-0.001 -0.335,0.044 -0.467,0.132c-0.133,0.088 -0.242,0.204 -0.328,0.347c-0.087,0.143 -0.152,0.304 -0.196,0.481c-0.043,0.177 -0.065,0.353 -0.066,0.531c-0,0.213 0.019,0.425 0.059,0.633c0.039,0.207 0.103,0.397 0.192,0.568c0.089,0.171 0.207,0.309 0.354,0.413c0.148,0.105 0.329,0.157 0.544,0.157m2.325,0.226c-0.098,0.024 -0.257,0.047 -0.476,0.068c-0.218,0.021 -0.493,0.054 -0.825,0.103l-0.101,-0.596c-0.111,0.201 -0.271,0.361 -0.481,0.48c-0.209,0.118 -0.449,0.177 -0.72,0.177c-0.228,-0.001 -0.445,-0.04 -0.65,-0.117c-0.206,-0.076 -0.386,-0.193 -0.539,-0.349c-0.153,-0.156 -0.276,-0.355 -0.368,-0.597c-0.091,-0.241 -0.137,-0.527 -0.136,-0.857c0.001,-0.305 0.051,-0.591 0.15,-0.856c0.099,-0.265 0.235,-0.494 0.408,-0.686c0.172,-0.192 0.378,-0.343 0.615,-0.452c0.237,-0.109 0.494,-0.164 0.771,-0.163c0.221,0.001 0.413,0.045 0.576,0.134c0.163,0.089 0.29,0.186 0.382,0.29l0.005,-1.988c0.001,-0.208 -0.236,-0.313 -0.709,-0.314l0.001,-0.284l1.477,-0.234c0.012,0.225 0.02,0.488 0.025,0.788c0.006,0.299 0.008,0.616 0.007,0.953l-0.009,3.454c-0.001,0.513 0.21,0.783 0.635,0.808l-0.038,0.238Z" style="fill:#fff;fill-rule:nonzero;"/><path d="M161.157,16.96c0.252,0 0.378,-0.127 0.379,-0.384c-0.018,-0.232 -0.096,-0.436 -0.234,-0.61c-0.138,-0.175 -0.339,-0.262 -0.603,-0.263c-0.142,-0 -0.271,0.031 -0.388,0.095c-0.117,0.064 -0.217,0.149 -0.301,0.256c-0.083,0.107 -0.147,0.228 -0.19,0.366c-0.044,0.138 -0.065,0.279 -0.066,0.426c-0,0.073 0.068,0.11 0.203,0.11l1.2,0.004Zm1.251,1.433c-0.161,0.341 -0.377,0.607 -0.648,0.795c-0.272,0.188 -0.592,0.282 -0.961,0.281c-0.307,-0.001 -0.578,-0.053 -0.812,-0.157c-0.233,-0.105 -0.428,-0.246 -0.584,-0.424c-0.157,-0.177 -0.275,-0.388 -0.354,-0.633c-0.079,-0.244 -0.118,-0.504 -0.118,-0.779c0.001,-0.275 0.044,-0.537 0.131,-0.788c0.087,-0.25 0.209,-0.472 0.367,-0.668c0.157,-0.194 0.346,-0.35 0.569,-0.466c0.221,-0.115 0.468,-0.173 0.739,-0.172c0.165,0.001 0.339,0.021 0.521,0.061c0.181,0.04 0.351,0.119 0.511,0.235c0.16,0.117 0.297,0.284 0.414,0.501c0.116,0.217 0.192,0.503 0.229,0.857c-0,0.074 -0.01,0.141 -0.028,0.201l-2.456,-0.005c-0.116,-0.001 -0.175,0.044 -0.175,0.136c-0.001,0.22 0.03,0.428 0.091,0.623c0.06,0.196 0.146,0.367 0.257,0.514c0.11,0.147 0.245,0.262 0.405,0.345c0.159,0.083 0.337,0.125 0.535,0.125c0.258,0.001 0.481,-0.071 0.67,-0.218c0.187,-0.146 0.352,-0.317 0.494,-0.512l0.203,0.148Z" style="fill:#fff;fill-rule:nonzero;"/><path d="M171.047,17.572c-0.056,0.318 -0.16,0.594 -0.311,0.829c-0.151,0.234 -0.337,0.429 -0.555,0.585c-0.219,0.154 -0.466,0.272 -0.74,0.35c-0.273,0.079 -0.558,0.118 -0.854,0.117c-0.436,-0.001 -0.831,-0.08 -1.184,-0.237c-0.354,-0.157 -0.657,-0.373 -0.908,-0.648c-0.251,-0.275 -0.444,-0.601 -0.579,-0.977c-0.134,-0.377 -0.201,-0.781 -0.199,-1.215c0.001,-0.477 0.079,-0.913 0.234,-1.31c0.154,-0.396 0.363,-0.738 0.625,-1.024c0.263,-0.286 0.567,-0.509 0.916,-0.667c0.347,-0.158 0.719,-0.236 1.112,-0.235c0.474,0.002 0.919,0.143 1.337,0.425c0.216,-0.22 0.438,-0.347 0.666,-0.383c0.018,0.018 0.046,0.086 0.082,0.206c0.037,0.119 0.072,0.273 0.105,0.463c0.033,0.189 0.062,0.407 0.086,0.651c0.024,0.244 0.036,0.501 0.035,0.769l-0.314,-0c-0.14,-0.587 -0.385,-1.029 -0.735,-1.326c-0.35,-0.298 -0.758,-0.447 -1.226,-0.448c-0.338,-0.001 -0.627,0.07 -0.868,0.213c-0.24,0.143 -0.438,0.332 -0.592,0.567c-0.154,0.235 -0.268,0.501 -0.339,0.801c-0.071,0.299 -0.108,0.604 -0.108,0.915c-0.002,0.434 0.036,0.836 0.112,1.206c0.076,0.37 0.197,0.691 0.362,0.963c0.165,0.272 0.38,0.487 0.644,0.643c0.264,0.156 0.581,0.235 0.95,0.237c0.234,-0 0.444,-0.024 0.632,-0.072c0.188,-0.049 0.36,-0.132 0.518,-0.251c0.157,-0.119 0.302,-0.28 0.435,-0.484c0.133,-0.205 0.261,-0.46 0.385,-0.765l0.276,0.102Z" style="fill:#fff;fill-rule:nonzero;"/><path d="M172.039,19.462c-0.418,-0.001 -0.627,-0.2 -0.626,-0.597c0.001,-0.397 0.211,-0.595 0.63,-0.594c0.393,0.001 0.589,0.2 0.588,0.597c-0.001,0.397 -0.198,0.595 -0.592,0.594" style="fill:#fff;fill-rule:nonzero;"/><path d="M174.919,19.405l-2.1,-5.291c-0.177,-0.392 -0.444,-0.589 -0.801,-0.589l0.001,-0.276l2.491,0.007l-0,0.275l-0.425,-0.001c-0.209,-0.001 -0.314,0.057 -0.314,0.173c-0,0.055 0.005,0.117 0.018,0.184c0.012,0.067 0.027,0.144 0.045,0.23l1.54,4.135l1.459,-3.944c0.018,-0.109 0.028,-0.217 0.029,-0.321c0,-0.3 -0.28,-0.451 -0.839,-0.452l0.001,-0.275l2.215,0.006l-0.001,0.275l-0.286,-0.001c-0.216,-0 -0.379,0.161 -0.491,0.485l-2.229,5.446l-0.313,-0.066Z" style="fill:#fff;fill-rule:nonzero;"/><path d="M178.129,19.478c-0.418,-0.001 -0.626,-0.2 -0.625,-0.597c0.001,-0.397 0.21,-0.596 0.629,-0.594c0.393,0.001 0.59,0.201 0.589,0.597c-0.001,0.397 -0.199,0.595 -0.593,0.594" style="fill:#fff;fill-rule:nonzero;"/></g><path d="M21.412,11.264c-0.611,0 -1.316,0.076 -2.011,0.315c-1.482,0.514 -2.55,1.674 -3.17,3.446c-1.833,5.231 -3.958,8.379 -6.499,9.625c-0.227,0.11 -0.386,0.319 -0.437,0.564c-0.051,0.246 0.017,0.5 0.18,0.691c1.223,1.409 2.669,2.486 4.3,3.201c0.206,0.09 0.441,0.091 0.648,0.002c6.591,-2.851 8.636,-10.73 9.194,-16.837c0.038,-0.436 -0.318,-0.83 -0.754,-0.879l-0.147,-0.019c-0.312,-0.054 -0.761,-0.107 -1.282,-0.109l-0.022,0Z" style="fill:url(#_Linear1);fill-rule:nonzero;"/><path d="M22.597,12.359l-1.857,1.409l-9.094,14.122c0.667,0.48 1.379,0.886 2.129,1.216c0.092,0.04 0.19,0.064 0.287,0.069l0.072,-0c0.098,-0.004 0.197,-0.027 0.289,-0.067c6.591,-2.851 8.636,-10.73 9.194,-16.837c0.016,-0.185 -0.038,-0.359 -0.138,-0.504l-0.882,0.592Z" style="fill:url(#_Linear2);fill-rule:nonzero;"/><path d="M22.581,6.864c-1.857,-0 -3.316,0.218 -4.691,1.142c-1.578,1.058 -2.836,2.924 -4.081,6.051c-1.683,4.224 -5.104,4.249 -6.993,3.888c-0.277,-0.054 -0.56,0.043 -0.751,0.251c-0.188,0.208 -0.255,0.502 -0.174,0.772c0.558,1.886 1.288,3.569 2.167,4.995c0.206,0.331 0.618,0.47 0.983,0.328c2.572,-1.003 4.739,-4.1 6.617,-9.466c0.687,-1.957 1.879,-3.24 3.546,-3.818c1.426,-0.493 2.876,-0.357 3.614,-0.231c0.23,0.04 0.465,-0.022 0.645,-0.168c0.18,-0.147 0.289,-0.364 0.3,-0.596c0.031,-0.782 0.042,-1.572 0.033,-2.347c-0.005,-0.436 -0.357,-0.791 -0.796,-0.798l-0.419,-0.003Z" style="fill:url(#_Linear3);fill-rule:nonzero;"/><path d="M15.132,13.476c-0.38,0.657 -0.305,1.566 -1.902,3.986c-1.359,2.058 -5.273,3.654 -6.414,4.085l-0,0.002c0.372,0.867 0.788,1.674 1.242,2.414c0.206,0.331 0.618,0.47 0.983,0.328c2.572,-1.003 4.739,-4.1 6.617,-9.466c0.687,-1.957 1.879,-3.24 3.546,-3.818c1.426,-0.493 2.876,-0.357 3.614,-0.231c0.23,0.04 0.465,-0.022 0.645,-0.168c0.18,-0.147 0.289,-0.364 0.3,-0.596c0.014,-0.357 0.023,-0.717 0.029,-1.077l0,-0.03c-0.355,-0.039 -0.697,-0.059 -1.027,-0.063l-0.232,-0.001c-5.238,0.046 -7.053,4.04 -7.401,4.635Z" style="fill:url(#_Linear4);fill-rule:nonzero;"/><path d="M6.065,18.196c-0.188,0.208 -0.255,0.502 -0.174,0.772c0.558,1.886 1.288,3.569 2.167,4.995c0.13,0.209 0.343,0.342 0.576,0.375l0.145,-0.888l-0.072,-2.776l-2.004,-1.889l-0.628,-0.597l-0.01,0.008Z" style="fill:url(#_Linear5);fill-rule:nonzero;"/><path d="M22.936,7.75l-0.018,2.186l0.542,0.675l0.003,-0.003c0.18,-0.147 0.289,-0.364 0.3,-0.596c0.031,-0.782 0.042,-1.572 0.033,-2.347c-0.002,-0.216 -0.089,-0.409 -0.23,-0.554l-0.002,-0l-0.628,0.639Z" style="fill:url(#_Linear6);fill-rule:nonzero;"/><path d="M5.441,4.403c-0.417,-0 -0.765,0.313 -0.806,0.728c-0.008,0.098 -0.112,1.183 -0.128,2.857l-0.002,0.592c0.01,2.027 0.157,4.743 0.703,7.574c0.042,0.214 0.169,0.405 0.353,0.524c0.523,0.34 0.929,0.571 1.339,0.664c2.96,0.687 5.158,-0.525 6.347,-3.512c1.293,-3.245 2.62,-5.197 4.304,-6.329c1.583,-1.061 3.28,-1.266 5.339,-1.242c0.227,0.003 0.447,-0.088 0.601,-0.255c0.154,-0.166 0.233,-0.387 0.216,-0.612l-0.018,-0.212c-0.036,-0.417 -0.384,-0.731 -0.802,-0.732l-8.284,-0.021l-9.162,-0.024Z" style="fill:url(#_Linear7);fill-rule:nonzero;"/><clipPath id="_clip8"><path d="M4.45,29.15l19.295,0.051l0.065,-24.753l-19.295,-0.05l-0.065,24.752Z" clip-rule="nonzero"/></clipPath><g clip-path="url(#_clip8)"><path d="M23.702,5.351l-0.014,-0.17c-0.034,-0.419 -0.382,-0.732 -0.802,-0.734l-17.444,-0.045c-0.417,-0.001 -0.766,0.314 -0.807,0.729c-0.014,0.148 -0.249,2.615 -0.048,5.962c2.248,-1.483 10.096,-6.157 19.115,-5.742" style="fill:#eae1b1;fill-rule:nonzero;"/></g><path d="M4.938,4.575c-0.166,0.132 -0.279,0.329 -0.303,0.556c-0.008,0.097 -0.111,1.181 -0.128,2.851l-0.002,0.585c0.01,2.029 0.156,4.75 0.703,7.587c0.019,0.093 0.053,0.182 0.103,0.261l0,0l0.882,-0.595l-0.483,-10.37l-0.769,-0.875l-0.003,-0Z" style="fill:url(#_Linear9);fill-rule:nonzero;"/><path d="M23.705,5.391l-0.017,-0.21c-0.018,-0.219 -0.121,-0.409 -0.276,-0.54l-0.528,0.614l0.015,0.197l0.485,0.647c0.038,-0.028 0.074,-0.059 0.107,-0.094c0.155,-0.166 0.233,-0.388 0.214,-0.614" style="fill:#b7ac37;fill-rule:nonzero;"/><path d="M6.002,16c0.401,0.26 0.773,0.485 1.079,0.555c2.671,0.62 4.416,-0.52 5.414,-3.023c1.359,-3.406 2.779,-5.474 4.605,-6.701c1.745,-1.172 3.585,-1.405 5.799,-1.381l-0.014,-0.195l-17.444,-0.045c-0.006,0.057 -0.51,5.238 0.561,10.79Zm15.413,-3.93c-0.536,0 -1.149,0.065 -1.749,0.273c-1.254,0.436 -2.129,1.401 -2.672,2.951c-1.904,5.432 -4.168,8.737 -6.907,10.081c1.08,1.248 2.402,2.284 4.015,2.992l0.001,-0c6.268,-2.714 8.183,-10.4 8.708,-16.169c-0.076,-0.005 -0.153,-0.013 -0.229,-0.027c-0.28,-0.048 -0.687,-0.1 -1.153,-0.101l-0.014,0Z" style="fill:url(#_Linear10);fill-rule:nonzero;"/><path d="M22.564,7.672c-3.381,0 -5.638,0.745 -8.005,6.683c-1.953,4.903 -6.073,4.733 -7.893,4.385c0.498,1.682 1.173,3.325 2.081,4.8c2.037,-0.796 4.174,-3.343 6.15,-8.981c1.787,-5.105 6.306,-4.879 8.058,-4.578c0.034,-0.859 0.041,-1.638 0.032,-2.305l-0.423,-0.004Z" style="fill:url(#_Linear11);fill-rule:nonzero;"/><defs><linearGradient id="_Linear1" x1="0" y1="0" x2="1" y2="0" gradientUnits="userSpaceOnUse" gradientTransform="matrix(12.6346,-15.1884,15.1884,12.6346,11.4543,27.3896)"><stop offset="0" style="stop-color:#6e5e2c;stop-opacity:1"/><stop offset="0.34" style="stop-color:#b6aa35;stop-opacity:1"/><stop offset="0.72" style="stop-color:#867131;stop-opacity:1"/><stop offset="1" style="stop-color:#8f8b3d;stop-opacity:1"/></linearGradient><linearGradient id="_Linear2" x1="0" y1="0" x2="1" y2="0" gradientUnits="userSpaceOnUse" gradientTransform="matrix(-0.0405338,15.4918,-15.4918,-0.0405338,17.6486,13.6927)"><stop offset="0" style="stop-color:#65582a;stop-opacity:1"/><stop offset="0.34" style="stop-color:#b6aa35;stop-opacity:1"/><stop offset="1" style="stop-color:#6b6d35;stop-opacity:1"/></linearGradient><linearGradient id="_Linear3" x1="0" y1="0" x2="1" y2="0" gradientUnits="userSpaceOnUse" gradientTransform="matrix(14.5142,-12.8263,12.8263,14.5142,8.45455,20.6905)"><stop offset="0" style="stop-color:#b9cad8;stop-opacity:1"/><stop offset="0.47" style="stop-color:#648fbb;stop-opacity:1"/><stop offset="0.5" style="stop-color:#6a91bd;stop-opacity:1"/><stop offset="0.69" style="stop-color:#b0c2d5;stop-opacity:1"/><stop offset="1" style="stop-color:#b9cad8;stop-opacity:1"/></linearGradient><linearGradient id="_Linear4" x1="0" y1="0" x2="1" y2="0" gradientUnits="userSpaceOnUse" gradientTransform="matrix(0.0406643,-15.5416,15.5416,0.0406643,15.28,24.3643)"><stop offset="0" style="stop-color:#0b6397;stop-opacity:1"/><stop offset="1" style="stop-color:#86a6cc;stop-opacity:1"/></linearGradient><linearGradient id="_Linear5" x1="0" y1="0" x2="1" y2="0" gradientUnits="userSpaceOnUse" gradientTransform="matrix(-2.55856,-6.15092,6.15092,-2.55856,9.03363,24.1722)"><stop offset="0" style="stop-color:#0b6397;stop-opacity:1"/><stop offset="1" style="stop-color:#86a6cc;stop-opacity:1"/></linearGradient><linearGradient id="_Linear6" x1="0" y1="0" x2="1" y2="0" gradientUnits="userSpaceOnUse" gradientTransform="matrix(0.00916013,-3.50095,3.50095,0.00916013,23.3541,10.611)"><stop offset="0" style="stop-color:#b9cad8;stop-opacity:1"/><stop offset="1" style="stop-color:#628dbb;stop-opacity:1"/></linearGradient><linearGradient id="_Linear7" x1="0" y1="0" x2="1" y2="0" gradientUnits="userSpaceOnUse" gradientTransform="matrix(0.0343298,-13.1206,13.1206,0.0343298,14.0795,17.545)"><stop offset="0" style="stop-color:#6e5e2c;stop-opacity:1"/><stop offset="0.34" style="stop-color:#b6aa35;stop-opacity:1"/><stop offset="0.72" style="stop-color:#867131;stop-opacity:1"/><stop offset="1" style="stop-color:#8f8b3d;stop-opacity:1"/></linearGradient><linearGradient id="_Linear9" x1="0" y1="0" x2="1" y2="0" gradientUnits="userSpaceOnUse" gradientTransform="matrix(0.0316793,-12.1076,12.1076,0.0316793,5.3388,16.3082)"><stop offset="0" style="stop-color:#6e5e2c;stop-opacity:1"/><stop offset="0.34" style="stop-color:#b6aa35;stop-opacity:1"/><stop offset="0.72" style="stop-color:#867131;stop-opacity:1"/><stop offset="1" style="stop-color:#8f8b3d;stop-opacity:1"/></linearGradient><linearGradient id="_Linear10" x1="0" y1="0" x2="1" y2="0" gradientUnits="userSpaceOnUse" gradientTransform="matrix(0.097853,-37.3988,37.3988,0.097853,14.0518,28.4661)"><stop offset="0" style="stop-color:#f4ea97;stop-opacity:1"/><stop offset="0.78" style="stop-color:#8f7236;stop-opacity:1"/><stop offset="1" style="stop-color:#866529;stop-opacity:1"/></linearGradient><linearGradient id="_Linear11" x1="0" y1="0" x2="1" y2="0" gradientUnits="userSpaceOnUse" gradientTransform="matrix(27.0568,-18.7874,18.7874,27.0568,2.82318,23.6325)"><stop offset="0" style="stop-color:#5e8cb9;stop-opacity:1"/><stop offset="0.5" style="stop-color:#2268a6;stop-opacity:1"/><stop offset="1" style="stop-color:#86a6cc;stop-opacity:1"/></linearGradient></defs></svg>