<svg xmlns="http://www.w3.org/2000/svg" xmlns:xlink="http://www.w3.org/1999/xlink" width="1080" zoomAndPan="magnify"
     viewBox="0 0 810 809.999993" height="1080" preserveAspectRatio="xMidYMid meet" version="1.0">
    <defs>
        <clipPath id="id1">
            <path d="M 10.929688 9.945312 L 800.679688 9.945312 L 800.679688 799.695312 L 10.929688 799.695312 Z M 10.929688 9.945312 "
                  clip-rule="nonzero"/>
        </clipPath>
        <clipPath id="id2">
            <path d="M 160 186.277344 L 637 186.277344 L 637 514 L 160 514 Z M 160 186.277344 " clip-rule="nonzero"/>
        </clipPath>
        <clipPath id="id3">
            <path d="M 119.152344 531 L 677.152344 531 L 677.152344 576.277344 L 119.152344 576.277344 Z M 119.152344 531 "
                  clip-rule="nonzero"/>
        </clipPath>
    </defs>
    <g clip-path="url(#id1)">
        <path fill="#26c0e4"
              d="M 800.679688 404.828125 C 800.679688 622.898438 623.882812 799.695312 405.804688 799.695312 C 187.722656 799.695312 10.929688 622.898438 10.929688 404.828125 C 10.929688 186.742188 187.722656 9.949219 405.804688 9.949219 C 623.886719 9.949219 800.679688 186.742188 800.679688 404.828125 Z M 800.679688 404.828125 "
              fill-opacity="1" fill-rule="nonzero"/>
    </g>
    <g clip-path="url(#id2)">
        <path fill="#ffffff"
              d="M 572.796875 513.457031 L 224.160156 513.457031 C 189.121094 513.457031 160.617188 483.03125 160.617188 445.636719 L 160.617188 254.132812 C 160.617188 216.738281 189.121094 186.316406 224.160156 186.316406 L 572.796875 186.316406 C 607.835938 186.316406 636.339844 216.738281 636.339844 254.132812 L 636.339844 445.636719 C 636.339844 483.03125 607.835938 513.457031 572.796875 513.457031 Z M 224.160156 207.046875 C 200.554688 207.046875 181.347656 228.167969 181.347656 254.132812 L 181.347656 445.636719 C 181.347656 471.597656 200.554688 492.730469 224.160156 492.730469 L 572.796875 492.730469 C 596.40625 492.730469 615.613281 471.597656 615.613281 445.636719 L 615.613281 254.132812 C 615.613281 228.167969 596.40625 207.046875 572.796875 207.046875 Z M 224.160156 207.046875 "
              fill-opacity="1" fill-rule="nonzero"/>
    </g>
    <path fill="#ffffff"
          d="M 577.78125 449.59375 C 457.476562 449.59375 337.171875 449.59375 216.871094 449.59375 C 220.109375 452.835938 223.347656 456.074219 226.585938 459.3125 C 226.585938 386.777344 226.585938 314.238281 226.585938 241.703125 C 223.347656 244.941406 220.109375 248.179688 216.871094 251.417969 C 337.171875 251.417969 457.476562 251.417969 577.78125 251.417969 C 574.542969 248.179688 571.300781 244.941406 568.0625 241.703125 C 568.0625 314.238281 568.0625 386.777344 568.0625 459.3125 C 568.0625 471.84375 587.496094 471.84375 587.496094 459.3125 C 587.496094 386.777344 587.496094 314.238281 587.496094 241.703125 C 587.496094 236.402344 583.078125 231.984375 577.78125 231.984375 C 457.476562 231.984375 337.171875 231.984375 216.871094 231.984375 C 211.570312 231.984375 207.152344 236.402344 207.152344 241.703125 C 207.152344 314.238281 207.152344 386.777344 207.152344 459.3125 C 207.152344 464.609375 211.570312 469.03125 216.871094 469.03125 C 337.171875 469.03125 457.476562 469.03125 577.78125 469.03125 C 590.3125 469.03125 590.3125 449.59375 577.78125 449.59375 Z M 577.78125 449.59375 "
          fill-opacity="1" fill-rule="nonzero"/>
    <g clip-path="url(#id3)">
        <path fill="#ffffff"
              d="M 652.667969 562.144531 C 560.910156 562.144531 469.152344 562.144531 377.394531 562.144531 C 319.085938 562.144531 260.78125 562.144531 202.46875 562.144531 C 186.371094 562.144531 170.273438 562.144531 154.175781 562.144531 C 145.183594 562.144531 149.972656 560.292969 152.988281 564.710938 C 146.269531 554.882812 139.554688 545.050781 132.832031 535.226562 C 130.734375 538.875 128.636719 542.535156 126.539062 546.1875 C 307.664062 546.1875 488.785156 546.1875 669.90625 546.1875 C 667.808594 542.535156 665.714844 538.875 663.617188 535.226562 C 657.867188 545.398438 652.121094 555.578125 646.371094 565.757812 C 641.746094 573.953125 654.335938 581.296875 658.957031 573.109375 C 664.703125 562.9375 670.453125 552.757812 676.203125 542.578125 C 678.910156 537.789062 675.492188 531.617188 669.90625 531.617188 C 488.785156 531.617188 307.664062 531.617188 126.539062 531.617188 C 121.3125 531.617188 117.058594 537.914062 120.25 542.578125 C 125.917969 550.871094 136.527344 576.722656 148.394531 576.722656 C 159.949219 576.722656 171.503906 576.722656 183.058594 576.722656 C 241.40625 576.722656 299.757812 576.722656 358.105469 576.722656 C 456.292969 576.722656 554.480469 576.722656 652.664062 576.722656 C 662.066406 576.722656 662.066406 562.144531 652.667969 562.144531 Z M 652.667969 562.144531 "
              fill-opacity="1" fill-rule="nonzero"/>
    </g>
</svg>
