<svg xmlns="http://www.w3.org/2000/svg" xmlns:xlink="http://www.w3.org/1999/xlink" width="1080" zoomAndPan="magnify"
     viewBox="0 0 810 809.999993" height="1080" preserveAspectRatio="xMidYMid meet" version="1.0">
    <defs>
        <clipPath id="id1">
            <path d="M 10.929688 9.945312 L 800.679688 9.945312 L 800.679688 799.695312 L 10.929688 799.695312 Z M 10.929688 9.945312 "
                  clip-rule="nonzero"/>
        </clipPath>
        <clipPath id="id2">
            <path d="M 236.132812 146 L 573.632812 146 L 573.632812 628.941406 L 236.132812 628.941406 Z M 236.132812 146 "
                  clip-rule="nonzero"/>
        </clipPath>
    </defs>

    <g clip-path="url(#id1)">
        <path fill="#26c0e4"
              d="M 800.679688 404.828125 C 800.679688 622.898438 623.882812 799.695312 405.804688 799.695312 C 187.722656 799.695312 10.929688 622.898438 10.929688 404.828125 C 10.929688 186.742188 187.722656 9.949219 405.804688 9.949219 C 623.886719 9.949219 800.679688 186.742188 800.679688 404.828125 Z M 800.679688 404.828125 "
              fill-opacity="1" fill-rule="nonzero"/>
    </g>
    <g clip-path="url(#id2)">
        <path fill="#ffffff"
              d="M 543.824219 585 C 543.816406 588.753906 542.316406 592.097656 539.789062 594.640625 C 537.238281 597.167969 533.882812 598.675781 530.117188 598.675781 L 279.65625 598.675781 C 275.875 598.671875 272.535156 597.167969 269.992188 594.648438 C 267.472656 592.109375 265.972656 588.761719 265.964844 585 L 265.964844 384.515625 C 265.972656 380.765625 267.464844 377.417969 269.992188 374.875 C 272.535156 372.347656 275.878906 370.847656 279.65625 370.839844 L 530.117188 370.839844 C 533.875 370.839844 537.230469 372.347656 539.789062 374.875 C 542.316406 377.429688 543.816406 380.777344 543.824219 384.515625 Z M 329.949219 202.550781 C 346.285156 186.253906 368.679688 176.210938 393.578125 176.203125 L 416.21875 176.203125 C 441.113281 176.210938 463.507812 186.253906 479.84375 202.550781 C 496.144531 218.886719 506.183594 241.28125 506.191406 266.175781 L 506.191406 341.007812 L 303.601562 341.007812 L 303.601562 266.175781 C 303.609375 241.28125 313.644531 218.886719 329.949219 202.550781 Z M 536.023438 341.46875 L 536.023438 266.175781 C 536.015625 200.003906 482.394531 146.378906 416.21875 146.371094 L 393.578125 146.371094 C 327.402344 146.378906 273.777344 200.003906 273.769531 266.175781 L 273.769531 341.460938 C 252.519531 344.375 236.183594 362.5 236.132812 384.515625 L 236.132812 585 C 236.175781 609.019531 255.605469 628.464844 279.65625 628.507812 L 530.117188 628.507812 C 554.140625 628.449219 573.597656 609.050781 573.65625 585 L 573.65625 384.515625 C 573.597656 362.492188 557.246094 344.394531 536.023438 341.46875 "
              fill-opacity="1" fill-rule="nonzero"/>
    </g>
    <path fill="#ffffff"
          d="M 434.722656 457.410156 C 434.722656 440.9375 421.367188 427.582031 404.894531 427.582031 C 388.417969 427.582031 375.0625 440.9375 375.0625 457.410156 C 375.0625 469.558594 382.355469 479.96875 392.765625 484.621094 L 371.484375 541.929688 L 438.300781 541.929688 L 417.019531 484.621094 C 427.433594 479.96875 434.722656 469.558594 434.722656 457.410156 "
          fill-opacity="1" fill-rule="nonzero"/>
</svg>
