<svg xmlns="http://www.w3.org/2000/svg" xmlns:xlink="http://www.w3.org/1999/xlink" width="1080" zoomAndPan="magnify"
     viewBox="0 0 810 809.999993" height="1080" preserveAspectRatio="xMidYMid meet" version="1.0">
    <defs>
        <clipPath id="id1">
            <path d="M 10.929688 9.945312 L 800.679688 9.945312 L 800.679688 799.695312 L 10.929688 799.695312 Z M 10.929688 9.945312 "
                  clip-rule="nonzero"/>
        </clipPath>
        <clipPath id="id2">
            <path d="M 404.402344 319 L 649.800781 319 L 649.800781 564.390625 L 404.402344 564.390625 Z M 404.402344 319 "
                  clip-rule="nonzero"/>
        </clipPath>
        <clipPath id="id3">
            <path d="M 161.914062 409 L 407 409 L 407 654.148438 L 161.914062 654.148438 Z M 161.914062 409 "
                  clip-rule="nonzero"/>
        </clipPath>
    </defs>

    <g clip-path="url(#id1)">
        <path fill="#26c0e4"
              d="M 800.679688 404.828125 C 800.679688 622.898438 623.882812 799.695312 405.804688 799.695312 C 187.722656 799.695312 10.929688 622.898438 10.929688 404.828125 C 10.929688 186.742188 187.722656 9.949219 405.804688 9.949219 C 623.886719 9.949219 800.679688 186.742188 800.679688 404.828125 Z M 800.679688 404.828125 "
              fill-opacity="1" fill-rule="nonzero"/>
    </g>
    <g clip-path="url(#id2)">
        <path fill="#ffffff"
              d="M 527.257812 319.085938 C 561.09375 319.085938 591.730469 332.796875 613.90625 354.96875 C 636.082031 377.140625 649.792969 407.769531 649.792969 441.59375 C 649.792969 475.425781 636.082031 506.054688 613.90625 528.226562 C 591.730469 550.398438 561.09375 564.109375 527.257812 564.109375 C 493.417969 564.109375 462.789062 550.398438 440.613281 528.226562 C 418.4375 506.054688 404.722656 475.425781 404.722656 441.59375 C 404.722656 407.769531 418.4375 377.140625 440.613281 354.96875 C 462.789062 332.796875 493.417969 319.085938 527.257812 319.085938 Z M 599.464844 369.40625 C 580.984375 350.933594 555.457031 339.503906 527.257812 339.503906 C 499.0625 339.503906 473.527344 350.933594 455.050781 369.40625 C 436.578125 387.882812 425.148438 413.40625 425.148438 441.59375 C 425.148438 469.789062 436.578125 495.316406 455.050781 513.789062 C 473.527344 532.261719 499.0625 543.6875 527.257812 543.6875 C 555.457031 543.6875 580.984375 532.261719 599.464844 513.789062 C 617.941406 495.316406 629.371094 469.789062 629.371094 441.59375 C 629.371094 413.40625 617.941406 387.882812 599.464844 369.40625 "
              fill-opacity="1" fill-rule="nonzero"/>
    </g>
    <path fill="#ffffff"
          d="M 527.257812 348.46875 C 552.976562 348.46875 576.265625 358.898438 593.121094 375.75 C 609.980469 392.601562 620.40625 415.882812 620.40625 441.59375 C 620.40625 467.3125 609.980469 490.59375 593.121094 507.449219 C 576.265625 524.300781 552.976562 534.722656 527.257812 534.722656 C 501.539062 534.722656 478.25 524.300781 461.398438 507.449219 C 444.539062 490.59375 434.113281 467.3125 434.113281 441.59375 C 434.113281 415.882812 444.539062 392.601562 461.398438 375.75 C 478.25 358.898438 501.539062 348.46875 527.257812 348.46875 Z M 585.898438 382.96875 C 570.898438 367.964844 550.15625 358.683594 527.257812 358.683594 C 504.355469 358.683594 483.621094 367.964844 468.613281 382.96875 C 453.609375 397.972656 444.328125 418.699219 444.328125 441.59375 C 444.328125 464.492188 453.609375 485.226562 468.613281 500.230469 C 483.625 515.230469 504.355469 524.511719 527.257812 524.511719 C 550.15625 524.511719 570.898438 515.230469 585.898438 500.230469 C 600.90625 485.226562 610.191406 464.492188 610.191406 441.59375 C 610.191406 418.699219 600.90625 397.972656 585.898438 382.96875 "
          fill-opacity="1" fill-rule="nonzero"/>
    <path fill="#ffffff"
          d="M 525.050781 471.582031 L 525.050781 445 C 516.746094 442.613281 510.660156 439.042969 506.78125 434.230469 C 502.921875 429.417969 500.972656 423.589844 500.972656 416.746094 C 500.972656 409.8125 503.160156 403.980469 507.539062 399.257812 C 511.9375 394.53125 517.761719 391.828125 525.050781 391.085938 L 525.050781 384.804688 L 534.238281 384.804688 L 534.238281 391.085938 C 540.980469 391.914062 546.332031 394.191406 550.316406 397.980469 C 554.285156 401.773438 556.820312 406.84375 557.925781 413.1875 L 541.863281 415.292969 C 540.890625 410.289062 538.355469 406.90625 534.238281 405.128906 L 534.238281 429.941406 C 544.402344 432.691406 551.335938 436.265625 555 440.640625 C 558.683594 445.019531 560.523438 450.632812 560.523438 457.503906 C 560.523438 465.148438 558.210938 471.609375 553.589844 476.851562 C 548.953125 482.117188 542.496094 485.324219 534.238281 486.515625 L 534.238281 498.390625 L 525.050781 498.390625 L 525.050781 486.820312 C 517.722656 485.929688 511.765625 483.199219 507.191406 478.628906 C 502.617188 474.078125 499.714844 467.621094 498.433594 459.277344 L 515.015625 457.503906 C 515.683594 460.882812 516.964844 463.808594 518.824219 466.253906 C 520.671875 468.699219 522.75 470.480469 525.050781 471.582031 Z M 525.050781 404.933594 C 522.535156 405.78125 520.5625 407.234375 519.066406 409.25 C 517.59375 411.285156 516.859375 413.535156 516.859375 415.988281 C 516.859375 418.21875 517.527344 420.316406 518.875 422.226562 C 520.238281 424.152344 522.300781 425.714844 525.050781 426.90625 Z M 534.238281 472.472656 C 537.421875 471.890625 540 470.414062 541.996094 468.074219 C 543.992188 465.710938 544.984375 462.960938 544.984375 459.777344 C 544.984375 456.9375 544.144531 454.511719 542.476562 452.453125 C 540.808594 450.394531 538.054688 448.8125 534.238281 447.730469 L 534.238281 472.472656 "
          fill-opacity="1" fill-rule="nonzero"/>
    <g clip-path="url(#id3)">
        <path fill="#ffffff"
              d="M 284.453125 409.128906 C 318.289062 409.128906 348.921875 422.839844 371.097656 445.007812 C 393.273438 467.179688 406.992188 497.804688 406.992188 531.636719 C 406.992188 565.464844 393.273438 596.097656 371.097656 618.265625 C 348.921875 640.4375 318.289062 654.148438 284.453125 654.148438 C 250.617188 654.148438 219.980469 640.4375 197.804688 618.265625 C 175.628906 596.097656 161.914062 565.464844 161.914062 531.636719 C 161.914062 497.804688 175.628906 467.179688 197.804688 445.007812 C 219.980469 422.839844 250.617188 409.128906 284.453125 409.128906 Z M 356.65625 459.445312 C 338.179688 440.972656 312.648438 429.546875 284.453125 429.546875 C 256.253906 429.546875 230.726562 440.972656 212.242188 459.445312 C 193.769531 477.917969 182.339844 503.441406 182.339844 531.636719 C 182.339844 559.832031 193.769531 585.351562 212.242188 603.832031 C 230.726562 622.300781 256.253906 633.730469 284.453125 633.730469 C 312.648438 633.730469 338.179688 622.300781 356.65625 603.832031 C 375.132812 585.351562 386.570312 559.832031 386.570312 531.636719 C 386.570312 503.441406 375.132812 477.917969 356.65625 459.445312 "
              fill-opacity="1" fill-rule="nonzero"/>
    </g>
    <path fill="#ffffff"
          d="M 284.453125 438.511719 C 310.171875 438.511719 333.460938 448.933594 350.316406 465.785156 C 367.171875 482.644531 377.597656 505.921875 377.597656 531.636719 C 377.597656 557.351562 367.171875 580.632812 350.316406 597.484375 C 333.460938 614.335938 310.171875 624.765625 284.453125 624.765625 C 258.730469 624.765625 235.445312 614.335938 218.589844 597.484375 C 201.734375 580.632812 191.3125 557.351562 191.3125 531.636719 C 191.3125 505.921875 201.734375 482.644531 218.589844 465.785156 C 235.445312 448.933594 258.730469 438.511719 284.453125 438.511719 Z M 343.097656 473.003906 C 328.089844 458.003906 307.355469 448.71875 284.453125 448.71875 C 261.550781 448.71875 240.820312 458.003906 225.808594 473.003906 C 210.800781 488.007812 201.519531 508.738281 201.519531 531.636719 C 201.519531 554.53125 210.800781 575.261719 225.808594 590.265625 C 240.820312 605.273438 261.550781 614.554688 284.453125 614.554688 C 307.355469 614.554688 328.089844 605.273438 343.097656 590.265625 C 358.105469 575.261719 367.382812 554.53125 367.382812 531.636719 C 367.382812 508.738281 358.105469 488.007812 343.097656 473.003906 "
          fill-opacity="1" fill-rule="nonzero"/>
    <path fill="#ffffff"
          d="M 282.242188 561.625 L 282.242188 535.039062 C 273.9375 532.65625 267.851562 529.078125 263.972656 524.269531 C 260.117188 519.460938 258.164062 513.632812 258.164062 506.785156 C 258.164062 499.847656 260.351562 494.023438 264.730469 489.296875 C 269.128906 484.574219 274.960938 481.863281 282.242188 481.128906 L 282.242188 474.84375 L 291.429688 474.84375 L 291.429688 481.128906 C 298.171875 481.953125 303.523438 484.226562 307.511719 488.019531 C 311.476562 491.8125 314.011719 496.878906 315.117188 503.230469 L 299.0625 505.335938 C 298.082031 500.324219 295.546875 496.949219 291.429688 495.167969 L 291.429688 519.980469 C 301.59375 522.734375 308.527344 526.304688 312.191406 530.683594 C 315.875 535.0625 317.714844 540.675781 317.714844 547.539062 C 317.714844 555.191406 315.402344 561.644531 310.785156 566.890625 C 306.144531 572.15625 299.6875 575.363281 291.429688 576.554688 L 291.429688 588.429688 L 282.242188 588.429688 L 282.242188 576.855469 C 274.917969 575.972656 268.957031 573.242188 264.382812 568.667969 C 259.808594 564.117188 256.90625 557.65625 255.625 549.320312 L 272.207031 547.539062 C 272.875 550.921875 274.160156 553.847656 276.023438 556.296875 C 277.863281 558.742188 279.945312 560.519531 282.242188 561.625 Z M 282.242188 494.976562 C 279.726562 495.820312 277.753906 497.273438 276.261719 499.289062 C 274.785156 501.324219 274.050781 503.578125 274.050781 506.023438 C 274.050781 508.253906 274.722656 510.359375 276.066406 512.261719 C 277.429688 514.195312 279.492188 515.757812 282.242188 516.945312 Z M 291.429688 562.515625 C 294.613281 561.929688 297.199219 560.457031 299.1875 558.117188 C 301.183594 555.753906 302.183594 553 302.183594 549.820312 C 302.183594 546.976562 301.335938 544.550781 299.667969 542.496094 C 298 540.433594 295.246094 538.855469 291.429688 537.769531 L 291.429688 562.515625 "
          fill-opacity="1" fill-rule="nonzero"/>
    <path fill="#ffffff"
          d="M 296.183594 200.707031 C 296.140625 193.214844 288.40625 188.28125 281.601562 191.480469 C 278 193.199219 275.78125 196.726562 275.761719 200.707031 L 275.761719 241.546875 C 275.800781 249.039062 283.53125 253.972656 290.34375 250.773438 C 293.9375 249.046875 296.15625 245.527344 296.183594 241.546875 Z M 275.761719 343.640625 C 275.800781 351.132812 283.53125 356.066406 290.34375 352.867188 C 293.9375 351.144531 296.15625 347.625 296.183594 343.640625 L 296.183594 302.800781 C 296.140625 295.304688 288.40625 290.375 281.601562 293.574219 C 278 295.292969 275.78125 298.816406 275.761719 302.800781 L 275.761719 343.640625 "
          fill-opacity="1" fill-rule="nonzero"/>
    <path fill="#ffffff"
          d="M 214.492188 175.03125 C 214.449219 167.535156 206.714844 162.605469 199.910156 165.804688 C 196.316406 167.523438 194.089844 171.050781 194.066406 175.03125 L 194.066406 215.871094 C 194.109375 223.363281 201.847656 228.296875 208.648438 225.097656 C 212.242188 223.375 214.46875 219.855469 214.492188 215.871094 Z M 194.066406 399.210938 C 194.109375 406.703125 201.847656 411.636719 208.648438 408.4375 C 212.242188 406.710938 214.46875 403.191406 214.492188 399.210938 L 214.492188 379.222656 C 214.449219 371.726562 206.714844 366.796875 199.910156 369.988281 C 196.316406 371.714844 194.089844 375.234375 194.066406 379.222656 Z M 194.066406 317.964844 C 194.109375 325.457031 201.847656 330.390625 208.648438 327.195312 C 212.242188 325.46875 214.46875 321.949219 214.492188 317.964844 L 214.492188 277.128906 C 214.449219 269.628906 206.714844 264.699219 199.910156 267.898438 C 196.316406 269.621094 194.089844 273.144531 194.066406 277.128906 L 194.066406 317.964844 "
          fill-opacity="1" fill-rule="nonzero"/>
    <path fill="#ffffff"
          d="M 469.769531 167.855469 C 469.730469 160.359375 462 155.429688 455.1875 158.625 C 451.59375 160.347656 449.375 163.867188 449.347656 167.855469 L 449.347656 208.695312 C 449.394531 216.1875 457.125 221.117188 463.933594 217.921875 C 467.527344 216.195312 469.75 212.675781 469.769531 208.695312 Z M 449.347656 310.785156 C 449.394531 318.28125 457.125 323.210938 463.933594 320.015625 C 467.527344 318.292969 469.75 314.773438 469.769531 310.785156 L 469.769531 269.945312 C 469.730469 262.453125 462 257.523438 455.1875 260.71875 C 451.59375 262.445312 449.375 265.964844 449.347656 269.945312 L 449.347656 310.785156 "
          fill-opacity="1" fill-rule="nonzero"/>
    <path fill="#ffffff"
          d="M 357.445312 171.699219 C 357.40625 164.207031 349.667969 159.277344 342.863281 162.46875 C 339.269531 164.195312 337.050781 167.714844 337.023438 171.699219 L 337.023438 212.535156 C 337.070312 220.03125 344.800781 224.960938 351.609375 221.769531 C 355.207031 220.042969 357.425781 216.523438 357.445312 212.535156 Z M 337.023438 398.910156 C 337.070312 406.40625 344.800781 411.335938 351.609375 408.136719 C 355.207031 406.417969 357.425781 402.898438 357.445312 398.910156 L 357.445312 375.886719 C 357.40625 368.394531 349.667969 363.460938 342.863281 366.660156 C 339.269531 368.378906 337.050781 371.902344 337.023438 375.886719 Z M 337.023438 314.628906 C 337.070312 322.128906 344.800781 327.058594 351.609375 323.859375 C 355.207031 322.136719 357.425781 318.617188 357.445312 314.628906 L 357.445312 273.792969 C 357.40625 266.300781 349.667969 261.363281 342.863281 264.5625 C 339.269531 266.289062 337.050781 269.808594 337.023438 273.792969 L 337.023438 314.628906 "
          fill-opacity="1" fill-rule="nonzero"/>
    <path fill="#ffffff"
          d="M 541.253906 167.855469 C 541.210938 160.359375 533.476562 155.429688 526.671875 158.625 C 523.078125 160.347656 520.851562 163.867188 520.832031 167.855469 L 520.832031 208.695312 C 520.875 216.1875 528.609375 221.117188 535.414062 217.921875 C 539.007812 216.195312 541.234375 212.675781 541.253906 208.695312 Z M 520.832031 294.179688 C 520.875 301.675781 528.609375 306.605469 535.414062 303.40625 C 539.007812 301.6875 541.234375 298.167969 541.253906 294.179688 L 541.253906 269.945312 C 541.210938 262.453125 533.476562 257.523438 526.671875 260.71875 C 523.078125 262.445312 520.851562 265.964844 520.832031 269.945312 L 520.832031 294.179688 "
          fill-opacity="1" fill-rule="nonzero"/>
    <path fill="#ffffff"
          d="M 602.523438 167.855469 C 602.480469 160.359375 594.746094 155.429688 587.941406 158.625 C 584.347656 160.347656 582.121094 163.867188 582.101562 167.855469 L 582.101562 208.695312 C 582.140625 216.1875 589.878906 221.117188 596.683594 217.921875 C 600.277344 216.195312 602.503906 212.675781 602.523438 208.695312 Z M 582.101562 310.785156 C 582.140625 318.28125 589.878906 323.210938 596.683594 320.015625 C 600.277344 318.292969 602.503906 314.773438 602.523438 310.785156 L 602.523438 269.945312 C 602.480469 262.453125 594.746094 257.523438 587.941406 260.71875 C 584.347656 262.445312 582.121094 265.964844 582.101562 269.945312 L 582.101562 310.785156 "
          fill-opacity="1" fill-rule="nonzero"/>
</svg>
