<svg xmlns="http://www.w3.org/2000/svg" xmlns:xlink="http://www.w3.org/1999/xlink" width="1080" zoomAndPan="magnify"
     viewBox="0 0 810 809.999993" height="1080" preserveAspectRatio="xMidYMid meet" version="1.0">
    <defs>
        <clipPath id="id1">
            <path d="M 10.929688 9.945312 L 800.679688 9.945312 L 800.679688 799.695312 L 10.929688 799.695312 Z M 10.929688 9.945312 "
                  clip-rule="nonzero"/>
        </clipPath>
        <clipPath id="id2">
            <path d="M 176.59375 156.863281 L 683.59375 156.863281 L 683.59375 609.863281 L 176.59375 609.863281 Z M 176.59375 156.863281 "
                  clip-rule="nonzero"/>
        </clipPath>
    </defs>

    <g clip-path="url(#id1)">
        <path fill="#26c0e4"
              d="M 800.679688 404.828125 C 800.679688 622.898438 623.882812 799.695312 405.804688 799.695312 C 187.722656 799.695312 10.929688 622.898438 10.929688 404.828125 C 10.929688 186.742188 187.722656 9.949219 405.804688 9.949219 C 623.886719 9.949219 800.679688 186.742188 800.679688 404.828125 Z M 800.679688 404.828125 "
              fill-opacity="1" fill-rule="nonzero"/>
    </g>
    <g clip-path="url(#id2)">
        <path fill="#ffffff"
              d="M 589.765625 162.488281 C 499.761719 259.242188 409.769531 355.996094 319.777344 452.757812 C 328.261719 452.757812 336.75 452.757812 345.234375 452.757812 C 319.089844 427.765625 292.945312 402.789062 266.792969 377.796875 C 259.992188 371.296875 247.992188 370.359375 241.332031 377.796875 C 221.550781 399.886719 201.773438 421.980469 181.996094 444.074219 C 175.574219 451.253906 174.613281 462.503906 181.996094 469.554688 C 229.128906 514.585938 276.261719 559.617188 323.398438 604.644531 C 330.296875 611.238281 342.058594 611.953125 348.855469 604.644531 C 458.65625 486.605469 568.457031 368.554688 678.253906 250.503906 C 684.914062 243.347656 685.40625 232.121094 678.253906 225.023438 C 657.25 204.175781 636.230469 183.332031 615.226562 162.488281 C 598.722656 146.113281 573.261719 171.59375 589.765625 187.96875 C 610.773438 208.820312 631.792969 229.664062 652.796875 250.503906 C 652.796875 242.011719 652.796875 233.519531 652.796875 225.023438 C 542.996094 343.066406 433.199219 461.121094 323.398438 579.164062 C 331.882812 579.164062 340.371094 579.164062 348.855469 579.164062 C 301.726562 534.128906 254.589844 489.101562 207.457031 444.070312 C 207.457031 452.566406 207.457031 461.0625 207.457031 469.554688 C 227.238281 447.464844 247.019531 425.371094 266.792969 403.277344 C 258.308594 403.277344 249.820312 403.277344 241.332031 403.277344 C 267.476562 428.265625 293.625 453.246094 319.777344 478.238281 C 326.675781 484.832031 338.4375 485.546875 345.238281 478.238281 C 435.238281 381.484375 525.226562 284.734375 615.226562 187.972656 C 631.027344 170.988281 605.613281 145.441406 589.765625 162.488281 Z M 589.765625 162.488281 "
              fill-opacity="1" fill-rule="nonzero"/>
    </g>
</svg>
