<svg xmlns="http://www.w3.org/2000/svg" xmlns:xlink="http://www.w3.org/1999/xlink" width="1080" zoomAndPan="magnify"
     viewBox="0 0 810 809.999993" height="1080" preserveAspectRatio="xMidYMid meet" version="1.0">
    <defs>
        <clipPath id="id1">
            <path d="M 10.929688 9.945312 L 800.679688 9.945312 L 800.679688 799.695312 L 10.929688 799.695312 Z M 10.929688 9.945312 "
                  clip-rule="nonzero"/>
        </clipPath>
        <clipPath id="id2">
            <path d="M 140.074219 124.503906 L 711.574219 124.503906 L 711.574219 644.253906 L 140.074219 644.253906 Z M 140.074219 124.503906 "
                  clip-rule="nonzero"/>
        </clipPath>
    </defs>

    <g clip-path="url(#id1)">
        <path fill="#26c0e4"
              d="M 800.679688 404.828125 C 800.679688 622.898438 623.882812 799.695312 405.804688 799.695312 C 187.722656 799.695312 10.929688 622.898438 10.929688 404.828125 C 10.929688 186.742188 187.722656 9.949219 405.804688 9.949219 C 623.886719 9.949219 800.679688 186.742188 800.679688 404.828125 Z M 800.679688 404.828125 "
              fill-opacity="1" fill-rule="nonzero"/>
    </g>
    <g clip-path="url(#id2)">
        <path fill="#ffffff"
              d="M 690.953125 419.855469 C 689.359375 418.59375 687.699219 417.425781 685.972656 416.351562 C 684.25 415.28125 682.46875 414.304688 680.632812 413.433594 C 678.796875 412.558594 676.921875 411.792969 675 411.128906 C 673.078125 410.46875 671.125 409.914062 669.144531 409.472656 C 667.160156 409.027344 665.160156 408.699219 663.136719 408.480469 C 661.117188 408.261719 659.09375 408.160156 657.0625 408.167969 C 655.027344 408.179688 653.003906 408.300781 650.984375 408.539062 C 648.96875 408.777344 646.96875 409.125 644.992188 409.589844 L 490.742188 445.972656 C 490.636719 444.339844 490.453125 442.71875 490.195312 441.105469 C 489.9375 439.492188 489.601562 437.894531 489.191406 436.3125 C 488.78125 434.730469 488.300781 433.171875 487.742188 431.636719 C 487.1875 430.101562 486.558594 428.59375 485.863281 427.117188 C 485.164062 425.640625 484.398438 424.199219 483.5625 422.792969 C 482.726562 421.390625 481.828125 420.027344 480.867188 418.707031 C 479.90625 417.386719 478.882812 416.117188 477.800781 414.894531 C 476.71875 413.667969 475.582031 412.5 474.386719 411.382812 C 473.195312 410.269531 471.953125 409.210938 470.660156 408.210938 C 469.367188 407.214844 468.03125 406.277344 466.652344 405.40625 C 465.269531 404.53125 463.851562 403.726562 462.394531 402.988281 C 460.941406 402.25 459.453125 401.582031 457.933594 400.984375 C 456.414062 400.386719 454.871094 399.859375 453.300781 399.40625 C 451.730469 398.953125 450.144531 398.578125 448.539062 398.273438 C 446.9375 397.972656 445.320312 397.746094 443.695312 397.59375 C 442.070312 397.445312 440.441406 397.371094 438.808594 397.375 L 359.867188 397.375 C 353.066406 397.355469 346.292969 397.78125 339.550781 398.644531 C 332.804688 399.507812 326.148438 400.808594 319.570312 402.539062 C 312.996094 404.273438 306.5625 406.425781 300.265625 408.996094 C 293.972656 411.566406 287.871094 414.539062 281.960938 417.90625 L 241.191406 441.554688 C 240.601562 440.761719 239.929688 440.050781 239.175781 439.414062 C 238.421875 438.777344 237.605469 438.234375 236.730469 437.785156 C 235.851562 437.335938 234.933594 436.988281 233.976562 436.746094 C 233.023438 436.507812 232.050781 436.375 231.066406 436.355469 L 153.164062 436.355469 C 152.308594 436.355469 151.464844 436.4375 150.628906 436.605469 C 149.792969 436.773438 148.980469 437.019531 148.195312 437.34375 C 147.40625 437.671875 146.65625 438.070312 145.949219 438.546875 C 145.238281 439.019531 144.585938 439.558594 143.980469 440.160156 C 143.378906 440.765625 142.839844 441.421875 142.367188 442.128906 C 141.894531 442.839844 141.492188 443.589844 141.167969 444.375 C 140.839844 445.164062 140.59375 445.976562 140.429688 446.8125 C 140.261719 447.652344 140.179688 448.496094 140.179688 449.347656 L 140.179688 631.261719 C 140.179688 632.113281 140.261719 632.960938 140.429688 633.796875 C 140.59375 634.632812 140.839844 635.445312 141.167969 636.234375 C 141.492188 637.023438 141.894531 637.769531 142.367188 638.480469 C 142.839844 639.191406 143.378906 639.847656 143.980469 640.449219 C 144.585938 641.054688 145.238281 641.589844 145.949219 642.066406 C 146.65625 642.539062 147.40625 642.941406 148.195312 643.265625 C 148.980469 643.59375 149.792969 643.839844 150.628906 644.007812 C 151.464844 644.171875 152.308594 644.253906 153.164062 644.253906 L 231.066406 644.253906 C 231.917969 644.253906 232.761719 644.171875 233.597656 644.007812 C 234.433594 643.839844 235.246094 643.59375 236.035156 643.265625 C 236.820312 642.941406 237.570312 642.539062 238.277344 642.066406 C 238.988281 641.589844 239.644531 641.054688 240.246094 640.449219 C 240.847656 639.847656 241.386719 639.191406 241.859375 638.480469 C 242.335938 637.769531 242.734375 637.023438 243.0625 636.234375 C 243.386719 635.445312 243.632812 634.632812 243.800781 633.796875 C 243.964844 632.960938 244.050781 632.113281 244.050781 631.261719 L 353.113281 631.261719 C 365.21875 631.257812 377.15625 629.863281 388.9375 627.074219 C 400.714844 624.289062 412.015625 620.183594 422.835938 614.761719 L 704.328125 473.90625 C 705.398438 473.367188 706.375 472.691406 707.257812 471.882812 C 708.144531 471.070312 708.898438 470.15625 709.53125 469.132812 C 710.160156 468.113281 710.640625 467.027344 710.96875 465.875 C 711.296875 464.71875 711.464844 463.542969 711.46875 462.34375 C 711.46875 460.304688 711.355469 458.277344 711.128906 456.253906 C 710.902344 454.230469 710.558594 452.226562 710.105469 450.238281 C 709.652344 448.253906 709.089844 446.300781 708.414062 444.378906 C 707.742188 442.457031 706.960938 440.578125 706.078125 438.746094 C 705.191406 436.914062 704.207031 435.132812 703.121094 433.410156 C 702.035156 431.6875 700.855469 430.035156 699.582031 428.445312 C 698.3125 426.855469 696.953125 425.339844 695.511719 423.90625 C 694.066406 422.46875 692.550781 421.117188 690.953125 419.855469 Z M 166.144531 618.269531 L 166.144531 462.34375 L 218.082031 462.34375 L 218.082031 618.269531 Z M 411.28125 591.5 C 402.246094 596.003906 392.816406 599.417969 382.992188 601.746094 C 373.167969 604.070312 363.207031 605.246094 353.113281 605.273438 L 244.050781 605.273438 L 244.050781 469.878906 L 295.984375 440.511719 C 300.90625 437.695312 305.988281 435.214844 311.230469 433.0625 C 316.476562 430.914062 321.835938 429.113281 327.316406 427.664062 C 332.796875 426.21875 338.347656 425.132812 343.96875 424.414062 C 349.59375 423.691406 355.238281 423.34375 360.902344 423.363281 L 438.808594 423.363281 C 439.65625 423.363281 440.507812 423.402344 441.351562 423.488281 C 442.199219 423.570312 443.039062 423.695312 443.875 423.859375 C 444.707031 424.027344 445.53125 424.234375 446.34375 424.480469 C 447.160156 424.726562 447.960938 425.015625 448.746094 425.339844 C 449.53125 425.664062 450.296875 426.027344 451.046875 426.429688 C 451.796875 426.832031 452.527344 427.269531 453.234375 427.742188 C 453.941406 428.214844 454.625 428.722656 455.28125 429.261719 C 455.9375 429.800781 456.566406 430.371094 457.167969 430.972656 C 457.769531 431.574219 458.339844 432.207031 458.878906 432.863281 C 459.421875 433.519531 459.925781 434.203125 460.398438 434.910156 C 460.871094 435.621094 461.308594 436.347656 461.707031 437.097656 C 462.109375 437.847656 462.472656 438.617188 462.796875 439.40625 C 463.125 440.191406 463.410156 440.992188 463.65625 441.804688 C 463.902344 442.621094 464.109375 443.445312 464.277344 444.28125 C 464.441406 445.113281 464.566406 445.957031 464.648438 446.800781 C 464.734375 447.648438 464.773438 448.5 464.773438 449.347656 C 464.773438 450.199219 464.734375 451.050781 464.648438 451.898438 C 464.566406 452.742188 464.441406 453.585938 464.277344 454.417969 C 464.109375 455.253906 463.902344 456.078125 463.65625 456.894531 C 463.410156 457.707031 463.125 458.507812 462.796875 459.292969 C 462.472656 460.082031 462.109375 460.847656 461.707031 461.601562 C 461.308594 462.351562 460.871094 463.078125 460.398438 463.789062 C 459.925781 464.496094 459.421875 465.179688 458.878906 465.835938 C 458.339844 466.492188 457.769531 467.125 457.167969 467.726562 C 456.566406 468.328125 455.9375 468.898438 455.28125 469.4375 C 454.625 469.976562 453.941406 470.484375 453.234375 470.957031 C 452.527344 471.429688 451.796875 471.867188 451.046875 472.269531 C 450.296875 472.667969 449.53125 473.03125 448.746094 473.359375 C 447.960938 473.683594 447.160156 473.972656 446.34375 474.21875 C 445.53125 474.464844 444.707031 474.671875 443.875 474.835938 C 443.039062 475.003906 442.199219 475.128906 441.351562 475.210938 C 440.507812 475.296875 439.65625 475.335938 438.808594 475.335938 L 321.953125 475.335938 L 321.953125 501.324219 L 438.808594 501.324219 C 441.136719 501.328125 443.453125 501.175781 445.761719 500.867188 C 448.070312 500.558594 450.347656 500.09375 452.59375 499.480469 C 454.839844 498.863281 457.03125 498.101562 459.175781 497.191406 C 461.320312 496.28125 463.390625 495.230469 465.394531 494.039062 C 467.394531 492.851562 469.308594 491.53125 471.132812 490.085938 C 472.957031 488.636719 474.679688 487.074219 476.292969 485.394531 C 477.910156 483.71875 479.402344 481.9375 480.78125 480.058594 C 482.15625 478.179688 483.398438 476.214844 484.511719 474.167969 L 650.964844 435.1875 C 653.027344 434.6875 655.117188 434.429688 657.238281 434.410156 C 659.359375 434.390625 661.457031 434.613281 663.527344 435.074219 C 665.597656 435.539062 667.589844 436.226562 669.5 437.144531 C 671.414062 438.0625 673.199219 439.1875 674.855469 440.511719 C 677.179688 442.375 679.164062 444.546875 680.804688 447.03125 C 682.445312 449.515625 683.664062 452.195312 684.460938 455.066406 Z M 425.824219 358.394531 C 427.734375 358.394531 429.648438 358.347656 431.558594 358.253906 C 433.46875 358.160156 435.375 358.019531 437.277344 357.828125 C 439.179688 357.640625 441.078125 357.410156 442.96875 357.128906 C 444.863281 356.847656 446.746094 356.519531 448.621094 356.144531 C 450.496094 355.773438 452.363281 355.351562 454.21875 354.886719 C 456.070312 354.421875 457.914062 353.914062 459.746094 353.359375 C 461.574219 352.800781 463.390625 352.203125 465.191406 351.558594 C 466.992188 350.914062 468.773438 350.222656 470.542969 349.492188 C 472.308594 348.757812 474.054688 347.984375 475.785156 347.164062 C 477.515625 346.347656 479.222656 345.488281 480.910156 344.585938 C 482.59375 343.683594 484.257812 342.738281 485.898438 341.753906 C 487.539062 340.769531 489.15625 339.746094 490.746094 338.683594 C 492.335938 337.621094 493.898438 336.519531 495.433594 335.378906 C 496.96875 334.238281 498.476562 333.0625 499.957031 331.847656 C 501.433594 330.632812 502.882812 329.382812 504.296875 328.097656 C 505.714844 326.8125 507.101562 325.496094 508.453125 324.140625 C 509.804688 322.789062 511.121094 321.402344 512.40625 319.984375 C 513.691406 318.566406 514.941406 317.117188 516.152344 315.636719 C 517.367188 314.160156 518.542969 312.648438 519.683594 311.113281 C 520.820312 309.574219 521.921875 308.011719 522.984375 306.417969 C 524.046875 304.828125 525.070312 303.210938 526.054688 301.570312 C 527.035156 299.929688 527.980469 298.265625 528.878906 296.578125 C 529.78125 294.886719 530.640625 293.179688 531.460938 291.449219 C 532.277344 289.71875 533.050781 287.96875 533.785156 286.203125 C 534.515625 284.433594 535.203125 282.648438 535.847656 280.847656 C 536.492188 279.042969 537.089844 277.226562 537.648438 275.394531 C 538.203125 273.566406 538.710938 271.722656 539.175781 269.863281 C 539.640625 268.007812 540.058594 266.140625 540.433594 264.265625 C 540.804688 262.386719 541.132812 260.5 541.414062 258.609375 C 541.695312 256.714844 541.929688 254.816406 542.117188 252.910156 C 542.304688 251.007812 542.445312 249.097656 542.539062 247.1875 C 542.632812 245.277344 542.679688 243.363281 542.679688 241.449219 C 542.679688 239.535156 542.632812 237.621094 542.539062 235.710938 C 542.445312 233.800781 542.304688 231.890625 542.117188 229.988281 C 541.929688 228.082031 541.695312 226.183594 541.414062 224.289062 C 541.132812 222.398438 540.804688 220.511719 540.433594 218.636719 C 540.058594 216.757812 539.640625 214.890625 539.175781 213.035156 C 538.710938 211.179688 538.203125 209.332031 537.648438 207.503906 C 537.089844 205.671875 536.492188 203.855469 535.847656 202.050781 C 535.203125 200.25 534.515625 198.464844 533.785156 196.695312 C 533.050781 194.929688 532.277344 193.179688 531.460938 191.449219 C 530.640625 189.71875 529.78125 188.011719 528.878906 186.324219 C 527.980469 184.632812 527.035156 182.96875 526.054688 181.328125 C 525.070312 179.6875 524.046875 178.070312 522.984375 176.480469 C 521.921875 174.886719 520.820312 173.324219 519.683594 171.785156 C 518.542969 170.25 517.367188 168.742188 516.152344 167.261719 C 514.941406 165.78125 513.691406 164.332031 512.40625 162.914062 C 511.121094 161.496094 509.804688 160.109375 508.453125 158.757812 C 507.101562 157.40625 505.714844 156.085938 504.296875 154.800781 C 502.882812 153.515625 501.433594 152.265625 499.957031 151.050781 C 498.476562 149.835938 496.96875 148.660156 495.433594 147.519531 C 493.898438 146.378906 492.335938 145.277344 490.746094 144.214844 C 489.15625 143.152344 487.539062 142.128906 485.898438 141.144531 C 484.257812 140.160156 482.59375 139.214844 480.910156 138.3125 C 479.222656 137.410156 477.515625 136.550781 475.785156 135.734375 C 474.054688 134.914062 472.308594 134.140625 470.542969 133.40625 C 468.773438 132.675781 466.992188 131.988281 465.191406 131.339844 C 463.390625 130.695312 461.574219 130.097656 459.746094 129.542969 C 457.914062 128.984375 456.070312 128.476562 454.21875 128.011719 C 452.363281 127.546875 450.496094 127.125 448.621094 126.753906 C 446.746094 126.378906 444.863281 126.050781 442.96875 125.769531 C 441.078125 125.492188 439.179688 125.257812 437.277344 125.070312 C 435.375 124.882812 433.46875 124.742188 431.558594 124.648438 C 429.648438 124.550781 427.734375 124.503906 425.824219 124.503906 C 423.910156 124.503906 422 124.550781 420.089844 124.648438 C 418.179688 124.742188 416.273438 124.882812 414.371094 125.070312 C 412.464844 125.257812 410.570312 125.492188 408.675781 125.769531 C 406.785156 126.050781 404.902344 126.378906 403.027344 126.753906 C 401.152344 127.125 399.285156 127.546875 397.429688 128.011719 C 395.574219 128.476562 393.734375 128.984375 391.902344 129.542969 C 390.074219 130.097656 388.257812 130.695312 386.457031 131.339844 C 384.65625 131.988281 382.871094 132.675781 381.105469 133.40625 C 379.339844 134.140625 377.589844 134.914062 375.863281 135.734375 C 374.132812 136.550781 372.425781 137.410156 370.738281 138.3125 C 369.050781 139.214844 367.386719 140.160156 365.75 141.144531 C 364.109375 142.128906 362.492188 143.152344 360.902344 144.214844 C 359.3125 145.277344 357.75 146.378906 356.214844 147.519531 C 354.675781 148.660156 353.171875 149.835938 351.691406 151.050781 C 350.214844 152.265625 348.765625 153.515625 347.347656 154.800781 C 345.929688 156.085938 344.546875 157.40625 343.195312 158.757812 C 341.84375 160.109375 340.523438 161.496094 339.238281 162.914062 C 337.957031 164.332031 336.707031 165.78125 335.492188 167.261719 C 334.28125 168.742188 333.105469 170.25 331.964844 171.785156 C 330.824219 173.324219 329.726562 174.886719 328.664062 176.480469 C 327.601562 178.070312 326.578125 179.6875 325.59375 181.328125 C 324.609375 182.96875 323.667969 184.632812 322.765625 186.324219 C 321.867188 188.011719 321.003906 189.71875 320.1875 191.449219 C 319.371094 193.179688 318.59375 194.929688 317.863281 196.695312 C 317.132812 198.464844 316.445312 200.25 315.800781 202.050781 C 315.15625 203.855469 314.554688 205.671875 314 207.503906 C 313.445312 209.332031 312.933594 211.179688 312.46875 213.035156 C 312.007812 214.890625 311.585938 216.757812 311.214844 218.636719 C 310.839844 220.511719 310.515625 222.398438 310.234375 224.289062 C 309.953125 226.183594 309.71875 228.082031 309.53125 229.988281 C 309.34375 231.890625 309.203125 233.800781 309.109375 235.710938 C 309.015625 237.621094 308.96875 239.535156 308.96875 241.449219 C 308.96875 243.363281 309.015625 245.277344 309.109375 247.1875 C 309.203125 249.097656 309.34375 251.007812 309.53125 252.910156 C 309.71875 254.816406 309.953125 256.714844 310.234375 258.609375 C 310.515625 260.5 310.839844 262.386719 311.214844 264.265625 C 311.585938 266.140625 312.007812 268.007812 312.46875 269.863281 C 312.933594 271.722656 313.445312 273.566406 314 275.394531 C 314.554688 277.226562 315.15625 279.042969 315.800781 280.847656 C 316.445312 282.648438 317.132812 284.433594 317.863281 286.203125 C 318.59375 287.96875 319.371094 289.71875 320.1875 291.449219 C 321.003906 293.179688 321.867188 294.886719 322.765625 296.578125 C 323.667969 298.265625 324.609375 299.929688 325.59375 301.570312 C 326.578125 303.210938 327.601562 304.828125 328.664062 306.417969 C 329.726562 308.011719 330.824219 309.574219 331.964844 311.113281 C 333.105469 312.648438 334.28125 314.160156 335.492188 315.636719 C 336.707031 317.117188 337.957031 318.566406 339.238281 319.984375 C 340.523438 321.402344 341.84375 322.789062 343.195312 324.140625 C 344.546875 325.496094 345.929688 326.8125 347.347656 328.097656 C 348.765625 329.382812 350.214844 330.632812 351.691406 331.847656 C 353.171875 333.0625 354.675781 334.238281 356.214844 335.378906 C 357.75 336.519531 359.3125 337.621094 360.902344 338.683594 C 362.492188 339.746094 364.109375 340.769531 365.75 341.753906 C 367.386719 342.738281 369.050781 343.683594 370.738281 344.585938 C 372.425781 345.488281 374.132812 346.347656 375.863281 347.164062 C 377.589844 347.984375 379.339844 348.757812 381.105469 349.492188 C 382.871094 350.222656 384.65625 350.914062 386.457031 351.558594 C 388.257812 352.203125 390.074219 352.800781 391.902344 353.359375 C 393.734375 353.914062 395.574219 354.421875 397.429688 354.886719 C 399.285156 355.351562 401.152344 355.773438 403.027344 356.144531 C 404.902344 356.519531 406.785156 356.847656 408.675781 357.128906 C 410.570312 357.410156 412.464844 357.640625 414.371094 357.828125 C 416.273438 358.019531 418.179688 358.160156 420.089844 358.253906 C 422 358.347656 423.910156 358.394531 425.824219 358.394531 Z M 425.824219 150.492188 C 427.3125 150.492188 428.796875 150.53125 430.28125 150.601562 C 431.769531 150.675781 433.25 150.785156 434.730469 150.929688 C 436.210938 151.078125 437.6875 151.257812 439.160156 151.476562 C 440.628906 151.695312 442.097656 151.949219 443.554688 152.242188 C 445.011719 152.53125 446.464844 152.855469 447.90625 153.21875 C 449.351562 153.582031 450.785156 153.976562 452.207031 154.410156 C 453.628906 154.84375 455.042969 155.308594 456.441406 155.808594 C 457.84375 156.3125 459.230469 156.847656 460.605469 157.417969 C 461.980469 157.988281 463.339844 158.589844 464.683594 159.226562 C 466.027344 159.863281 467.355469 160.53125 468.667969 161.234375 C 469.980469 161.933594 471.273438 162.667969 472.546875 163.433594 C 473.824219 164.199219 475.082031 164.996094 476.316406 165.820312 C 477.554688 166.648438 478.769531 167.507812 479.964844 168.394531 C 481.160156 169.28125 482.332031 170.195312 483.480469 171.140625 C 484.632812 172.082031 485.757812 173.054688 486.859375 174.054688 C 487.960938 175.054688 489.039062 176.082031 490.089844 177.132812 C 491.140625 178.1875 492.167969 179.265625 493.167969 180.367188 C 494.164062 181.46875 495.136719 182.597656 496.082031 183.746094 C 497.023438 184.898438 497.9375 186.070312 498.824219 187.265625 C 499.710938 188.460938 500.566406 189.679688 501.394531 190.917969 C 502.21875 192.15625 503.015625 193.410156 503.78125 194.6875 C 504.542969 195.964844 505.277344 197.261719 505.980469 198.574219 C 506.679688 199.886719 507.347656 201.214844 507.984375 202.5625 C 508.621094 203.90625 509.222656 205.265625 509.792969 206.640625 C 510.363281 208.015625 510.898438 209.40625 511.398438 210.808594 C 511.898438 212.207031 512.367188 213.621094 512.796875 215.046875 C 513.230469 216.46875 513.625 217.90625 513.988281 219.347656 C 514.347656 220.792969 514.675781 222.246094 514.964844 223.703125 C 515.253906 225.164062 515.507812 226.632812 515.726562 228.101562 C 515.945312 229.574219 516.128906 231.050781 516.273438 232.535156 C 516.417969 234.015625 516.527344 235.5 516.601562 236.988281 C 516.675781 238.472656 516.710938 239.960938 516.710938 241.449219 C 516.710938 242.9375 516.675781 244.425781 516.601562 245.914062 C 516.527344 247.398438 516.417969 248.882812 516.273438 250.363281 C 516.128906 251.847656 515.945312 253.324219 515.726562 254.796875 C 515.507812 256.269531 515.253906 257.734375 514.964844 259.195312 C 514.675781 260.652344 514.347656 262.105469 513.988281 263.550781 C 513.625 264.992188 513.230469 266.429688 512.796875 267.851562 C 512.367188 269.277344 511.898438 270.691406 511.398438 272.089844 C 510.898438 273.492188 510.363281 274.882812 509.792969 276.257812 C 509.222656 277.632812 508.621094 278.992188 507.984375 280.339844 C 507.347656 281.683594 506.679688 283.011719 505.980469 284.324219 C 505.277344 285.636719 504.542969 286.933594 503.78125 288.210938 C 503.015625 289.488281 502.21875 290.746094 501.394531 291.980469 C 500.566406 293.21875 499.710938 294.4375 498.824219 295.632812 C 497.9375 296.828125 497.023438 298 496.082031 299.152344 C 495.136719 300.300781 494.164062 301.429688 493.167969 302.53125 C 492.167969 303.636719 491.140625 304.710938 490.089844 305.765625 C 489.039062 306.816406 487.960938 307.84375 486.859375 308.84375 C 485.757812 309.84375 484.632812 310.816406 483.480469 311.757812 C 482.332031 312.703125 481.160156 313.621094 479.964844 314.507812 C 478.769531 315.394531 477.554688 316.25 476.316406 317.078125 C 475.082031 317.902344 473.824219 318.699219 472.546875 319.464844 C 471.273438 320.230469 469.980469 320.964844 468.667969 321.664062 C 467.355469 322.367188 466.027344 323.035156 464.683594 323.671875 C 463.339844 324.308594 461.980469 324.914062 460.605469 325.480469 C 459.230469 326.050781 457.84375 326.585938 456.441406 327.089844 C 455.042969 327.589844 453.628906 328.058594 452.207031 328.488281 C 450.785156 328.921875 449.351562 329.316406 447.90625 329.679688 C 446.464844 330.042969 445.011719 330.367188 443.554688 330.65625 C 442.097656 330.949219 440.628906 331.203125 439.160156 331.421875 C 437.6875 331.640625 436.210938 331.820312 434.730469 331.96875 C 433.25 332.113281 431.769531 332.222656 430.28125 332.296875 C 428.796875 332.367188 427.3125 332.40625 425.824219 332.40625 C 424.335938 332.40625 422.847656 332.367188 421.363281 332.296875 C 419.878906 332.222656 418.394531 332.113281 416.914062 331.96875 C 415.433594 331.820312 413.957031 331.640625 412.488281 331.421875 C 411.015625 331.203125 409.550781 330.949219 408.09375 330.65625 C 406.632812 330.367188 405.183594 330.042969 403.738281 329.679688 C 402.296875 329.316406 400.863281 328.921875 399.441406 328.488281 C 398.015625 328.058594 396.605469 327.589844 395.203125 327.089844 C 393.804688 326.585938 392.417969 326.050781 391.042969 325.480469 C 389.667969 324.914062 388.308594 324.308594 386.964844 323.671875 C 385.621094 323.035156 384.292969 322.367188 382.980469 321.664062 C 381.667969 320.964844 380.375 320.230469 379.097656 319.464844 C 377.824219 318.699219 376.566406 317.902344 375.328125 317.078125 C 374.09375 316.25 372.875 315.394531 371.683594 314.507812 C 370.488281 313.621094 369.316406 312.703125 368.164062 311.757812 C 367.015625 310.816406 365.890625 309.84375 364.789062 308.84375 C 363.683594 307.84375 362.609375 306.816406 361.554688 305.765625 C 360.503906 304.710938 359.480469 303.636719 358.480469 302.53125 C 357.480469 301.429688 356.511719 300.300781 355.566406 299.152344 C 354.625 298 353.707031 296.828125 352.824219 295.632812 C 351.9375 294.4375 351.078125 293.21875 350.253906 291.980469 C 349.425781 290.746094 348.632812 289.488281 347.867188 288.210938 C 347.101562 286.933594 346.371094 285.636719 345.667969 284.324219 C 344.96875 283.011719 344.296875 281.683594 343.664062 280.339844 C 343.027344 278.992188 342.425781 277.632812 341.855469 276.257812 C 341.285156 274.882812 340.75 273.492188 340.25 272.089844 C 339.75 270.691406 339.28125 269.277344 338.851562 267.851562 C 338.417969 266.429688 338.023438 264.992188 337.660156 263.550781 C 337.296875 262.105469 336.972656 260.652344 336.683594 259.195312 C 336.394531 257.734375 336.136719 256.269531 335.921875 254.796875 C 335.703125 253.324219 335.519531 251.847656 335.375 250.363281 C 335.226562 248.882812 335.117188 247.398438 335.046875 245.914062 C 334.972656 244.425781 334.9375 242.9375 334.9375 241.449219 C 334.9375 239.960938 334.972656 238.472656 335.046875 236.988281 C 335.117188 235.5 335.226562 234.015625 335.375 232.535156 C 335.519531 231.050781 335.703125 229.574219 335.921875 228.101562 C 336.136719 226.632812 336.394531 225.164062 336.683594 223.703125 C 336.972656 222.246094 337.296875 220.792969 337.660156 219.347656 C 338.023438 217.90625 338.417969 216.46875 338.851562 215.046875 C 339.28125 213.621094 339.75 212.207031 340.25 210.808594 C 340.75 209.40625 341.285156 208.015625 341.855469 206.640625 C 342.425781 205.265625 343.027344 203.90625 343.664062 202.5625 C 344.296875 201.214844 344.96875 199.886719 345.667969 198.574219 C 346.371094 197.261719 347.101562 195.964844 347.867188 194.6875 C 348.632812 193.410156 349.425781 192.15625 350.253906 190.917969 C 351.078125 189.679688 351.9375 188.460938 352.824219 187.265625 C 353.707031 186.070312 354.625 184.898438 355.566406 183.746094 C 356.511719 182.597656 357.480469 181.46875 358.480469 180.367188 C 359.480469 179.265625 360.503906 178.1875 361.558594 177.132812 C 362.609375 176.082031 363.683594 175.054688 364.789062 174.054688 C 365.890625 173.054688 367.015625 172.082031 368.164062 171.140625 C 369.316406 170.195312 370.488281 169.28125 371.683594 168.394531 C 372.875 167.507812 374.09375 166.648438 375.328125 165.820312 C 376.566406 164.996094 377.824219 164.199219 379.097656 163.433594 C 380.375 162.667969 381.667969 161.933594 382.980469 161.234375 C 384.292969 160.53125 385.621094 159.863281 386.964844 159.226562 C 388.308594 158.589844 389.667969 157.988281 391.042969 157.417969 C 392.417969 156.847656 393.804688 156.3125 395.203125 155.808594 C 396.605469 155.308594 398.015625 154.84375 399.441406 154.410156 C 400.863281 153.976562 402.296875 153.582031 403.738281 153.21875 C 405.183594 152.855469 406.632812 152.53125 408.09375 152.242188 C 409.550781 151.949219 411.015625 151.695312 412.488281 151.476562 C 413.957031 151.257812 415.433594 151.078125 416.914062 150.929688 C 418.394531 150.785156 419.878906 150.675781 421.363281 150.601562 C 422.847656 150.53125 424.335938 150.492188 425.824219 150.492188 Z M 412.839844 293.425781 L 386.871094 293.425781 L 386.871094 267.4375 L 438.808594 267.4375 L 438.808594 254.441406 L 399.855469 254.441406 C 399.003906 254.441406 398.160156 254.359375 397.324219 254.195312 C 396.488281 254.027344 395.675781 253.78125 394.886719 253.453125 C 394.097656 253.128906 393.351562 252.726562 392.640625 252.253906 C 391.933594 251.777344 391.277344 251.242188 390.675781 250.636719 C 390.070312 250.035156 389.535156 249.378906 389.058594 248.667969 C 388.585938 247.957031 388.1875 247.210938 387.859375 246.421875 C 387.535156 245.632812 387.289062 244.820312 387.121094 243.984375 C 386.953125 243.148438 386.871094 242.300781 386.871094 241.449219 L 386.871094 202.46875 C 386.871094 201.613281 386.957031 200.769531 387.121094 199.933594 C 387.289062 199.097656 387.535156 198.285156 387.859375 197.496094 C 388.1875 196.707031 388.585938 195.957031 389.058594 195.25 C 389.535156 194.539062 390.070312 193.882812 390.675781 193.28125 C 391.277344 192.675781 391.933594 192.136719 392.640625 191.664062 C 393.351562 191.191406 394.097656 190.789062 394.886719 190.464844 C 395.675781 190.136719 396.488281 189.890625 397.324219 189.722656 C 398.160156 189.558594 399.003906 189.472656 399.855469 189.472656 L 412.839844 189.472656 L 412.839844 176.480469 L 438.808594 176.480469 L 438.808594 189.472656 L 464.773438 189.472656 L 464.773438 215.460938 L 412.839844 215.460938 L 412.839844 228.457031 L 451.792969 228.457031 C 452.644531 228.457031 453.488281 228.539062 454.324219 228.707031 C 455.160156 228.871094 455.972656 229.117188 456.761719 229.445312 C 457.546875 229.769531 458.296875 230.171875 459.003906 230.644531 C 459.714844 231.121094 460.371094 231.65625 460.972656 232.261719 C 461.574219 232.863281 462.113281 233.519531 462.585938 234.230469 C 463.058594 234.941406 463.460938 235.6875 463.785156 236.476562 C 464.113281 237.265625 464.359375 238.078125 464.527344 238.914062 C 464.691406 239.75 464.773438 240.597656 464.773438 241.449219 L 464.773438 280.429688 C 464.773438 281.285156 464.691406 282.128906 464.527344 282.964844 C 464.359375 283.800781 464.113281 284.613281 463.785156 285.402344 C 463.460938 286.191406 463.058594 286.941406 462.585938 287.648438 C 462.113281 288.359375 461.574219 289.015625 460.972656 289.617188 C 460.371094 290.222656 459.714844 290.761719 459.003906 291.234375 C 458.296875 291.707031 457.546875 292.109375 456.761719 292.433594 C 455.972656 292.761719 455.160156 293.007812 454.324219 293.175781 C 453.488281 293.339844 452.644531 293.425781 451.792969 293.425781 L 438.808594 293.425781 L 438.808594 306.417969 L 412.839844 306.417969 Z M 412.839844 293.425781 "
              fill-opacity="1" fill-rule="nonzero"/>
    </g>
</svg>
