<svg xmlns="http://www.w3.org/2000/svg" xmlns:xlink="http://www.w3.org/1999/xlink" width="1080" zoomAndPan="magnify"
     viewBox="0 0 810 809.999993" height="1080" preserveAspectRatio="xMidYMid meet" version="1.0">
    <defs>
        <clipPath id="id1">
            <path d="M 10.929688 9.945312 L 800.679688 9.945312 L 800.679688 799.695312 L 10.929688 799.695312 Z M 10.929688 9.945312 "
                  clip-rule="nonzero"/>
        </clipPath>
        <clipPath id="id2">
            <path d="M 81 81 L 725.25 81 L 725.25 695.25 L 81 695.25 Z M 81 81 " clip-rule="nonzero"/>
        </clipPath>
    </defs>

    <g clip-path="url(#id1)">
        <path fill="#26c0e4"
              d="M 800.679688 404.828125 C 800.679688 622.898438 623.882812 799.695312 405.804688 799.695312 C 187.722656 799.695312 10.929688 622.898438 10.929688 404.828125 C 10.929688 186.742188 187.722656 9.949219 405.804688 9.949219 C 623.886719 9.949219 800.679688 186.742188 800.679688 404.828125 Z M 800.679688 404.828125 "
              fill-opacity="1" fill-rule="nonzero"/>
    </g>
    <path fill="#ffffff"
          d="M 177.132812 312.804688 C 177.132812 313.398438 177.105469 313.992188 177.046875 314.582031 C 176.988281 315.171875 176.902344 315.761719 176.785156 316.34375 C 176.671875 316.925781 176.527344 317.5 176.355469 318.070312 C 176.183594 318.636719 175.980469 319.195312 175.753906 319.746094 C 175.527344 320.292969 175.273438 320.832031 174.996094 321.355469 C 174.714844 321.878906 174.410156 322.386719 174.082031 322.882812 C 173.75 323.375 173.398438 323.851562 173.019531 324.3125 C 172.644531 324.769531 172.246094 325.210938 171.828125 325.628906 C 171.40625 326.050781 170.96875 326.449219 170.507812 326.824219 C 170.050781 327.203125 169.574219 327.554688 169.082031 327.886719 C 168.585938 328.214844 168.078125 328.519531 167.554688 328.800781 C 167.03125 329.082031 166.496094 329.332031 165.949219 329.5625 C 165.402344 329.789062 164.84375 329.988281 164.273438 330.160156 C 163.707031 330.332031 163.132812 330.476562 162.550781 330.59375 C 161.96875 330.710938 161.382812 330.796875 160.789062 330.855469 C 160.199219 330.914062 159.609375 330.941406 159.015625 330.941406 C 158.421875 330.941406 157.828125 330.914062 157.238281 330.855469 C 156.648438 330.796875 156.0625 330.710938 155.480469 330.59375 C 154.898438 330.476562 154.324219 330.332031 153.753906 330.160156 C 153.1875 329.988281 152.628906 329.789062 152.082031 329.5625 C 151.53125 329.332031 150.996094 329.082031 150.472656 328.800781 C 149.949219 328.519531 149.441406 328.214844 148.949219 327.886719 C 148.453125 327.554688 147.976562 327.203125 147.519531 326.824219 C 147.0625 326.449219 146.621094 326.050781 146.203125 325.628906 C 145.78125 325.210938 145.382812 324.769531 145.007812 324.3125 C 144.632812 323.851562 144.277344 323.375 143.949219 322.882812 C 143.617188 322.386719 143.3125 321.878906 143.035156 321.355469 C 142.753906 320.832031 142.5 320.292969 142.273438 319.746094 C 142.046875 319.195312 141.847656 318.636719 141.675781 318.070312 C 141.503906 317.5 141.359375 316.925781 141.242188 316.34375 C 141.128906 315.761719 141.039062 315.171875 140.980469 314.582031 C 140.925781 313.992188 140.894531 313.398438 140.894531 312.804688 C 140.894531 312.210938 140.925781 311.617188 140.980469 311.027344 C 141.039062 310.433594 141.128906 309.847656 141.242188 309.265625 C 141.359375 308.683594 141.503906 308.109375 141.675781 307.539062 C 141.847656 306.972656 142.046875 306.414062 142.273438 305.863281 C 142.5 305.316406 142.753906 304.777344 143.035156 304.253906 C 143.3125 303.730469 143.617188 303.222656 143.949219 302.726562 C 144.277344 302.234375 144.632812 301.757812 145.007812 301.296875 C 145.382812 300.839844 145.78125 300.398438 146.203125 299.980469 C 146.621094 299.558594 147.0625 299.160156 147.519531 298.785156 C 147.976562 298.40625 148.453125 298.054688 148.949219 297.722656 C 149.441406 297.394531 149.949219 297.089844 150.472656 296.808594 C 150.996094 296.527344 151.53125 296.273438 152.082031 296.046875 C 152.628906 295.820312 153.1875 295.621094 153.753906 295.449219 C 154.324219 295.277344 154.898438 295.132812 155.480469 295.015625 C 156.0625 294.898438 156.648438 294.8125 157.238281 294.753906 C 157.828125 294.695312 158.421875 294.667969 159.015625 294.667969 C 159.609375 294.667969 160.199219 294.695312 160.789062 294.753906 C 161.382812 294.8125 161.96875 294.898438 162.550781 295.015625 C 163.132812 295.132812 163.707031 295.277344 164.273438 295.449219 C 164.84375 295.621094 165.402344 295.820312 165.949219 296.046875 C 166.496094 296.273438 167.03125 296.527344 167.554688 296.808594 C 168.078125 297.089844 168.585938 297.394531 169.082031 297.722656 C 169.574219 298.054688 170.050781 298.40625 170.507812 298.785156 C 170.96875 299.160156 171.40625 299.558594 171.828125 299.980469 C 172.246094 300.398438 172.644531 300.839844 173.019531 301.296875 C 173.398438 301.757812 173.75 302.234375 174.082031 302.726562 C 174.410156 303.222656 174.714844 303.730469 174.996094 304.253906 C 175.273438 304.777344 175.527344 305.316406 175.753906 305.863281 C 175.980469 306.414062 176.183594 306.972656 176.355469 307.539062 C 176.527344 308.109375 176.671875 308.683594 176.785156 309.265625 C 176.902344 309.847656 176.988281 310.433594 177.046875 311.027344 C 177.105469 311.617188 177.132812 312.210938 177.132812 312.804688 Z M 177.132812 312.804688 "
          fill-opacity="1" fill-rule="nonzero"/>
    <path fill="#ffffff"
          d="M 160.523438 340.515625 L 157 340.515625 C 142.910156 340.515625 130.828125 347.566406 123.78125 358.148438 C 131.835938 369.734375 144.921875 377.292969 160.523438 377.292969 C 174.617188 377.292969 187.703125 370.238281 195.757812 360.164062 C 188.207031 348.574219 175.625 340.515625 160.523438 340.515625 Z M 160.523438 340.515625 "
          fill-opacity="1" fill-rule="nonzero"/>
    <path fill="#ffffff"
          d="M 665.859375 312.804688 C 665.859375 313.398438 665.828125 313.992188 665.769531 314.582031 C 665.710938 315.171875 665.625 315.761719 665.511719 316.34375 C 665.394531 316.925781 665.25 317.5 665.078125 318.070312 C 664.90625 318.636719 664.707031 319.195312 664.480469 319.746094 C 664.25 320.292969 664 320.832031 663.71875 321.355469 C 663.4375 321.878906 663.132812 322.386719 662.804688 322.882812 C 662.476562 323.375 662.121094 323.851562 661.746094 324.3125 C 661.367188 324.769531 660.96875 325.210938 660.550781 325.628906 C 660.132812 326.050781 659.691406 326.449219 659.234375 326.824219 C 658.773438 327.203125 658.296875 327.554688 657.804688 327.886719 C 657.3125 328.214844 656.804688 328.519531 656.28125 328.800781 C 655.757812 329.082031 655.222656 329.332031 654.671875 329.5625 C 654.125 329.789062 653.566406 329.988281 653 330.160156 C 652.429688 330.332031 651.855469 330.476562 651.273438 330.59375 C 650.691406 330.710938 650.105469 330.796875 649.515625 330.855469 C 648.925781 330.914062 648.332031 330.941406 647.738281 330.941406 C 647.144531 330.941406 646.554688 330.914062 645.960938 330.855469 C 645.371094 330.796875 644.785156 330.710938 644.203125 330.59375 C 643.621094 330.476562 643.046875 330.332031 642.480469 330.160156 C 641.910156 329.988281 641.351562 329.789062 640.804688 329.5625 C 640.257812 329.332031 639.71875 329.082031 639.195312 328.800781 C 638.671875 328.519531 638.164062 328.214844 637.671875 327.886719 C 637.179688 327.554688 636.703125 327.203125 636.242188 326.824219 C 635.785156 326.449219 635.347656 326.050781 634.925781 325.628906 C 634.507812 325.210938 634.109375 324.769531 633.730469 324.3125 C 633.355469 323.851562 633.003906 323.375 632.671875 322.882812 C 632.34375 322.386719 632.039062 321.878906 631.757812 321.355469 C 631.480469 320.832031 631.226562 320.292969 631 319.746094 C 630.769531 319.195312 630.570312 318.636719 630.398438 318.070312 C 630.226562 317.5 630.082031 316.925781 629.96875 316.34375 C 629.851562 315.761719 629.765625 315.171875 629.707031 314.582031 C 629.648438 313.992188 629.621094 313.398438 629.617188 312.804688 C 629.621094 312.210938 629.648438 311.617188 629.707031 311.027344 C 629.765625 310.433594 629.851562 309.847656 629.96875 309.265625 C 630.082031 308.683594 630.226562 308.109375 630.398438 307.539062 C 630.570312 306.972656 630.769531 306.414062 631 305.863281 C 631.226562 305.316406 631.480469 304.777344 631.757812 304.253906 C 632.039062 303.730469 632.34375 303.222656 632.671875 302.726562 C 633.003906 302.234375 633.355469 301.757812 633.730469 301.296875 C 634.109375 300.839844 634.507812 300.398438 634.925781 299.980469 C 635.347656 299.558594 635.785156 299.160156 636.242188 298.785156 C 636.703125 298.40625 637.179688 298.054688 637.671875 297.722656 C 638.164062 297.394531 638.671875 297.089844 639.195312 296.808594 C 639.71875 296.527344 640.257812 296.273438 640.804688 296.046875 C 641.351562 295.820312 641.910156 295.621094 642.480469 295.449219 C 643.046875 295.277344 643.621094 295.132812 644.203125 295.015625 C 644.785156 294.898438 645.371094 294.8125 645.960938 294.753906 C 646.554688 294.695312 647.144531 294.667969 647.738281 294.667969 C 648.332031 294.667969 648.925781 294.695312 649.515625 294.753906 C 650.105469 294.8125 650.691406 294.898438 651.273438 295.015625 C 651.855469 295.132812 652.429688 295.277344 653 295.449219 C 653.566406 295.621094 654.125 295.820312 654.671875 296.046875 C 655.222656 296.273438 655.757812 296.527344 656.28125 296.808594 C 656.804688 297.089844 657.3125 297.394531 657.804688 297.722656 C 658.296875 298.054688 658.773438 298.40625 659.234375 298.785156 C 659.691406 299.160156 660.132812 299.558594 660.550781 299.980469 C 660.96875 300.398438 661.367188 300.839844 661.746094 301.296875 C 662.121094 301.757812 662.476562 302.234375 662.804688 302.726562 C 663.132812 303.222656 663.4375 303.730469 663.71875 304.253906 C 664 304.777344 664.25 305.316406 664.480469 305.863281 C 664.707031 306.414062 664.90625 306.972656 665.078125 307.539062 C 665.25 308.109375 665.394531 308.683594 665.511719 309.265625 C 665.625 309.847656 665.710938 310.433594 665.769531 311.027344 C 665.828125 311.617188 665.859375 312.210938 665.859375 312.804688 Z M 665.859375 312.804688 "
          fill-opacity="1" fill-rule="nonzero"/>
    <path fill="#ffffff"
          d="M 649.25 340.515625 L 645.726562 340.515625 C 631.632812 340.515625 619.554688 347.566406 612.507812 358.148438 C 620.558594 369.734375 633.644531 377.292969 649.25 377.292969 C 663.339844 377.292969 676.429688 370.238281 684.480469 360.164062 C 677.433594 348.574219 664.347656 340.515625 649.25 340.515625 Z M 649.25 340.515625 "
          fill-opacity="1" fill-rule="nonzero"/>
    <g clip-path="url(#id2)">
        <path fill="#ffffff"
              d="M 647.738281 257.382812 C 604.957031 257.382812 570.226562 292.148438 570.226562 334.972656 C 570.226562 340.011719 570.730469 344.542969 571.738281 349.582031 L 473.589844 381.324219 C 463.019531 356.636719 440.371094 339.003906 413.191406 334.972656 L 413.191406 235.71875 C 449.933594 229.675781 478.621094 197.429688 478.621094 158.636719 C 478.621094 115.8125 443.894531 81.046875 401.113281 81.046875 C 358.328125 81.046875 323.601562 115.8125 323.601562 158.636719 C 323.601562 198.4375 354.304688 231.691406 393.5625 235.71875 L 393.5625 333.964844 C 365.375 336.988281 341.71875 355.125 330.648438 380.316406 L 235.519531 349.582031 C 236.527344 345.046875 237.027344 340.011719 237.027344 334.972656 C 236.527344 292.148438 201.796875 257.382812 158.511719 257.382812 C 115.730469 257.382812 81 292.148438 81 335.476562 C 81 378.300781 115.730469 413.0625 158.511719 413.0625 C 189.214844 413.0625 215.890625 394.925781 228.472656 369.230469 L 324.605469 400.46875 C 324.105469 403.996094 323.601562 408.027344 323.601562 412.054688 C 323.601562 435.230469 333.667969 456.390625 350.277344 470.5 L 292.394531 550.101562 C 281.320312 544.054688 268.234375 540.027344 254.644531 540.027344 C 211.863281 540.027344 177.132812 574.789062 177.132812 617.613281 C 177.132812 660.4375 211.863281 695.203125 254.644531 695.203125 C 297.425781 695.203125 332.15625 660.4375 332.15625 617.613281 C 332.15625 595.949219 323.097656 575.796875 308.5 561.691406 L 367.390625 481.078125 C 377.957031 486.117188 389.535156 489.140625 401.613281 489.140625 C 414.703125 489.140625 427.285156 485.613281 437.855469 480.070312 L 497.246094 561.691406 C 482.648438 575.796875 473.589844 595.445312 473.589844 617.109375 C 473.589844 659.933594 508.320312 694.699219 551.101562 694.699219 C 593.882812 694.699219 628.613281 659.933594 628.613281 617.109375 C 628.613281 574.285156 593.882812 539.523438 551.101562 539.523438 C 537.511719 539.523438 524.425781 543.046875 512.847656 549.597656 L 454.464844 468.484375 C 469.5625 454.375 479.628906 434.222656 479.628906 411.550781 C 479.628906 408.027344 479.125 404.5 478.621094 400.972656 L 577.777344 368.726562 C 590.359375 394.925781 617.035156 413.0625 647.738281 413.0625 C 690.519531 413.0625 725.25 378.300781 725.25 335.476562 C 725.25 292.148438 690.519531 257.382812 647.738281 257.382812 Z M 158.511719 392.910156 C 126.800781 392.910156 101.132812 366.710938 101.132812 335.476562 C 101.132812 304.238281 126.800781 277.539062 158.511719 277.539062 C 190.21875 277.539062 215.890625 303.230469 215.890625 334.972656 C 215.890625 366.710938 190.21875 392.910156 158.511719 392.910156 Z M 312.023438 618.117188 C 312.023438 649.859375 286.355469 675.550781 254.644531 675.550781 C 222.9375 675.550781 197.265625 649.859375 197.265625 618.117188 C 197.265625 586.375 222.9375 560.683594 254.644531 560.683594 C 285.851562 560.179688 312.023438 586.378906 312.023438 618.117188 Z M 608.984375 618.117188 C 608.984375 649.859375 583.3125 675.550781 551.605469 675.550781 C 519.894531 675.550781 494.226562 649.859375 494.226562 618.117188 C 494.226562 586.375 519.894531 560.683594 551.605469 560.683594 C 583.3125 560.179688 608.984375 586.378906 608.984375 618.117188 Z M 343.734375 158.636719 C 343.734375 126.894531 369.402344 101.203125 401.113281 101.203125 C 432.820312 101.203125 458.488281 126.894531 458.488281 158.636719 C 458.488281 190.375 432.820312 216.070312 401.113281 216.070312 C 369.402344 216.574219 343.734375 190.375 343.734375 158.636719 Z M 401.613281 469.492188 C 369.90625 469.492188 344.238281 443.796875 344.238281 412.054688 C 344.238281 380.316406 369.90625 354.621094 401.613281 354.621094 C 433.324219 354.621094 458.992188 380.316406 458.992188 412.054688 C 458.992188 443.796875 433.324219 469.492188 401.613281 469.492188 Z M 647.738281 392.910156 C 616.03125 392.910156 590.359375 367.214844 590.359375 335.476562 C 590.359375 303.734375 616.03125 277.539062 647.738281 277.539062 C 679.449219 277.539062 705.117188 303.230469 705.117188 334.972656 C 705.117188 366.710938 679.449219 392.910156 647.738281 392.910156 Z M 647.738281 392.910156 "
              fill-opacity="1" fill-rule="nonzero"/>
    </g>
    <path fill="#ffffff"
          d="M 419.230469 136.46875 C 419.230469 137.0625 419.203125 137.65625 419.144531 138.246094 C 419.085938 138.835938 419 139.425781 418.882812 140.007812 C 418.765625 140.589844 418.625 141.164062 418.449219 141.734375 C 418.277344 142.300781 418.078125 142.859375 417.851562 143.410156 C 417.625 143.957031 417.371094 144.496094 417.089844 145.019531 C 416.8125 145.542969 416.507812 146.050781 416.175781 146.546875 C 415.847656 147.039062 415.496094 147.515625 415.117188 147.976562 C 414.742188 148.433594 414.34375 148.875 413.925781 149.292969 C 413.503906 149.714844 413.066406 150.113281 412.605469 150.488281 C 412.148438 150.867188 411.671875 151.21875 411.179688 151.550781 C 410.683594 151.878906 410.175781 152.183594 409.652344 152.464844 C 409.128906 152.746094 408.59375 152.996094 408.046875 153.226562 C 407.496094 153.453125 406.9375 153.652344 406.371094 153.824219 C 405.804688 153.996094 405.230469 154.140625 404.648438 154.257812 C 404.066406 154.375 403.476562 154.460938 402.886719 154.519531 C 402.296875 154.578125 401.707031 154.605469 401.113281 154.605469 C 400.519531 154.605469 399.925781 154.578125 399.335938 154.519531 C 398.746094 154.460938 398.160156 154.375 397.578125 154.257812 C 396.996094 154.140625 396.417969 153.996094 395.851562 153.824219 C 395.285156 153.652344 394.726562 153.453125 394.175781 153.226562 C 393.628906 152.996094 393.09375 152.746094 392.570312 152.464844 C 392.046875 152.183594 391.539062 151.878906 391.046875 151.550781 C 390.550781 151.21875 390.074219 150.867188 389.617188 150.488281 C 389.15625 150.113281 388.71875 149.714844 388.300781 149.292969 C 387.878906 148.875 387.480469 148.433594 387.105469 147.976562 C 386.730469 147.515625 386.375 147.039062 386.046875 146.546875 C 385.714844 146.050781 385.410156 145.542969 385.132812 145.019531 C 384.851562 144.496094 384.597656 143.957031 384.371094 143.410156 C 384.144531 142.859375 383.945312 142.300781 383.773438 141.734375 C 383.601562 141.164062 383.457031 140.589844 383.339844 140.007812 C 383.222656 139.425781 383.136719 138.835938 383.078125 138.246094 C 383.019531 137.65625 382.992188 137.0625 382.992188 136.46875 C 382.992188 135.875 383.019531 135.28125 383.078125 134.691406 C 383.136719 134.097656 383.222656 133.511719 383.339844 132.929688 C 383.457031 132.347656 383.601562 131.773438 383.773438 131.203125 C 383.945312 130.636719 384.144531 130.078125 384.371094 129.527344 C 384.597656 128.980469 384.851562 128.441406 385.132812 127.917969 C 385.410156 127.394531 385.714844 126.886719 386.046875 126.390625 C 386.375 125.898438 386.730469 125.421875 387.105469 124.960938 C 387.480469 124.503906 387.878906 124.0625 388.300781 123.644531 C 388.71875 123.222656 389.15625 122.824219 389.617188 122.449219 C 390.074219 122.070312 390.550781 121.71875 391.046875 121.386719 C 391.539062 121.058594 392.046875 120.753906 392.570312 120.472656 C 393.09375 120.191406 393.628906 119.9375 394.175781 119.710938 C 394.726562 119.484375 395.285156 119.285156 395.851562 119.113281 C 396.417969 118.941406 396.996094 118.796875 397.578125 118.679688 C 398.160156 118.5625 398.746094 118.476562 399.335938 118.417969 C 399.925781 118.359375 400.519531 118.332031 401.113281 118.332031 C 401.707031 118.332031 402.296875 118.359375 402.886719 118.417969 C 403.476562 118.476562 404.066406 118.5625 404.648438 118.679688 C 405.230469 118.796875 405.804688 118.941406 406.371094 119.113281 C 406.9375 119.285156 407.496094 119.484375 408.046875 119.710938 C 408.59375 119.9375 409.128906 120.191406 409.652344 120.472656 C 410.175781 120.753906 410.683594 121.058594 411.179688 121.386719 C 411.671875 121.71875 412.148438 122.070312 412.605469 122.449219 C 413.066406 122.824219 413.503906 123.222656 413.925781 123.644531 C 414.34375 124.0625 414.742188 124.503906 415.117188 124.960938 C 415.496094 125.421875 415.847656 125.898438 416.175781 126.390625 C 416.507812 126.886719 416.8125 127.394531 417.089844 127.917969 C 417.371094 128.441406 417.625 128.980469 417.851562 129.527344 C 418.078125 130.078125 418.277344 130.636719 418.449219 131.203125 C 418.625 131.773438 418.765625 132.347656 418.882812 132.929688 C 419 133.511719 419.085938 134.097656 419.144531 134.691406 C 419.203125 135.28125 419.230469 135.875 419.230469 136.46875 Z M 419.230469 136.46875 "
          fill-opacity="1" fill-rule="nonzero"/>
    <path fill="#ffffff"
          d="M 437.351562 183.828125 C 430.808594 172.238281 417.722656 164.179688 402.621094 164.179688 L 399.097656 164.179688 C 385.003906 164.179688 372.925781 171.230469 365.878906 181.8125 C 373.933594 193.398438 387.019531 200.957031 402.621094 200.957031 C 416.714844 200.957031 429.296875 194.40625 437.351562 183.828125 Z M 437.351562 183.828125 "
          fill-opacity="1" fill-rule="nonzero"/>
    <path fill="#ffffff"
          d="M 569.722656 595.445312 C 569.722656 596.039062 569.695312 596.632812 569.636719 597.222656 C 569.578125 597.816406 569.492188 598.402344 569.375 598.984375 C 569.261719 599.566406 569.117188 600.140625 568.945312 600.710938 C 568.773438 601.277344 568.570312 601.835938 568.34375 602.386719 C 568.117188 602.933594 567.863281 603.472656 567.585938 603.996094 C 567.304688 604.519531 567 605.027344 566.671875 605.523438 C 566.339844 606.015625 565.988281 606.492188 565.609375 606.953125 C 565.234375 607.410156 564.835938 607.851562 564.417969 608.269531 C 563.996094 608.691406 563.558594 609.089844 563.097656 609.464844 C 562.640625 609.84375 562.164062 610.195312 561.671875 610.527344 C 561.175781 610.855469 560.667969 611.160156 560.144531 611.441406 C 559.621094 611.722656 559.085938 611.976562 558.539062 612.203125 C 557.988281 612.429688 557.433594 612.628906 556.863281 612.800781 C 556.296875 612.972656 555.722656 613.117188 555.140625 613.234375 C 554.558594 613.351562 553.972656 613.4375 553.378906 613.496094 C 552.789062 613.554688 552.199219 613.582031 551.605469 613.582031 C 551.011719 613.582031 550.417969 613.554688 549.828125 613.496094 C 549.238281 613.4375 548.652344 613.351562 548.070312 613.234375 C 547.488281 613.117188 546.914062 612.972656 546.34375 612.800781 C 545.777344 612.628906 545.21875 612.429688 544.671875 612.203125 C 544.121094 611.976562 543.585938 611.722656 543.0625 611.441406 C 542.539062 611.160156 542.03125 610.855469 541.539062 610.527344 C 541.042969 610.195312 540.566406 609.84375 540.109375 609.464844 C 539.652344 609.089844 539.210938 608.691406 538.792969 608.269531 C 538.371094 607.851562 537.972656 607.410156 537.597656 606.953125 C 537.222656 606.492188 536.867188 606.015625 536.539062 605.523438 C 536.207031 605.027344 535.902344 604.519531 535.625 603.996094 C 535.34375 603.472656 535.089844 602.933594 534.863281 602.386719 C 534.636719 601.835938 534.4375 601.277344 534.265625 600.710938 C 534.09375 600.140625 533.949219 599.566406 533.832031 598.984375 C 533.71875 598.402344 533.628906 597.816406 533.570312 597.222656 C 533.515625 596.632812 533.484375 596.039062 533.484375 595.445312 C 533.484375 594.851562 533.515625 594.257812 533.570312 593.667969 C 533.628906 593.078125 533.71875 592.488281 533.832031 591.90625 C 533.949219 591.324219 534.09375 590.75 534.265625 590.179688 C 534.4375 589.613281 534.636719 589.054688 534.863281 588.503906 C 535.089844 587.957031 535.34375 587.417969 535.625 586.894531 C 535.902344 586.371094 536.207031 585.863281 536.539062 585.367188 C 536.867188 584.875 537.222656 584.398438 537.597656 583.9375 C 537.972656 583.480469 538.371094 583.039062 538.792969 582.621094 C 539.210938 582.199219 539.652344 581.800781 540.109375 581.425781 C 540.566406 581.046875 541.042969 580.695312 541.539062 580.363281 C 542.03125 580.035156 542.539062 579.730469 543.0625 579.449219 C 543.585938 579.167969 544.121094 578.917969 544.671875 578.6875 C 545.21875 578.460938 545.777344 578.261719 546.34375 578.089844 C 546.914062 577.917969 547.488281 577.773438 548.070312 577.65625 C 548.652344 577.539062 549.238281 577.453125 549.828125 577.394531 C 550.417969 577.335938 551.011719 577.308594 551.605469 577.308594 C 552.199219 577.308594 552.789062 577.335938 553.378906 577.394531 C 553.972656 577.453125 554.558594 577.539062 555.140625 577.65625 C 555.722656 577.773438 556.296875 577.917969 556.863281 578.089844 C 557.433594 578.261719 557.988281 578.460938 558.539062 578.6875 C 559.085938 578.917969 559.621094 579.167969 560.144531 579.449219 C 560.667969 579.730469 561.175781 580.035156 561.671875 580.363281 C 562.164062 580.695312 562.640625 581.046875 563.097656 581.425781 C 563.558594 581.800781 563.996094 582.199219 564.417969 582.621094 C 564.835938 583.039062 565.234375 583.480469 565.609375 583.9375 C 565.988281 584.398438 566.339844 584.875 566.671875 585.367188 C 567 585.863281 567.304688 586.371094 567.585938 586.894531 C 567.863281 587.417969 568.117188 587.957031 568.34375 588.503906 C 568.570312 589.054688 568.773438 589.613281 568.945312 590.179688 C 569.117188 590.75 569.261719 591.324219 569.375 591.90625 C 569.492188 592.488281 569.578125 593.078125 569.636719 593.667969 C 569.695312 594.257812 569.722656 594.851562 569.722656 595.445312 Z M 569.722656 595.445312 "
          fill-opacity="1" fill-rule="nonzero"/>
    <path fill="#ffffff"
          d="M 552.609375 659.933594 C 566.703125 659.933594 579.789062 652.878906 587.84375 642.804688 C 580.796875 631.214844 568.214844 623.15625 553.113281 623.15625 L 549.589844 623.15625 C 535.5 623.15625 523.417969 630.210938 516.371094 640.789062 C 524.425781 652.378906 537.511719 659.933594 552.609375 659.933594 Z M 552.609375 659.933594 "
          fill-opacity="1" fill-rule="nonzero"/>
    <path fill="#ffffff"
          d="M 272.765625 595.445312 C 272.765625 596.039062 272.734375 596.632812 272.679688 597.222656 C 272.621094 597.816406 272.53125 598.402344 272.417969 598.984375 C 272.300781 599.566406 272.15625 600.140625 271.984375 600.710938 C 271.8125 601.277344 271.613281 601.835938 271.386719 602.386719 C 271.160156 602.933594 270.90625 603.472656 270.625 603.996094 C 270.347656 604.519531 270.042969 605.027344 269.710938 605.523438 C 269.382812 606.015625 269.027344 606.492188 268.652344 606.953125 C 268.277344 607.410156 267.878906 607.851562 267.457031 608.269531 C 267.039062 608.691406 266.597656 609.089844 266.140625 609.464844 C 265.683594 609.84375 265.207031 610.195312 264.710938 610.527344 C 264.21875 610.855469 263.710938 611.160156 263.1875 611.441406 C 262.664062 611.722656 262.128906 611.976562 261.578125 612.203125 C 261.03125 612.429688 260.472656 612.628906 259.90625 612.800781 C 259.335938 612.972656 258.761719 613.117188 258.179688 613.234375 C 257.597656 613.351562 257.011719 613.4375 256.421875 613.496094 C 255.832031 613.554688 255.238281 613.582031 254.644531 613.582031 C 254.050781 613.582031 253.460938 613.554688 252.871094 613.496094 C 252.277344 613.4375 251.691406 613.351562 251.109375 613.234375 C 250.527344 613.117188 249.953125 612.972656 249.386719 612.800781 C 248.816406 612.628906 248.257812 612.429688 247.710938 612.203125 C 247.164062 611.976562 246.628906 611.722656 246.105469 611.441406 C 245.582031 611.160156 245.070312 610.855469 244.578125 610.527344 C 244.085938 610.195312 243.609375 609.84375 243.152344 609.464844 C 242.691406 609.089844 242.253906 608.691406 241.832031 608.269531 C 241.414062 607.851562 241.015625 607.410156 240.640625 606.953125 C 240.261719 606.492188 239.910156 606.015625 239.578125 605.523438 C 239.25 605.027344 238.945312 604.519531 238.664062 603.996094 C 238.386719 603.472656 238.132812 602.933594 237.90625 602.386719 C 237.679688 601.835938 237.476562 601.277344 237.304688 600.710938 C 237.132812 600.140625 236.988281 599.566406 236.875 598.984375 C 236.757812 598.402344 236.671875 597.816406 236.613281 597.222656 C 236.554688 596.632812 236.527344 596.039062 236.527344 595.445312 C 236.527344 594.851562 236.554688 594.257812 236.613281 593.667969 C 236.671875 593.078125 236.757812 592.488281 236.875 591.90625 C 236.988281 591.324219 237.132812 590.75 237.304688 590.179688 C 237.476562 589.613281 237.679688 589.054688 237.90625 588.503906 C 238.132812 587.957031 238.386719 587.417969 238.664062 586.894531 C 238.945312 586.371094 239.25 585.863281 239.578125 585.367188 C 239.910156 584.875 240.261719 584.398438 240.640625 583.9375 C 241.015625 583.480469 241.414062 583.039062 241.832031 582.621094 C 242.253906 582.199219 242.691406 581.800781 243.152344 581.425781 C 243.609375 581.046875 244.085938 580.695312 244.578125 580.363281 C 245.070312 580.035156 245.582031 579.730469 246.105469 579.449219 C 246.628906 579.167969 247.164062 578.917969 247.710938 578.6875 C 248.257812 578.460938 248.816406 578.261719 249.386719 578.089844 C 249.953125 577.917969 250.527344 577.773438 251.109375 577.65625 C 251.691406 577.539062 252.277344 577.453125 252.871094 577.394531 C 253.460938 577.335938 254.050781 577.308594 254.644531 577.308594 C 255.238281 577.308594 255.832031 577.335938 256.421875 577.394531 C 257.011719 577.453125 257.597656 577.539062 258.179688 577.65625 C 258.761719 577.773438 259.335938 577.917969 259.90625 578.089844 C 260.472656 578.261719 261.03125 578.460938 261.578125 578.6875 C 262.128906 578.917969 262.664062 579.167969 263.1875 579.449219 C 263.710938 579.730469 264.21875 580.035156 264.710938 580.363281 C 265.207031 580.695312 265.683594 581.046875 266.140625 581.425781 C 266.597656 581.800781 267.039062 582.199219 267.457031 582.621094 C 267.878906 583.039062 268.277344 583.480469 268.652344 583.9375 C 269.027344 584.398438 269.382812 584.875 269.710938 585.367188 C 270.042969 585.863281 270.347656 586.371094 270.625 586.894531 C 270.90625 587.417969 271.160156 587.957031 271.386719 588.503906 C 271.613281 589.054688 271.8125 589.613281 271.984375 590.179688 C 272.15625 590.75 272.300781 591.324219 272.417969 591.90625 C 272.53125 592.488281 272.621094 593.078125 272.679688 593.667969 C 272.734375 594.257812 272.765625 594.851562 272.765625 595.445312 Z M 272.765625 595.445312 "
          fill-opacity="1" fill-rule="nonzero"/>
    <path fill="#ffffff"
          d="M 256.15625 623.15625 L 252.632812 623.15625 C 238.539062 623.15625 226.460938 630.210938 219.414062 640.789062 C 227.464844 652.378906 240.550781 659.933594 256.15625 659.933594 C 270.25 659.933594 283.335938 652.878906 291.386719 642.804688 C 283.839844 631.214844 271.253906 623.15625 256.15625 623.15625 Z M 256.15625 623.15625 "
          fill-opacity="1" fill-rule="nonzero"/>
    <path fill="#ffffff"
          d="M 419.734375 389.382812 C 419.734375 389.980469 419.707031 390.570312 419.648438 391.164062 C 419.589844 391.753906 419.503906 392.339844 419.386719 392.921875 C 419.269531 393.503906 419.125 394.082031 418.953125 394.648438 C 418.78125 395.21875 418.582031 395.777344 418.355469 396.324219 C 418.128906 396.875 417.875 397.410156 417.59375 397.933594 C 417.316406 398.457031 417.011719 398.96875 416.679688 399.460938 C 416.351562 399.953125 416 400.429688 415.621094 400.890625 C 415.246094 401.351562 414.847656 401.789062 414.425781 402.210938 C 414.007812 402.628906 413.570312 403.027344 413.109375 403.40625 C 412.652344 403.78125 412.175781 404.136719 411.683594 404.464844 C 411.1875 404.796875 410.679688 405.101562 410.15625 405.378906 C 409.632812 405.660156 409.097656 405.914062 408.550781 406.140625 C 408 406.367188 407.441406 406.570312 406.875 406.742188 C 406.308594 406.914062 405.730469 407.058594 405.148438 407.171875 C 404.566406 407.289062 403.980469 407.375 403.390625 407.433594 C 402.800781 407.492188 402.207031 407.523438 401.613281 407.523438 C 401.023438 407.523438 400.429688 407.492188 399.839844 407.433594 C 399.25 407.375 398.664062 407.289062 398.082031 407.171875 C 397.5 407.058594 396.921875 406.914062 396.355469 406.742188 C 395.789062 406.570312 395.230469 406.367188 394.679688 406.140625 C 394.132812 405.914062 393.597656 405.660156 393.074219 405.378906 C 392.550781 405.101562 392.042969 404.796875 391.546875 404.464844 C 391.054688 404.136719 390.578125 403.78125 390.121094 403.40625 C 389.660156 403.027344 389.222656 402.628906 388.800781 402.210938 C 388.382812 401.789062 387.984375 401.351562 387.609375 400.890625 C 387.230469 400.429688 386.878906 399.953125 386.550781 399.460938 C 386.21875 398.96875 385.914062 398.457031 385.636719 397.933594 C 385.355469 397.410156 385.101562 396.875 384.875 396.324219 C 384.648438 395.777344 384.449219 395.21875 384.277344 394.648438 C 384.101562 394.082031 383.960938 393.503906 383.84375 392.921875 C 383.726562 392.339844 383.640625 391.753906 383.582031 391.164062 C 383.523438 390.570312 383.496094 389.980469 383.496094 389.382812 C 383.496094 388.789062 383.523438 388.199219 383.582031 387.605469 C 383.640625 387.015625 383.726562 386.429688 383.84375 385.847656 C 383.960938 385.261719 384.101562 384.6875 384.277344 384.121094 C 384.449219 383.550781 384.648438 382.992188 384.875 382.445312 C 385.101562 381.894531 385.355469 381.359375 385.636719 380.835938 C 385.914062 380.3125 386.21875 379.800781 386.550781 379.308594 C 386.878906 378.8125 387.230469 378.335938 387.609375 377.878906 C 387.984375 377.417969 388.382812 376.980469 388.800781 376.558594 C 389.222656 376.140625 389.660156 375.742188 390.121094 375.363281 C 390.578125 374.988281 391.054688 374.632812 391.546875 374.304688 C 392.042969 373.972656 392.550781 373.667969 393.074219 373.390625 C 393.597656 373.109375 394.132812 372.855469 394.679688 372.628906 C 395.230469 372.402344 395.789062 372.199219 396.355469 372.027344 C 396.921875 371.855469 397.5 371.710938 398.078125 371.59375 C 398.664062 371.480469 399.25 371.394531 399.839844 371.335938 C 400.429688 371.277344 401.023438 371.246094 401.613281 371.246094 C 402.207031 371.246094 402.800781 371.277344 403.390625 371.335938 C 403.980469 371.394531 404.566406 371.480469 405.148438 371.59375 C 405.730469 371.710938 406.308594 371.855469 406.875 372.027344 C 407.441406 372.199219 408 372.402344 408.550781 372.628906 C 409.097656 372.855469 409.632812 373.109375 410.15625 373.390625 C 410.679688 373.667969 411.1875 373.972656 411.683594 374.304688 C 412.175781 374.632812 412.652344 374.988281 413.109375 375.363281 C 413.570312 375.742188 414.007812 376.140625 414.425781 376.558594 C 414.847656 376.980469 415.246094 377.417969 415.621094 377.878906 C 416 378.335938 416.351562 378.8125 416.679688 379.308594 C 417.011719 379.800781 417.316406 380.3125 417.59375 380.835938 C 417.875 381.359375 418.128906 381.894531 418.355469 382.445312 C 418.582031 382.992188 418.78125 383.550781 418.953125 384.121094 C 419.125 384.6875 419.269531 385.261719 419.386719 385.847656 C 419.503906 386.429688 419.589844 387.015625 419.648438 387.605469 C 419.707031 388.199219 419.734375 388.789062 419.734375 389.382812 Z M 419.734375 389.382812 "
          fill-opacity="1" fill-rule="nonzero"/>
    <path fill="#ffffff"
          d="M 403.628906 417.09375 L 400.105469 417.09375 C 386.011719 417.09375 373.933594 424.148438 366.886719 434.726562 C 374.9375 446.316406 388.023438 453.875 403.628906 453.875 C 417.722656 453.875 430.808594 446.820312 438.859375 436.742188 C 431.3125 425.15625 418.222656 417.09375 403.628906 417.09375 Z M 403.628906 417.09375 "
          fill-opacity="1" fill-rule="nonzero"/>
</svg>
