<svg xmlns="http://www.w3.org/2000/svg" xmlns:xlink="http://www.w3.org/1999/xlink" width="1080" zoomAndPan="magnify"
     viewBox="0 0 810 809.999993" height="1080" preserveAspectRatio="xMidYMid meet" version="1.0">
    <defs>
        <clipPath id="id1">
            <path d="M 10.929688 9.945312 L 800.679688 9.945312 L 800.679688 799.695312 L 10.929688 799.695312 Z M 10.929688 9.945312 "
                  clip-rule="nonzero"/>
        </clipPath>
        <clipPath id="id2">
            <path d="M 182.625 100.894531 L 627.375 100.894531 L 627.375 652.894531 L 182.625 652.894531 Z M 182.625 100.894531 "
                  clip-rule="nonzero"/>
        </clipPath>
    </defs>

    <g clip-path="url(#id1)">
        <path fill="#26c0e4"
              d="M 800.679688 404.828125 C 800.679688 622.898438 623.882812 799.695312 405.804688 799.695312 C 187.722656 799.695312 10.929688 622.898438 10.929688 404.828125 C 10.929688 186.742188 187.722656 9.949219 405.804688 9.949219 C 623.886719 9.949219 800.679688 186.742188 800.679688 404.828125 Z M 800.679688 404.828125 "
              fill-opacity="1" fill-rule="nonzero"/>
    </g>
    <g clip-path="url(#id2)">
        <path fill="#ffffff"
              d="M 543.761719 493.027344 L 467.261719 476.042969 L 467.261719 457.460938 C 479.875 450.160156 490.875 440.941406 500.265625 429.804688 L 529.527344 429.804688 C 530.402344 429.804688 531.273438 429.761719 532.144531 429.675781 C 533.011719 429.589844 533.878906 429.460938 534.734375 429.292969 C 535.589844 429.121094 536.4375 428.910156 537.273438 428.65625 C 538.109375 428.402344 538.933594 428.109375 539.738281 427.773438 C 540.546875 427.441406 541.335938 427.066406 542.109375 426.65625 C 542.878906 426.242188 543.628906 425.792969 544.355469 425.308594 C 545.082031 424.824219 545.78125 424.304688 546.457031 423.75 C 547.132812 423.195312 547.78125 422.609375 548.398438 421.992188 C 549.015625 421.375 549.601562 420.726562 550.15625 420.050781 C 550.710938 419.375 551.230469 418.675781 551.714844 417.949219 C 552.203125 417.222656 552.652344 416.472656 553.0625 415.703125 C 553.472656 414.933594 553.847656 414.144531 554.183594 413.335938 C 554.515625 412.53125 554.8125 411.707031 555.0625 410.871094 C 555.316406 410.035156 555.53125 409.1875 555.699219 408.332031 C 555.871094 407.476562 556 406.613281 556.085938 405.742188 C 556.171875 404.875 556.214844 404 556.214844 403.128906 L 556.214844 394.234375 C 557.085938 394.234375 557.960938 394.191406 558.828125 394.105469 C 559.699219 394.023438 560.5625 393.894531 561.417969 393.722656 C 562.277344 393.554688 563.125 393.339844 563.960938 393.085938 C 564.796875 392.832031 565.617188 392.539062 566.425781 392.207031 C 567.234375 391.871094 568.023438 391.496094 568.792969 391.085938 C 569.5625 390.675781 570.3125 390.226562 571.039062 389.738281 C 571.765625 389.253906 572.464844 388.734375 573.140625 388.179688 C 573.816406 387.625 574.464844 387.039062 575.082031 386.421875 C 575.699219 385.804688 576.285156 385.15625 576.839844 384.484375 C 577.394531 383.808594 577.914062 383.105469 578.402344 382.378906 C 578.886719 381.652344 579.335938 380.90625 579.746094 380.132812 C 580.160156 379.363281 580.53125 378.574219 580.867188 377.769531 C 581.203125 376.960938 581.496094 376.140625 581.75 375.304688 C 582.003906 374.46875 582.214844 373.621094 582.386719 372.761719 C 582.554688 371.90625 582.683594 371.042969 582.769531 370.175781 C 582.855469 369.304688 582.898438 368.433594 582.898438 367.558594 L 582.898438 314.207031 C 582.894531 312.839844 582.785156 311.480469 582.574219 310.128906 C 582.359375 308.777344 582.042969 307.449219 581.628906 306.148438 C 581.210938 304.84375 580.695312 303.582031 580.085938 302.359375 C 579.472656 301.132812 578.773438 299.964844 577.980469 298.847656 C 577.1875 297.734375 576.316406 296.683594 575.363281 295.703125 C 574.410156 294.722656 573.386719 293.820312 572.296875 292.992188 C 571.203125 292.167969 570.054688 291.433594 568.851562 290.785156 C 567.644531 290.136719 566.398438 289.585938 565.109375 289.128906 L 565.109375 260.851562 C 565.109375 258.234375 565.042969 255.617188 564.914062 253 C 564.785156 250.382812 564.59375 247.773438 564.335938 245.164062 C 564.082031 242.558594 563.761719 239.957031 563.375 237.367188 C 562.992188 234.777344 562.542969 232.195312 562.03125 229.628906 C 561.519531 227.058594 560.945312 224.503906 560.308594 221.960938 C 559.671875 219.421875 558.976562 216.898438 558.214844 214.390625 C 557.453125 211.882812 556.632812 209.398438 555.75 206.929688 C 554.867188 204.464844 553.921875 202.019531 552.921875 199.601562 C 551.917969 197.179688 550.855469 194.789062 549.734375 192.417969 C 548.617188 190.050781 547.4375 187.710938 546.203125 185.402344 C 544.96875 183.09375 543.675781 180.8125 542.328125 178.566406 C 540.980469 176.320312 539.582031 174.105469 538.125 171.929688 C 536.667969 169.75 535.160156 167.609375 533.601562 165.507812 C 532.039062 163.402344 530.425781 161.335938 528.765625 159.3125 C 527.101562 157.289062 525.390625 155.304688 523.632812 153.363281 C 521.871094 151.421875 520.066406 149.527344 518.214844 147.675781 C 516.359375 145.820312 514.464844 144.015625 512.523438 142.257812 C 510.582031 140.5 508.597656 138.789062 506.570312 137.125 C 504.546875 135.464844 502.480469 133.851562 500.375 132.292969 C 498.269531 130.730469 496.128906 129.222656 493.949219 127.769531 C 491.773438 126.3125 489.558594 124.914062 487.3125 123.566406 C 485.0625 122.21875 482.785156 120.929688 480.472656 119.695312 C 478.164062 118.460938 475.824219 117.28125 473.453125 116.160156 C 471.085938 115.042969 468.691406 113.980469 466.269531 112.976562 C 463.847656 111.976562 461.40625 111.03125 458.9375 110.152344 C 456.46875 109.269531 453.984375 108.445312 451.476562 107.6875 C 448.96875 106.925781 446.445312 106.226562 443.902344 105.589844 C 441.359375 104.953125 438.804688 104.378906 436.234375 103.871094 C 433.664062 103.359375 431.082031 102.910156 428.492188 102.527344 C 425.898438 102.140625 423.300781 101.820312 420.691406 101.566406 C 418.085938 101.308594 415.472656 101.117188 412.855469 100.988281 C 410.238281 100.859375 407.617188 100.792969 405 100.792969 C 402.378906 100.792969 399.757812 100.859375 397.140625 100.988281 C 394.523438 101.117188 391.914062 101.308594 389.304688 101.566406 C 386.695312 101.820312 384.097656 102.140625 381.503906 102.527344 C 378.914062 102.910156 376.332031 103.359375 373.761719 103.871094 C 371.191406 104.378906 368.636719 104.953125 366.09375 105.589844 C 363.554688 106.226562 361.027344 106.925781 358.519531 107.6875 C 356.011719 108.445312 353.527344 109.269531 351.058594 110.152344 C 348.589844 111.03125 346.148438 111.976562 343.726562 112.976562 C 341.304688 113.980469 338.910156 115.042969 336.542969 116.160156 C 334.171875 117.28125 331.832031 118.460938 329.523438 119.695312 C 327.210938 120.929688 324.933594 122.21875 322.683594 123.566406 C 320.4375 124.914062 318.226562 126.3125 316.046875 127.769531 C 313.867188 129.222656 311.726562 130.730469 309.621094 132.292969 C 307.515625 133.851562 305.449219 135.464844 303.425781 137.125 C 301.398438 138.789062 299.417969 140.5 297.476562 142.257812 C 295.535156 144.015625 293.636719 145.820312 291.785156 147.675781 C 289.929688 149.527344 288.125 151.421875 286.363281 153.363281 C 284.605469 155.304688 282.894531 157.289062 281.230469 159.3125 C 279.570312 161.335938 277.957031 163.402344 276.398438 165.507812 C 274.835938 167.609375 273.328125 169.75 271.871094 171.929688 C 270.414062 174.105469 269.015625 176.320312 267.667969 178.566406 C 266.320312 180.8125 265.027344 183.09375 263.792969 185.402344 C 262.558594 187.710938 261.382812 190.050781 260.261719 192.417969 C 259.140625 194.789062 258.078125 197.179688 257.074219 199.601562 C 256.074219 202.019531 255.128906 204.464844 254.246094 206.929688 C 253.363281 209.398438 252.542969 211.882812 251.78125 214.390625 C 251.023438 216.898438 250.324219 219.421875 249.6875 221.960938 C 249.050781 224.503906 248.476562 227.058594 247.964844 229.628906 C 247.453125 232.195312 247.003906 234.777344 246.621094 237.367188 C 246.238281 239.957031 245.917969 242.558594 245.660156 245.164062 C 245.402344 247.773438 245.210938 250.382812 245.082031 253 C 244.953125 255.617188 244.886719 258.234375 244.886719 260.851562 L 244.886719 289.128906 C 243.597656 289.585938 242.351562 290.136719 241.144531 290.785156 C 239.941406 291.433594 238.792969 292.167969 237.699219 292.992188 C 236.609375 293.820312 235.585938 294.722656 234.632812 295.703125 C 233.679688 296.683594 232.808594 297.734375 232.015625 298.847656 C 231.226562 299.964844 230.523438 301.132812 229.914062 302.359375 C 229.300781 303.582031 228.785156 304.84375 228.367188 306.148438 C 227.953125 307.449219 227.636719 308.777344 227.421875 310.128906 C 227.210938 311.480469 227.101562 312.839844 227.097656 314.207031 L 227.097656 367.558594 C 227.097656 368.433594 227.140625 369.304688 227.226562 370.175781 C 227.3125 371.042969 227.441406 371.90625 227.609375 372.761719 C 227.78125 373.621094 227.992188 374.46875 228.246094 375.304688 C 228.5 376.140625 228.796875 376.960938 229.128906 377.769531 C 229.464844 378.574219 229.835938 379.363281 230.25 380.132812 C 230.660156 380.90625 231.109375 381.652344 231.59375 382.378906 C 232.082031 383.105469 232.601562 383.808594 233.15625 384.484375 C 233.710938 385.15625 234.296875 385.804688 234.914062 386.421875 C 235.53125 387.039062 236.179688 387.625 236.855469 388.179688 C 237.53125 388.734375 238.230469 389.253906 238.957031 389.738281 C 239.683594 390.226562 240.433594 390.675781 241.203125 391.085938 C 241.976562 391.496094 242.765625 391.871094 243.570312 392.207031 C 244.378906 392.539062 245.199219 392.832031 246.035156 393.085938 C 246.875 393.339844 247.71875 393.554688 248.578125 393.722656 C 249.433594 393.894531 250.296875 394.023438 251.167969 394.105469 C 252.039062 394.191406 252.910156 394.234375 253.785156 394.234375 L 288.828125 394.234375 C 291.371094 400.835938 294.453125 407.175781 298.070312 413.253906 C 301.691406 419.332031 305.792969 425.0625 310.382812 430.445312 C 314.972656 435.832031 319.984375 440.789062 325.414062 445.324219 C 330.84375 449.859375 336.617188 453.902344 342.734375 457.460938 L 342.734375 476.042969 L 266.238281 493.027344 C 263.292969 493.667969 260.382812 494.429688 257.503906 495.316406 C 254.625 496.199219 251.789062 497.207031 249 498.335938 C 246.207031 499.460938 243.464844 500.707031 240.78125 502.066406 C 238.09375 503.429688 235.46875 504.902344 232.910156 506.484375 C 230.347656 508.066406 227.859375 509.757812 225.441406 511.554688 C 223.023438 513.351562 220.6875 515.246094 218.433594 517.238281 C 216.175781 519.234375 214.007812 521.320312 211.929688 523.5 C 209.851562 525.679688 207.871094 527.941406 205.988281 530.289062 C 204.101562 532.640625 202.320312 535.0625 200.640625 537.5625 C 198.960938 540.0625 197.390625 542.628906 195.929688 545.261719 C 194.472656 547.894531 193.125 550.582031 191.894531 553.332031 C 190.664062 556.078125 189.550781 558.875 188.558594 561.714844 C 187.566406 564.558594 186.695312 567.4375 185.945312 570.355469 C 185.199219 573.269531 184.574219 576.214844 184.078125 579.183594 C 183.582031 582.152344 183.210938 585.136719 182.96875 588.136719 C 182.726562 591.140625 182.609375 594.144531 182.625 597.15625 L 182.625 643.214844 C 182.625 643.800781 182.679688 644.378906 182.792969 644.953125 C 182.90625 645.523438 183.078125 646.078125 183.300781 646.621094 C 183.523438 647.160156 183.796875 647.671875 184.121094 648.15625 C 184.445312 648.640625 184.816406 649.089844 185.230469 649.503906 C 185.640625 649.917969 186.089844 650.285156 186.578125 650.609375 C 187.0625 650.933594 187.574219 651.207031 188.113281 651.433594 C 188.652344 651.65625 189.210938 651.824219 189.78125 651.9375 C 190.355469 652.050781 190.933594 652.109375 191.519531 652.109375 L 618.476562 652.109375 C 619.0625 652.109375 619.640625 652.050781 620.214844 651.9375 C 620.785156 651.824219 621.34375 651.65625 621.882812 651.433594 C 622.421875 651.207031 622.933594 650.933594 623.421875 650.609375 C 623.90625 650.285156 624.355469 649.917969 624.769531 649.503906 C 625.179688 649.089844 625.550781 648.640625 625.875 648.15625 C 626.199219 647.671875 626.472656 647.160156 626.695312 646.621094 C 626.917969 646.078125 627.089844 645.523438 627.203125 644.953125 C 627.316406 644.378906 627.375 643.800781 627.375 643.214844 L 627.375 597.15625 C 627.386719 594.144531 627.269531 591.140625 627.027344 588.136719 C 626.785156 585.136719 626.414062 582.152344 625.917969 579.183594 C 625.421875 576.214844 624.796875 573.269531 624.050781 570.355469 C 623.300781 567.4375 622.429688 564.558594 621.4375 561.714844 C 620.445312 558.875 619.332031 556.078125 618.101562 553.332031 C 616.871094 550.585938 615.523438 547.894531 614.066406 545.261719 C 612.605469 542.628906 611.035156 540.0625 609.355469 537.5625 C 607.675781 535.0625 605.894531 532.640625 604.011719 530.292969 C 602.125 527.941406 600.144531 525.679688 598.066406 523.5 C 595.988281 521.320312 593.820312 519.234375 591.566406 517.238281 C 589.308594 515.246094 586.972656 513.351562 584.554688 511.554688 C 582.136719 509.757812 579.648438 508.066406 577.089844 506.484375 C 574.527344 504.902344 571.902344 503.429688 569.214844 502.066406 C 566.53125 500.707031 563.789062 499.460938 561 498.335938 C 558.207031 497.207031 555.371094 496.199219 552.492188 495.316406 C 549.613281 494.429688 546.703125 493.667969 543.761719 493.027344 Z M 480.25 497.117188 L 446.539062 551.09375 L 419.320312 534.730469 L 461.214844 492.9375 Z M 538.421875 403.128906 C 538.421875 403.710938 538.367188 404.289062 538.253906 404.863281 C 538.136719 405.433594 537.96875 405.992188 537.746094 406.53125 C 537.523438 407.070312 537.25 407.582031 536.925781 408.066406 C 536.601562 408.554688 536.230469 409.003906 535.816406 409.414062 C 535.40625 409.828125 534.957031 410.195312 534.46875 410.523438 C 533.984375 410.847656 533.472656 411.121094 532.933594 411.34375 C 532.394531 411.566406 531.835938 411.734375 531.261719 411.847656 C 530.691406 411.964844 530.113281 412.019531 529.527344 412.019531 L 512.714844 412.019531 C 516.152344 406.328125 519.117188 400.398438 521.613281 394.234375 L 538.421875 394.234375 Z M 511.738281 287.53125 L 483.542969 287.53125 C 479.976562 287.53125 476.429688 287.304688 472.894531 286.851562 C 469.359375 286.398438 465.871094 285.71875 462.421875 284.816406 C 458.976562 283.914062 455.601562 282.792969 452.300781 281.453125 C 448.996094 280.117188 445.792969 278.574219 442.691406 276.824219 C 439.585938 275.074219 436.605469 273.136719 433.753906 271.003906 C 430.898438 268.871094 428.191406 266.5625 425.636719 264.082031 C 423.078125 261.601562 420.691406 258.96875 418.472656 256.179688 C 416.253906 253.394531 414.222656 250.476562 412.382812 247.425781 C 412.183594 247.097656 411.96875 246.78125 411.730469 246.476562 C 411.496094 246.175781 411.238281 245.890625 410.964844 245.621094 C 410.691406 245.351562 410.398438 245.101562 410.09375 244.867188 C 409.789062 244.636719 409.46875 244.425781 409.132812 244.238281 C 408.800781 244.046875 408.453125 243.878906 408.097656 243.734375 C 407.742188 243.589844 407.378906 243.464844 407.007812 243.367188 C 406.636719 243.269531 406.261719 243.195312 405.878906 243.144531 C 405.5 243.097656 405.117188 243.070312 404.730469 243.070312 C 404.347656 243.070312 403.964844 243.097656 403.582031 243.144531 C 403.203125 243.195312 402.828125 243.269531 402.453125 243.367188 C 402.082031 243.464844 401.71875 243.589844 401.363281 243.734375 C 401.007812 243.878906 400.664062 244.046875 400.328125 244.238281 C 399.996094 244.425781 399.675781 244.636719 399.371094 244.867188 C 399.0625 245.101562 398.773438 245.351562 398.5 245.621094 C 398.222656 245.890625 397.96875 246.175781 397.730469 246.476562 C 397.496094 246.78125 397.277344 247.097656 397.082031 247.425781 C 395.238281 250.476562 393.207031 253.394531 390.992188 256.179688 C 388.773438 258.96875 386.382812 261.601562 383.828125 264.082031 C 381.269531 266.5625 378.5625 268.871094 375.710938 271.003906 C 372.855469 273.136719 369.875 275.074219 366.773438 276.824219 C 363.667969 278.574219 360.464844 280.117188 357.164062 281.453125 C 353.859375 282.792969 350.484375 283.914062 347.039062 284.816406 C 343.59375 285.71875 340.101562 286.398438 336.566406 286.851562 C 333.035156 287.304688 329.484375 287.53125 325.921875 287.53125 L 298.257812 287.53125 L 298.257812 260.851562 C 298.257812 259.105469 298.300781 257.363281 298.386719 255.617188 C 298.472656 253.875 298.601562 252.132812 298.773438 250.394531 C 298.945312 248.65625 299.15625 246.921875 299.414062 245.195312 C 299.671875 243.46875 299.96875 241.75 300.308594 240.035156 C 300.648438 238.324219 301.03125 236.621094 301.457031 234.925781 C 301.882812 233.230469 302.347656 231.550781 302.855469 229.878906 C 303.363281 228.207031 303.910156 226.550781 304.496094 224.90625 C 305.085938 223.261719 305.714844 221.632812 306.382812 220.019531 C 307.050781 218.40625 307.757812 216.808594 308.507812 215.230469 C 309.253906 213.652344 310.039062 212.09375 310.863281 210.550781 C 311.683594 209.011719 312.546875 207.492188 313.445312 205.996094 C 314.34375 204.496094 315.277344 203.023438 316.246094 201.570312 C 317.21875 200.117188 318.222656 198.691406 319.265625 197.289062 C 320.304688 195.886719 321.378906 194.507812 322.488281 193.160156 C 323.59375 191.808594 324.734375 190.488281 325.910156 189.195312 C 327.082031 187.898438 328.285156 186.636719 329.523438 185.402344 C 330.757812 184.164062 332.023438 182.960938 333.316406 181.789062 C 334.609375 180.617188 335.933594 179.476562 337.28125 178.367188 C 338.632812 177.261719 340.011719 176.1875 341.414062 175.144531 C 342.816406 174.105469 344.246094 173.101562 345.695312 172.128906 C 347.148438 171.160156 348.625 170.226562 350.121094 169.328125 C 351.621094 168.429688 353.140625 167.570312 354.679688 166.746094 C 356.222656 165.921875 357.78125 165.140625 359.359375 164.390625 C 360.941406 163.644531 362.535156 162.9375 364.152344 162.269531 C 365.765625 161.601562 367.394531 160.972656 369.039062 160.386719 C 370.683594 159.796875 372.339844 159.25 374.011719 158.742188 C 375.683594 158.234375 377.367188 157.769531 379.0625 157.34375 C 380.757812 156.921875 382.460938 156.539062 384.175781 156.199219 C 385.886719 155.855469 387.609375 155.558594 389.335938 155.300781 C 391.0625 155.046875 392.796875 154.832031 394.535156 154.660156 C 396.273438 154.488281 398.015625 154.363281 399.761719 154.277344 C 401.503906 154.191406 403.25 154.148438 405 154.148438 C 406.746094 154.148438 408.492188 154.191406 410.234375 154.277344 C 411.980469 154.363281 413.722656 154.488281 415.460938 154.660156 C 417.199219 154.832031 418.933594 155.046875 420.660156 155.300781 C 422.386719 155.558594 424.109375 155.855469 425.820312 156.199219 C 427.535156 156.539062 429.238281 156.921875 430.933594 157.34375 C 432.628906 157.769531 434.3125 158.234375 435.984375 158.742188 C 437.65625 159.25 439.3125 159.796875 440.957031 160.386719 C 442.601562 160.972656 444.230469 161.601562 445.847656 162.269531 C 447.460938 162.9375 449.054688 163.644531 450.636719 164.390625 C 452.214844 165.140625 453.773438 165.921875 455.316406 166.746094 C 456.855469 167.570312 458.375 168.429688 459.875 169.328125 C 461.371094 170.226562 462.847656 171.160156 464.300781 172.128906 C 465.753906 173.101562 467.179688 174.105469 468.582031 175.144531 C 469.988281 176.1875 471.363281 177.261719 472.714844 178.367188 C 474.0625 179.476562 475.386719 180.617188 476.679688 181.789062 C 477.976562 182.960938 479.238281 184.164062 480.476562 185.402344 C 481.710938 186.636719 482.914062 187.898438 484.085938 189.195312 C 485.261719 190.488281 486.402344 191.808594 487.507812 193.160156 C 488.617188 194.507812 489.691406 195.886719 490.734375 197.289062 C 491.773438 198.691406 492.777344 200.117188 493.75 201.570312 C 494.71875 203.023438 495.652344 204.496094 496.550781 205.996094 C 497.449219 207.492188 498.3125 209.011719 499.132812 210.550781 C 499.957031 212.09375 500.742188 213.652344 501.488281 215.230469 C 502.238281 216.808594 502.945312 218.40625 503.613281 220.019531 C 504.28125 221.632812 504.910156 223.261719 505.5 224.90625 C 506.085938 226.550781 506.636719 228.207031 507.140625 229.878906 C 507.648438 231.550781 508.113281 233.230469 508.539062 234.925781 C 508.964844 236.621094 509.347656 238.324219 509.6875 240.035156 C 510.027344 241.75 510.328125 243.46875 510.582031 245.195312 C 510.839844 246.921875 511.054688 248.65625 511.222656 250.394531 C 511.394531 252.132812 511.523438 253.875 511.609375 255.617188 C 511.695312 257.363281 511.738281 259.105469 511.738281 260.851562 Z M 565.109375 367.558594 C 565.109375 368.144531 565.050781 368.722656 564.9375 369.292969 C 564.824219 369.867188 564.65625 370.421875 564.429688 370.960938 C 564.207031 371.5 563.933594 372.015625 563.609375 372.5 C 563.285156 372.984375 562.914062 373.433594 562.503906 373.847656 C 562.089844 374.261719 561.640625 374.628906 561.15625 374.953125 C 560.667969 375.277344 560.15625 375.550781 559.617188 375.773438 C 559.078125 375.996094 558.519531 376.167969 557.949219 376.28125 C 557.375 376.394531 556.796875 376.453125 556.214844 376.453125 L 526.59375 376.453125 C 528.527344 367.664062 529.503906 358.773438 529.527344 349.773438 L 529.527344 305.3125 L 556.214844 305.3125 C 556.796875 305.3125 557.375 305.371094 557.949219 305.484375 C 558.519531 305.597656 559.078125 305.765625 559.617188 305.992188 C 560.15625 306.214844 560.667969 306.488281 561.15625 306.8125 C 561.640625 307.136719 562.089844 307.503906 562.503906 307.917969 C 562.914062 308.332031 563.285156 308.78125 563.609375 309.265625 C 563.933594 309.75 564.207031 310.265625 564.429688 310.804688 C 564.65625 311.34375 564.824219 311.898438 564.9375 312.472656 C 565.050781 313.042969 565.109375 313.621094 565.109375 314.207031 Z M 405 118.578125 C 407.328125 118.578125 409.65625 118.636719 411.980469 118.75 C 414.308594 118.863281 416.628906 119.035156 418.949219 119.265625 C 421.265625 119.492188 423.578125 119.777344 425.882812 120.117188 C 428.183594 120.460938 430.480469 120.859375 432.761719 121.3125 C 435.046875 121.765625 437.320312 122.277344 439.578125 122.84375 C 441.839844 123.40625 444.082031 124.027344 446.3125 124.703125 C 448.539062 125.378906 450.75 126.109375 452.945312 126.894531 C 455.136719 127.679688 457.308594 128.515625 459.460938 129.410156 C 461.613281 130.300781 463.742188 131.242188 465.847656 132.238281 C 467.953125 133.234375 470.035156 134.28125 472.085938 135.378906 C 474.140625 136.476562 476.167969 137.625 478.164062 138.820312 C 480.164062 140.015625 482.128906 141.261719 484.066406 142.554688 C 486.003906 143.851562 487.90625 145.191406 489.777344 146.578125 C 491.648438 147.964844 493.484375 149.394531 495.285156 150.875 C 497.085938 152.351562 498.847656 153.871094 500.574219 155.433594 C 502.300781 157 503.988281 158.601562 505.632812 160.25 C 507.28125 161.894531 508.886719 163.582031 510.449219 165.308594 C 512.015625 167.03125 513.535156 168.796875 515.011719 170.59375 C 516.492188 172.394531 517.921875 174.230469 519.3125 176.101562 C 520.699219 177.96875 522.039062 179.875 523.332031 181.808594 C 524.628906 183.746094 525.871094 185.710938 527.070312 187.710938 C 528.269531 189.707031 529.414062 191.730469 530.511719 193.785156 C 531.609375 195.839844 532.65625 197.917969 533.652344 200.023438 C 534.648438 202.128906 535.59375 204.257812 536.484375 206.40625 C 537.375 208.558594 538.214844 210.730469 539 212.921875 C 539.785156 215.113281 540.515625 217.324219 541.191406 219.554688 C 541.867188 221.78125 542.488281 224.023438 543.054688 226.285156 C 543.617188 228.542969 544.128906 230.8125 544.582031 233.097656 C 545.039062 235.378906 545.4375 237.675781 545.777344 239.976562 C 546.121094 242.28125 546.40625 244.589844 546.632812 246.90625 C 546.859375 249.226562 547.03125 251.546875 547.148438 253.871094 C 547.261719 256.199219 547.316406 258.523438 547.316406 260.851562 L 547.316406 287.53125 L 529.527344 287.53125 L 529.527344 260.851562 C 529.527344 258.816406 529.476562 256.78125 529.378906 254.746094 C 529.277344 252.710938 529.128906 250.679688 528.929688 248.652344 C 528.730469 246.625 528.480469 244.601562 528.179688 242.585938 C 527.882812 240.570312 527.53125 238.566406 527.136719 236.566406 C 526.738281 234.566406 526.292969 232.582031 525.796875 230.605469 C 525.300781 228.628906 524.757812 226.664062 524.167969 224.714844 C 523.574219 222.765625 522.933594 220.832031 522.25 218.914062 C 521.5625 216.996094 520.828125 215.09375 520.050781 213.214844 C 519.269531 211.332031 518.445312 209.46875 517.570312 207.625 C 516.699219 205.785156 515.785156 203.964844 514.824219 202.167969 C 513.863281 200.371094 512.859375 198.601562 511.8125 196.851562 C 510.761719 195.105469 509.671875 193.382812 508.542969 191.691406 C 507.410156 189.996094 506.234375 188.332031 505.023438 186.695312 C 503.808594 185.058594 502.554688 183.453125 501.261719 181.878906 C 499.96875 180.300781 498.636719 178.761719 497.269531 177.25 C 495.898438 175.742188 494.496094 174.265625 493.054688 172.824219 C 491.613281 171.382812 490.136719 169.980469 488.628906 168.613281 C 487.117188 167.242188 485.574219 165.914062 484 164.621094 C 482.425781 163.328125 480.816406 162.074219 479.179688 160.863281 C 477.542969 159.648438 475.878906 158.476562 474.183594 157.34375 C 472.488281 156.210938 470.769531 155.121094 469.019531 154.074219 C 467.273438 153.027344 465.5 152.023438 463.703125 151.0625 C 461.902344 150.101562 460.085938 149.1875 458.242188 148.316406 C 456.398438 147.445312 454.535156 146.617188 452.652344 145.839844 C 450.769531 145.058594 448.871094 144.328125 446.953125 143.640625 C 445.03125 142.953125 443.097656 142.316406 441.148438 141.722656 C 439.195312 141.132812 437.234375 140.589844 435.257812 140.09375 C 433.28125 139.597656 431.292969 139.152344 429.292969 138.753906 C 427.292969 138.359375 425.285156 138.007812 423.269531 137.710938 C 421.253906 137.410156 419.234375 137.160156 417.203125 136.960938 C 415.175781 136.761719 413.144531 136.613281 411.109375 136.511719 C 409.074219 136.414062 407.035156 136.363281 405 136.363281 C 402.960938 136.363281 400.921875 136.414062 398.886719 136.511719 C 396.851562 136.613281 394.820312 136.761719 392.792969 136.960938 C 390.765625 137.160156 388.742188 137.410156 386.726562 137.710938 C 384.710938 138.007812 382.703125 138.359375 380.703125 138.753906 C 378.703125 139.152344 376.71875 139.597656 374.738281 140.09375 C 372.761719 140.589844 370.800781 141.132812 368.847656 141.722656 C 366.898438 142.316406 364.964844 142.953125 363.046875 143.640625 C 361.125 144.328125 359.226562 145.058594 357.34375 145.839844 C 355.460938 146.617188 353.597656 147.445312 351.753906 148.316406 C 349.914062 149.1875 348.09375 150.101562 346.296875 151.0625 C 344.496094 152.023438 342.726562 153.027344 340.976562 154.074219 C 339.230469 155.121094 337.507812 156.210938 335.8125 157.34375 C 334.117188 158.476562 332.453125 159.648438 330.816406 160.863281 C 329.179688 162.074219 327.574219 163.328125 325.996094 164.621094 C 324.421875 165.914062 322.878906 167.242188 321.367188 168.613281 C 319.859375 169.980469 318.382812 171.382812 316.941406 172.824219 C 315.5 174.265625 314.097656 175.742188 312.726562 177.25 C 311.359375 178.761719 310.027344 180.300781 308.734375 181.878906 C 307.441406 183.453125 306.1875 185.058594 304.976562 186.695312 C 303.761719 188.332031 302.585938 189.996094 301.457031 191.691406 C 300.324219 193.382812 299.234375 195.105469 298.183594 196.851562 C 297.136719 198.601562 296.132812 200.371094 295.171875 202.167969 C 294.210938 203.964844 293.296875 205.785156 292.425781 207.625 C 291.554688 209.46875 290.726562 211.332031 289.949219 213.210938 C 289.167969 215.09375 288.433594 216.996094 287.746094 218.914062 C 287.0625 220.832031 286.421875 222.765625 285.832031 224.714844 C 285.238281 226.664062 284.695312 228.628906 284.199219 230.605469 C 283.707031 232.582031 283.257812 234.566406 282.859375 236.566406 C 282.464844 238.566406 282.113281 240.570312 281.816406 242.585938 C 281.515625 244.601562 281.269531 246.625 281.066406 248.652344 C 280.867188 250.679688 280.71875 252.710938 280.617188 254.746094 C 280.519531 256.78125 280.46875 258.816406 280.46875 260.851562 L 280.46875 287.53125 L 262.679688 287.53125 L 262.679688 260.851562 C 262.679688 258.523438 262.734375 256.199219 262.851562 253.871094 C 262.964844 251.546875 263.136719 249.226562 263.363281 246.90625 C 263.59375 244.589844 263.878906 242.28125 264.21875 239.976562 C 264.558594 237.675781 264.957031 235.378906 265.414062 233.097656 C 265.867188 230.8125 266.378906 228.542969 266.945312 226.285156 C 267.507812 224.023438 268.128906 221.78125 268.804688 219.554688 C 269.484375 217.324219 270.214844 215.113281 270.996094 212.921875 C 271.78125 210.730469 272.621094 208.558594 273.511719 206.40625 C 274.402344 204.257812 275.347656 202.128906 276.34375 200.023438 C 277.339844 197.917969 278.386719 195.839844 279.484375 193.785156 C 280.582031 191.730469 281.730469 189.707031 282.925781 187.710938 C 284.125 185.710938 285.371094 183.746094 286.664062 181.808594 C 287.957031 179.875 289.296875 177.96875 290.6875 176.101562 C 292.074219 174.230469 293.507812 172.394531 294.984375 170.59375 C 296.460938 168.796875 297.980469 167.03125 299.546875 165.308594 C 301.109375 163.582031 302.714844 161.894531 304.363281 160.25 C 306.011719 158.601562 307.695312 157 309.421875 155.433594 C 311.148438 153.871094 312.910156 152.351562 314.710938 150.875 C 316.511719 149.394531 318.347656 147.964844 320.21875 146.578125 C 322.089844 145.191406 323.992188 143.851562 325.929688 142.554688 C 327.867188 141.261719 329.832031 140.015625 331.832031 138.820312 C 333.828125 137.625 335.855469 136.476562 337.910156 135.378906 C 339.964844 134.28125 342.042969 133.234375 344.148438 132.238281 C 346.253906 131.242188 348.382812 130.300781 350.535156 129.410156 C 352.6875 128.515625 354.859375 127.679688 357.050781 126.894531 C 359.246094 126.109375 361.457031 125.378906 363.683594 124.703125 C 365.914062 124.027344 368.15625 123.40625 370.417969 122.84375 C 372.675781 122.277344 374.949219 121.765625 377.234375 121.3125 C 379.515625 120.859375 381.8125 120.460938 384.117188 120.117188 C 386.417969 119.777344 388.730469 119.492188 391.046875 119.265625 C 393.367188 119.035156 395.6875 118.863281 398.015625 118.75 C 400.339844 118.636719 402.667969 118.578125 405 118.578125 Z M 253.785156 376.453125 C 253.199219 376.453125 252.621094 376.394531 252.046875 376.28125 C 251.476562 376.167969 250.917969 375.996094 250.378906 375.773438 C 249.839844 375.550781 249.328125 375.277344 248.839844 374.953125 C 248.355469 374.628906 247.90625 374.261719 247.492188 373.847656 C 247.082031 373.433594 246.710938 372.984375 246.386719 372.5 C 246.0625 372.015625 245.789062 371.5 245.566406 370.960938 C 245.34375 370.421875 245.171875 369.867188 245.058594 369.292969 C 244.945312 368.722656 244.886719 368.144531 244.886719 367.558594 L 244.886719 314.207031 C 244.886719 313.621094 244.945312 313.042969 245.058594 312.472656 C 245.171875 311.898438 245.34375 311.34375 245.566406 310.804688 C 245.789062 310.265625 246.0625 309.75 246.386719 309.265625 C 246.710938 308.78125 247.082031 308.332031 247.492188 307.917969 C 247.90625 307.503906 248.355469 307.136719 248.839844 306.8125 C 249.328125 306.488281 249.839844 306.214844 250.378906 305.992188 C 250.917969 305.765625 251.476562 305.597656 252.046875 305.484375 C 252.621094 305.371094 253.199219 305.3125 253.785156 305.3125 L 280.46875 305.3125 L 280.46875 349.773438 C 280.492188 358.773438 281.46875 367.664062 283.402344 376.453125 Z M 298.257812 349.773438 L 298.257812 305.3125 L 326.457031 305.3125 C 330.214844 305.300781 333.960938 305.082031 337.695312 304.652344 C 341.429688 304.222656 345.128906 303.589844 348.792969 302.746094 C 352.453125 301.90625 356.058594 300.863281 359.609375 299.621094 C 363.15625 298.378906 366.621094 296.941406 370.007812 295.3125 C 373.394531 293.683594 376.679688 291.867188 379.867188 289.875 C 383.050781 287.878906 386.113281 285.710938 389.058594 283.371094 C 392 281.035156 394.804688 278.542969 397.46875 275.890625 C 400.136719 273.242188 402.644531 270.453125 405 267.523438 C 407.351562 270.453125 409.863281 273.242188 412.527344 275.890625 C 415.191406 278.542969 417.996094 281.035156 420.9375 283.371094 C 423.882812 285.710938 426.945312 287.878906 430.128906 289.875 C 433.316406 291.867188 436.601562 293.683594 439.988281 295.3125 C 443.375 296.941406 446.84375 298.378906 450.390625 299.621094 C 453.9375 300.863281 457.542969 301.90625 461.203125 302.746094 C 464.867188 303.589844 468.566406 304.222656 472.300781 304.652344 C 476.035156 305.082031 479.78125 305.300781 483.542969 305.3125 L 511.738281 305.3125 L 511.738281 349.773438 C 511.726562 355.328125 511.285156 360.847656 510.414062 366.332031 C 509.539062 371.816406 508.246094 377.199219 506.535156 382.484375 C 504.820312 387.765625 502.707031 392.882812 500.191406 397.835938 C 497.679688 402.789062 494.796875 407.515625 491.546875 412.019531 L 430.082031 412.019531 C 429.734375 411.039062 429.332031 410.085938 428.875 409.152344 C 428.417969 408.21875 427.90625 407.316406 427.339844 406.441406 C 426.777344 405.570312 426.164062 404.730469 425.503906 403.929688 C 424.839844 403.128906 424.136719 402.367188 423.382812 401.648438 C 422.632812 400.929688 421.84375 400.257812 421.015625 399.632812 C 420.183594 399.003906 419.320312 398.429688 418.425781 397.902344 C 417.527344 397.375 416.605469 396.90625 415.652344 396.488281 C 414.699219 396.070312 413.726562 395.707031 412.734375 395.402344 C 411.738281 395.101562 410.730469 394.855469 409.707031 394.667969 C 408.6875 394.480469 407.65625 394.355469 406.617188 394.289062 C 405.582031 394.222656 404.542969 394.21875 403.503906 394.273438 C 402.46875 394.328125 401.433594 394.445312 400.410156 394.621094 C 399.386719 394.796875 398.375 395.03125 397.378906 395.324219 C 396.382812 395.617188 395.40625 395.96875 394.449219 396.378906 C 393.492188 396.785156 392.5625 397.246094 391.660156 397.765625 C 390.757812 398.28125 389.890625 398.847656 389.054688 399.464844 C 388.21875 400.082031 387.421875 400.75 386.664062 401.460938 C 385.90625 402.171875 385.191406 402.921875 384.519531 403.71875 C 383.851562 404.511719 383.230469 405.34375 382.65625 406.210938 C 382.082031 407.078125 381.5625 407.976562 381.09375 408.902344 C 380.628906 409.832031 380.214844 410.785156 379.859375 411.757812 C 379.5 412.734375 379.203125 413.730469 378.960938 414.742188 C 378.722656 415.75 378.542969 416.773438 378.421875 417.804688 C 378.300781 418.835938 378.238281 419.875 378.238281 420.914062 C 378.238281 421.953125 378.300781 422.988281 378.421875 424.019531 C 378.542969 425.050781 378.722656 426.074219 378.960938 427.085938 C 379.203125 428.09375 379.5 429.089844 379.859375 430.066406 C 380.214844 431.042969 380.628906 431.992188 381.09375 432.921875 C 381.5625 433.847656 382.082031 434.746094 382.65625 435.613281 C 383.230469 436.480469 383.851562 437.3125 384.519531 438.105469 C 385.191406 438.902344 385.90625 439.652344 386.664062 440.367188 C 387.421875 441.078125 388.21875 441.742188 389.054688 442.359375 C 389.890625 442.976562 390.757812 443.542969 391.660156 444.0625 C 392.5625 444.578125 393.492188 445.039062 394.449219 445.449219 C 395.40625 445.855469 396.382812 446.207031 397.378906 446.5 C 398.375 446.792969 399.386719 447.027344 400.410156 447.203125 C 401.433594 447.378906 402.46875 447.496094 403.503906 447.550781 C 404.542969 447.605469 405.582031 447.601562 406.617188 447.535156 C 407.65625 447.46875 408.6875 447.34375 409.707031 447.15625 C 410.730469 446.96875 411.738281 446.726562 412.734375 446.421875 C 413.726562 446.117188 414.699219 445.753906 415.652344 445.335938 C 416.605469 444.917969 417.527344 444.449219 418.425781 443.921875 C 419.320312 443.394531 420.183594 442.820312 421.015625 442.191406 C 421.84375 441.566406 422.632812 440.894531 423.382812 440.175781 C 424.136719 439.457031 424.839844 438.695312 425.503906 437.894531 C 426.164062 437.09375 426.777344 436.253906 427.339844 435.382812 C 427.90625 434.507812 428.417969 433.605469 428.875 432.671875 C 429.332031 431.742188 429.734375 430.785156 430.082031 429.804688 L 475.359375 429.804688 C 473.445312 431.480469 471.472656 433.089844 469.441406 434.625 C 467.414062 436.160156 465.332031 437.625 463.199219 439.011719 C 461.0625 440.398438 458.882812 441.707031 456.65625 442.941406 C 454.425781 444.171875 452.160156 445.320312 449.847656 446.390625 C 447.539062 447.460938 445.195312 448.445312 442.8125 449.347656 C 440.433594 450.25 438.023438 451.066406 435.582031 451.792969 C 433.144531 452.523438 430.683594 453.164062 428.199219 453.71875 C 425.714844 454.269531 423.210938 454.734375 420.695312 455.109375 C 418.175781 455.480469 415.648438 455.765625 413.109375 455.960938 C 410.570312 456.152344 408.03125 456.253906 405.484375 456.265625 C 402.9375 456.277344 400.394531 456.199219 397.855469 456.027344 C 395.316406 455.859375 392.785156 455.597656 390.265625 455.246094 C 387.742188 454.894531 385.238281 454.453125 382.746094 453.925781 C 380.257812 453.394531 377.789062 452.773438 375.34375 452.066406 C 372.898438 451.359375 370.484375 450.566406 368.09375 449.6875 C 365.707031 448.808594 363.351562 447.84375 361.03125 446.796875 C 358.710938 445.746094 356.433594 444.617188 354.195312 443.40625 C 351.953125 442.195312 349.761719 440.90625 347.617188 439.539062 C 345.46875 438.167969 343.375 436.726562 341.332031 435.207031 C 339.289062 433.691406 337.300781 432.101562 335.371094 430.441406 C 333.441406 428.78125 331.574219 427.054688 329.769531 425.261719 C 327.964844 423.46875 326.222656 421.613281 324.550781 419.695312 C 322.878906 417.777344 321.273438 415.800781 319.742188 413.769531 C 318.210938 411.734375 316.753906 409.652344 315.371094 407.515625 C 313.988281 405.378906 312.683594 403.195312 311.457031 400.964844 C 310.234375 398.734375 309.085938 396.460938 308.023438 394.152344 C 306.960938 391.839844 305.980469 389.492188 305.085938 387.109375 C 304.1875 384.726562 303.378906 382.316406 302.65625 379.875 C 301.933594 377.4375 301.296875 374.972656 300.75 372.488281 C 300.203125 370.003906 299.746094 367.5 299.378906 364.984375 C 299.011719 362.464844 298.734375 359.9375 298.546875 357.398438 C 298.359375 354.859375 298.261719 352.320312 298.257812 349.773438 Z M 413.894531 420.914062 C 413.894531 421.496094 413.835938 422.074219 413.722656 422.648438 C 413.609375 423.21875 413.441406 423.777344 413.214844 424.316406 C 412.992188 424.855469 412.71875 425.367188 412.394531 425.851562 C 412.070312 426.339844 411.699219 426.789062 411.289062 427.199219 C 410.875 427.613281 410.425781 427.980469 409.941406 428.304688 C 409.453125 428.628906 408.941406 428.902344 408.402344 429.128906 C 407.863281 429.351562 407.304688 429.519531 406.734375 429.632812 C 406.160156 429.746094 405.582031 429.804688 405 429.804688 C 404.414062 429.804688 403.835938 429.746094 403.261719 429.632812 C 402.691406 429.519531 402.132812 429.351562 401.59375 429.128906 C 401.054688 428.902344 400.542969 428.628906 400.054688 428.304688 C 399.570312 427.980469 399.121094 427.613281 398.707031 427.199219 C 398.296875 426.789062 397.925781 426.339844 397.601562 425.851562 C 397.277344 425.367188 397.003906 424.855469 396.78125 424.316406 C 396.558594 423.777344 396.386719 423.21875 396.273438 422.648438 C 396.160156 422.074219 396.101562 421.496094 396.101562 420.914062 C 396.101562 420.328125 396.160156 419.75 396.273438 419.175781 C 396.386719 418.605469 396.558594 418.046875 396.78125 417.507812 C 397.003906 416.96875 397.277344 416.457031 397.601562 415.972656 C 397.925781 415.488281 398.296875 415.039062 398.707031 414.625 C 399.121094 414.210938 399.570312 413.84375 400.054688 413.519531 C 400.542969 413.195312 401.054688 412.921875 401.59375 412.695312 C 402.132812 412.472656 402.691406 412.304688 403.261719 412.191406 C 403.835938 412.078125 404.414062 412.019531 405 412.019531 C 405.582031 412.019531 406.160156 412.078125 406.734375 412.191406 C 407.304688 412.304688 407.863281 412.472656 408.402344 412.695312 C 408.941406 412.921875 409.453125 413.195312 409.941406 413.519531 C 410.425781 413.84375 410.875 414.210938 411.289062 414.625 C 411.699219 415.039062 412.070312 415.488281 412.394531 415.972656 C 412.71875 416.457031 412.992188 416.96875 413.214844 417.507812 C 413.441406 418.046875 413.609375 418.605469 413.722656 419.175781 C 413.835938 419.75 413.894531 420.328125 413.894531 420.914062 Z M 405 474.265625 C 412.605469 474.253906 420.144531 473.546875 427.621094 472.140625 C 435.097656 470.734375 442.382812 468.65625 449.472656 465.90625 L 449.472656 479.511719 L 405 523.972656 L 360.523438 479.511719 L 360.523438 465.90625 C 367.613281 468.65625 374.898438 470.734375 382.375 472.140625 C 389.851562 473.546875 397.390625 474.253906 405 474.265625 Z M 348.78125 492.9375 L 390.675781 534.730469 L 363.457031 551.09375 L 329.746094 497.117188 Z M 200.414062 597.15625 C 200.414062 594.648438 200.519531 592.148438 200.730469 589.652344 C 200.945312 587.152344 201.261719 584.671875 201.683594 582.199219 C 202.105469 579.730469 202.628906 577.28125 203.257812 574.855469 C 203.886719 572.429688 204.617188 570.035156 205.449219 567.671875 C 206.28125 565.308594 207.210938 562.984375 208.238281 560.699219 C 209.269531 558.414062 210.390625 556.175781 211.609375 553.984375 C 212.824219 551.792969 214.132812 549.65625 215.53125 547.578125 C 216.929688 545.5 218.414062 543.480469 219.980469 541.527344 C 221.550781 539.570312 223.199219 537.6875 224.925781 535.871094 C 226.65625 534.054688 228.457031 532.316406 230.332031 530.652344 C 232.207031 528.992188 234.148438 527.410156 236.15625 525.910156 C 238.164062 524.410156 240.234375 523 242.363281 521.675781 C 244.492188 520.351562 246.671875 519.121094 248.902344 517.980469 C 251.136719 516.839844 253.414062 515.796875 255.734375 514.847656 C 258.054688 513.902344 260.410156 513.054688 262.800781 512.304688 C 265.195312 511.558594 267.613281 510.910156 270.0625 510.367188 L 311.335938 501.476562 L 352.960938 568.167969 C 353.378906 568.78125 353.863281 569.335938 354.421875 569.832031 C 354.976562 570.324219 355.582031 570.746094 356.246094 571.085938 C 356.90625 571.425781 357.597656 571.683594 358.320312 571.851562 C 359.046875 572.019531 359.78125 572.09375 360.523438 572.078125 C 362.148438 572.078125 363.660156 571.664062 365.058594 570.835938 L 396.101562 552.25 L 396.101562 634.324219 L 271.574219 634.324219 L 271.574219 589.863281 L 253.785156 589.863281 L 253.785156 634.324219 L 200.414062 634.324219 Z M 609.582031 634.324219 L 556.214844 634.324219 L 556.214844 589.863281 L 538.421875 589.863281 L 538.421875 634.324219 L 413.894531 634.324219 L 413.894531 552.25 L 444.9375 570.835938 C 446.335938 571.664062 447.847656 572.078125 449.472656 572.078125 C 450.230469 572.082031 450.972656 571.988281 451.707031 571.800781 C 452.4375 571.609375 453.132812 571.335938 453.796875 570.96875 C 454.457031 570.601562 455.0625 570.160156 455.609375 569.640625 C 456.160156 569.121094 456.632812 568.539062 457.035156 567.898438 L 498.664062 500.941406 L 539.933594 509.835938 C 542.394531 510.378906 544.824219 511.03125 547.226562 511.78125 C 549.628906 512.535156 551.996094 513.386719 554.324219 514.339844 C 556.65625 515.292969 558.941406 516.34375 561.183594 517.492188 C 563.425781 518.640625 565.613281 519.878906 567.746094 521.210938 C 569.882812 522.546875 571.957031 523.96875 573.972656 525.476562 C 575.988281 526.984375 577.9375 528.578125 579.816406 530.253906 C 581.695312 531.925781 583.5 533.679688 585.230469 535.507812 C 586.960938 537.335938 588.613281 539.234375 590.183594 541.199219 C 591.753906 543.167969 593.234375 545.199219 594.632812 547.292969 C 596.03125 549.386719 597.335938 551.535156 598.550781 553.742188 C 599.765625 555.945312 600.882812 558.199219 601.90625 560.5 C 602.929688 562.796875 603.855469 565.136719 604.679688 567.515625 C 605.503906 569.894531 606.226562 572.304688 606.847656 574.742188 C 607.464844 577.183594 607.980469 579.644531 608.394531 582.125 C 608.804688 584.609375 609.109375 587.105469 609.308594 589.617188 C 609.507812 592.125 609.597656 594.636719 609.582031 597.15625 Z M 609.582031 634.324219 "
              fill-opacity="1" fill-rule="nonzero"/>
    </g>
</svg>
